<?xml version="1.0" encoding="utf-8" standalone="no"?>
<!DOCTYPE svg PUBLIC "-//W3C//DTD SVG 1.1//EN"
  "http://www.w3.org/Graphics/SVG/1.1/DTD/svg11.dtd">
<!-- Created with matplotlib (http://matplotlib.org/) -->
<svg height="720pt" version="1.1" viewBox="0 0 1152 720" width="1152pt" xmlns="http://www.w3.org/2000/svg" xmlns:xlink="http://www.w3.org/1999/xlink">
 <defs>
  <style type="text/css">
*{stroke-linecap:butt;stroke-linejoin:round;}
  </style>
 </defs>
 <g id="figure_1">
  <g id="patch_1">
   <path d="M 0 720 
L 1152 720 
L 1152 0 
L 0 0 
z
" style="fill:#ffffff;"/>
  </g>
  <g id="axes_1">
   <g id="patch_2">
    <path d="M 144 630 
L 1036.8 630 
L 1036.8 86.4 
L 144 86.4 
z
" style="fill:#ffffff;"/>
   </g>
   <g id="matplotlib.axis_1">
    <g id="xtick_1">
     <g id="line2d_1">
      <defs>
       <path d="M 0 0 
L 0 3.5 
" id="m880709b447" style="stroke:#000000;stroke-width:0.8;"/>
      </defs>
      <g>
       <use style="stroke:#000000;stroke-width:0.8;" x="145.829103" xlink:href="#m880709b447" y="630"/>
      </g>
     </g>
     <g id="text_1">
      <!-- 0 -->
      <defs>
       <path d="M 31.78125 66.40625 
Q 24.171875 66.40625 20.328125 58.90625 
Q 16.5 51.421875 16.5 36.375 
Q 16.5 21.390625 20.328125 13.890625 
Q 24.171875 6.390625 31.78125 6.390625 
Q 39.453125 6.390625 43.28125 13.890625 
Q 47.125 21.390625 47.125 36.375 
Q 47.125 51.421875 43.28125 58.90625 
Q 39.453125 66.40625 31.78125 66.40625 
M 31.78125 74.21875 
Q 44.046875 74.21875 50.515625 64.515625 
Q 56.984375 54.828125 56.984375 36.375 
Q 56.984375 17.96875 50.515625 8.265625 
Q 44.046875 -1.421875 31.78125 -1.421875 
Q 19.53125 -1.421875 13.0625 8.265625 
Q 6.59375 17.96875 6.59375 36.375 
Q 6.59375 54.828125 13.0625 64.515625 
Q 19.53125 74.21875 31.78125 74.21875 
" id="DejaVuSans-30"/>
      </defs>
      <g transform="translate(142.647853 644.598438)scale(0.1 -0.1)">
       <use xlink:href="#DejaVuSans-30"/>
      </g>
     </g>
    </g>
    <g id="xtick_2">
     <g id="line2d_2">
      <g>
       <use style="stroke:#000000;stroke-width:0.8;" x="244.825869" xlink:href="#m880709b447" y="630"/>
      </g>
     </g>
     <g id="text_2">
      <!-- 5 -->
      <defs>
       <path d="M 10.796875 72.90625 
L 49.515625 72.90625 
L 49.515625 64.59375 
L 19.828125 64.59375 
L 19.828125 46.734375 
Q 21.96875 47.46875 24.109375 47.828125 
Q 26.265625 48.1875 28.421875 48.1875 
Q 40.625 48.1875 47.75 41.5 
Q 54.890625 34.8125 54.890625 23.390625 
Q 54.890625 11.625 47.5625 5.09375 
Q 40.234375 -1.421875 26.90625 -1.421875 
Q 22.3125 -1.421875 17.546875 -0.640625 
Q 12.796875 0.140625 7.71875 1.703125 
L 7.71875 11.625 
Q 12.109375 9.234375 16.796875 8.0625 
Q 21.484375 6.890625 26.703125 6.890625 
Q 35.15625 6.890625 40.078125 11.328125 
Q 45.015625 15.765625 45.015625 23.390625 
Q 45.015625 31 40.078125 35.4375 
Q 35.15625 39.890625 26.703125 39.890625 
Q 22.75 39.890625 18.8125 39.015625 
Q 14.890625 38.140625 10.796875 36.28125 
z
" id="DejaVuSans-35"/>
      </defs>
      <g transform="translate(241.644619 644.598438)scale(0.1 -0.1)">
       <use xlink:href="#DejaVuSans-35"/>
      </g>
     </g>
    </g>
    <g id="xtick_3">
     <g id="line2d_3">
      <g>
       <use style="stroke:#000000;stroke-width:0.8;" x="343.822635" xlink:href="#m880709b447" y="630"/>
      </g>
     </g>
     <g id="text_3">
      <!-- 10 -->
      <defs>
       <path d="M 12.40625 8.296875 
L 28.515625 8.296875 
L 28.515625 63.921875 
L 10.984375 60.40625 
L 10.984375 69.390625 
L 28.421875 72.90625 
L 38.28125 72.90625 
L 38.28125 8.296875 
L 54.390625 8.296875 
L 54.390625 0 
L 12.40625 0 
z
" id="DejaVuSans-31"/>
      </defs>
      <g transform="translate(337.460135 644.598438)scale(0.1 -0.1)">
       <use xlink:href="#DejaVuSans-31"/>
       <use x="63.623047" xlink:href="#DejaVuSans-30"/>
      </g>
     </g>
    </g>
    <g id="xtick_4">
     <g id="line2d_4">
      <g>
       <use style="stroke:#000000;stroke-width:0.8;" x="442.819402" xlink:href="#m880709b447" y="630"/>
      </g>
     </g>
     <g id="text_4">
      <!-- 15 -->
      <g transform="translate(436.456902 644.598438)scale(0.1 -0.1)">
       <use xlink:href="#DejaVuSans-31"/>
       <use x="63.623047" xlink:href="#DejaVuSans-35"/>
      </g>
     </g>
    </g>
    <g id="xtick_5">
     <g id="line2d_5">
      <g>
       <use style="stroke:#000000;stroke-width:0.8;" x="541.816168" xlink:href="#m880709b447" y="630"/>
      </g>
     </g>
     <g id="text_5">
      <!-- 20 -->
      <defs>
       <path d="M 19.1875 8.296875 
L 53.609375 8.296875 
L 53.609375 0 
L 7.328125 0 
L 7.328125 8.296875 
Q 12.9375 14.109375 22.625 23.890625 
Q 32.328125 33.6875 34.8125 36.53125 
Q 39.546875 41.84375 41.421875 45.53125 
Q 43.3125 49.21875 43.3125 52.78125 
Q 43.3125 58.59375 39.234375 62.25 
Q 35.15625 65.921875 28.609375 65.921875 
Q 23.96875 65.921875 18.8125 64.3125 
Q 13.671875 62.703125 7.8125 59.421875 
L 7.8125 69.390625 
Q 13.765625 71.78125 18.9375 73 
Q 24.125 74.21875 28.421875 74.21875 
Q 39.75 74.21875 46.484375 68.546875 
Q 53.21875 62.890625 53.21875 53.421875 
Q 53.21875 48.921875 51.53125 44.890625 
Q 49.859375 40.875 45.40625 35.40625 
Q 44.1875 33.984375 37.640625 27.21875 
Q 31.109375 20.453125 19.1875 8.296875 
" id="DejaVuSans-32"/>
      </defs>
      <g transform="translate(535.453668 644.598438)scale(0.1 -0.1)">
       <use xlink:href="#DejaVuSans-32"/>
       <use x="63.623047" xlink:href="#DejaVuSans-30"/>
      </g>
     </g>
    </g>
    <g id="xtick_6">
     <g id="line2d_6">
      <g>
       <use style="stroke:#000000;stroke-width:0.8;" x="640.812935" xlink:href="#m880709b447" y="630"/>
      </g>
     </g>
     <g id="text_6">
      <!-- 25 -->
      <g transform="translate(634.450435 644.598438)scale(0.1 -0.1)">
       <use xlink:href="#DejaVuSans-32"/>
       <use x="63.623047" xlink:href="#DejaVuSans-35"/>
      </g>
     </g>
    </g>
    <g id="xtick_7">
     <g id="line2d_7">
      <g>
       <use style="stroke:#000000;stroke-width:0.8;" x="739.809701" xlink:href="#m880709b447" y="630"/>
      </g>
     </g>
     <g id="text_7">
      <!-- 30 -->
      <defs>
       <path d="M 40.578125 39.3125 
Q 47.65625 37.796875 51.625 33 
Q 55.609375 28.21875 55.609375 21.1875 
Q 55.609375 10.40625 48.1875 4.484375 
Q 40.765625 -1.421875 27.09375 -1.421875 
Q 22.515625 -1.421875 17.65625 -0.515625 
Q 12.796875 0.390625 7.625 2.203125 
L 7.625 11.71875 
Q 11.71875 9.328125 16.59375 8.109375 
Q 21.484375 6.890625 26.8125 6.890625 
Q 36.078125 6.890625 40.9375 10.546875 
Q 45.796875 14.203125 45.796875 21.1875 
Q 45.796875 27.640625 41.28125 31.265625 
Q 36.765625 34.90625 28.71875 34.90625 
L 20.21875 34.90625 
L 20.21875 43.015625 
L 29.109375 43.015625 
Q 36.375 43.015625 40.234375 45.921875 
Q 44.09375 48.828125 44.09375 54.296875 
Q 44.09375 59.90625 40.109375 62.90625 
Q 36.140625 65.921875 28.71875 65.921875 
Q 24.65625 65.921875 20.015625 65.03125 
Q 15.375 64.15625 9.8125 62.3125 
L 9.8125 71.09375 
Q 15.4375 72.65625 20.34375 73.4375 
Q 25.25 74.21875 29.59375 74.21875 
Q 40.828125 74.21875 47.359375 69.109375 
Q 53.90625 64.015625 53.90625 55.328125 
Q 53.90625 49.265625 50.4375 45.09375 
Q 46.96875 40.921875 40.578125 39.3125 
" id="DejaVuSans-33"/>
      </defs>
      <g transform="translate(733.447201 644.598438)scale(0.1 -0.1)">
       <use xlink:href="#DejaVuSans-33"/>
       <use x="63.623047" xlink:href="#DejaVuSans-30"/>
      </g>
     </g>
    </g>
    <g id="xtick_8">
     <g id="line2d_8">
      <g>
       <use style="stroke:#000000;stroke-width:0.8;" x="838.806467" xlink:href="#m880709b447" y="630"/>
      </g>
     </g>
     <g id="text_8">
      <!-- 35 -->
      <g transform="translate(832.443967 644.598438)scale(0.1 -0.1)">
       <use xlink:href="#DejaVuSans-33"/>
       <use x="63.623047" xlink:href="#DejaVuSans-35"/>
      </g>
     </g>
    </g>
    <g id="xtick_9">
     <g id="line2d_9">
      <g>
       <use style="stroke:#000000;stroke-width:0.8;" x="937.803234" xlink:href="#m880709b447" y="630"/>
      </g>
     </g>
     <g id="text_9">
      <!-- 40 -->
      <defs>
       <path d="M 37.796875 64.3125 
L 12.890625 25.390625 
L 37.796875 25.390625 
z
M 35.203125 72.90625 
L 47.609375 72.90625 
L 47.609375 25.390625 
L 58.015625 25.390625 
L 58.015625 17.1875 
L 47.609375 17.1875 
L 47.609375 0 
L 37.796875 0 
L 37.796875 17.1875 
L 4.890625 17.1875 
L 4.890625 26.703125 
z
" id="DejaVuSans-34"/>
      </defs>
      <g transform="translate(931.440734 644.598438)scale(0.1 -0.1)">
       <use xlink:href="#DejaVuSans-34"/>
       <use x="63.623047" xlink:href="#DejaVuSans-30"/>
      </g>
     </g>
    </g>
    <g id="xtick_10">
     <g id="line2d_10">
      <g>
       <use style="stroke:#000000;stroke-width:0.8;" x="1036.8" xlink:href="#m880709b447" y="630"/>
      </g>
     </g>
     <g id="text_10">
      <!-- 45 -->
      <g transform="translate(1030.4375 644.598438)scale(0.1 -0.1)">
       <use xlink:href="#DejaVuSans-34"/>
       <use x="63.623047" xlink:href="#DejaVuSans-35"/>
      </g>
     </g>
    </g>
    <g id="text_11">
     <!-- wall-clock time (days) -->
     <defs>
      <path d="M 4.203125 54.6875 
L 13.1875 54.6875 
L 24.421875 12.015625 
L 35.59375 54.6875 
L 46.1875 54.6875 
L 57.421875 12.015625 
L 68.609375 54.6875 
L 77.59375 54.6875 
L 63.28125 0 
L 52.6875 0 
L 40.921875 44.828125 
L 29.109375 0 
L 18.5 0 
z
" id="DejaVuSans-77"/>
      <path d="M 34.28125 27.484375 
Q 23.390625 27.484375 19.1875 25 
Q 14.984375 22.515625 14.984375 16.5 
Q 14.984375 11.71875 18.140625 8.90625 
Q 21.296875 6.109375 26.703125 6.109375 
Q 34.1875 6.109375 38.703125 11.40625 
Q 43.21875 16.703125 43.21875 25.484375 
L 43.21875 27.484375 
z
M 52.203125 31.203125 
L 52.203125 0 
L 43.21875 0 
L 43.21875 8.296875 
Q 40.140625 3.328125 35.546875 0.953125 
Q 30.953125 -1.421875 24.3125 -1.421875 
Q 15.921875 -1.421875 10.953125 3.296875 
Q 6 8.015625 6 15.921875 
Q 6 25.140625 12.171875 29.828125 
Q 18.359375 34.515625 30.609375 34.515625 
L 43.21875 34.515625 
L 43.21875 35.40625 
Q 43.21875 41.609375 39.140625 45 
Q 35.0625 48.390625 27.6875 48.390625 
Q 23 48.390625 18.546875 47.265625 
Q 14.109375 46.140625 10.015625 43.890625 
L 10.015625 52.203125 
Q 14.9375 54.109375 19.578125 55.046875 
Q 24.21875 56 28.609375 56 
Q 40.484375 56 46.34375 49.84375 
Q 52.203125 43.703125 52.203125 31.203125 
" id="DejaVuSans-61"/>
      <path d="M 9.421875 75.984375 
L 18.40625 75.984375 
L 18.40625 0 
L 9.421875 0 
z
" id="DejaVuSans-6c"/>
      <path d="M 4.890625 31.390625 
L 31.203125 31.390625 
L 31.203125 23.390625 
L 4.890625 23.390625 
z
" id="DejaVuSans-2d"/>
      <path d="M 48.78125 52.59375 
L 48.78125 44.1875 
Q 44.96875 46.296875 41.140625 47.34375 
Q 37.3125 48.390625 33.40625 48.390625 
Q 24.65625 48.390625 19.8125 42.84375 
Q 14.984375 37.3125 14.984375 27.296875 
Q 14.984375 17.28125 19.8125 11.734375 
Q 24.65625 6.203125 33.40625 6.203125 
Q 37.3125 6.203125 41.140625 7.25 
Q 44.96875 8.296875 48.78125 10.40625 
L 48.78125 2.09375 
Q 45.015625 0.34375 40.984375 -0.53125 
Q 36.96875 -1.421875 32.421875 -1.421875 
Q 20.0625 -1.421875 12.78125 6.34375 
Q 5.515625 14.109375 5.515625 27.296875 
Q 5.515625 40.671875 12.859375 48.328125 
Q 20.21875 56 33.015625 56 
Q 37.15625 56 41.109375 55.140625 
Q 45.0625 54.296875 48.78125 52.59375 
" id="DejaVuSans-63"/>
      <path d="M 30.609375 48.390625 
Q 23.390625 48.390625 19.1875 42.75 
Q 14.984375 37.109375 14.984375 27.296875 
Q 14.984375 17.484375 19.15625 11.84375 
Q 23.34375 6.203125 30.609375 6.203125 
Q 37.796875 6.203125 41.984375 11.859375 
Q 46.1875 17.53125 46.1875 27.296875 
Q 46.1875 37.015625 41.984375 42.703125 
Q 37.796875 48.390625 30.609375 48.390625 
M 30.609375 56 
Q 42.328125 56 49.015625 48.375 
Q 55.71875 40.765625 55.71875 27.296875 
Q 55.71875 13.875 49.015625 6.21875 
Q 42.328125 -1.421875 30.609375 -1.421875 
Q 18.84375 -1.421875 12.171875 6.21875 
Q 5.515625 13.875 5.515625 27.296875 
Q 5.515625 40.765625 12.171875 48.375 
Q 18.84375 56 30.609375 56 
" id="DejaVuSans-6f"/>
      <path d="M 9.078125 75.984375 
L 18.109375 75.984375 
L 18.109375 31.109375 
L 44.921875 54.6875 
L 56.390625 54.6875 
L 27.390625 29.109375 
L 57.625 0 
L 45.90625 0 
L 18.109375 26.703125 
L 18.109375 0 
L 9.078125 0 
z
" id="DejaVuSans-6b"/>
      <path id="DejaVuSans-20"/>
      <path d="M 18.3125 70.21875 
L 18.3125 54.6875 
L 36.8125 54.6875 
L 36.8125 47.703125 
L 18.3125 47.703125 
L 18.3125 18.015625 
Q 18.3125 11.328125 20.140625 9.421875 
Q 21.96875 7.515625 27.59375 7.515625 
L 36.8125 7.515625 
L 36.8125 0 
L 27.59375 0 
Q 17.1875 0 13.234375 3.875 
Q 9.28125 7.765625 9.28125 18.015625 
L 9.28125 47.703125 
L 2.6875 47.703125 
L 2.6875 54.6875 
L 9.28125 54.6875 
L 9.28125 70.21875 
z
" id="DejaVuSans-74"/>
      <path d="M 9.421875 54.6875 
L 18.40625 54.6875 
L 18.40625 0 
L 9.421875 0 
z
M 9.421875 75.984375 
L 18.40625 75.984375 
L 18.40625 64.59375 
L 9.421875 64.59375 
z
" id="DejaVuSans-69"/>
      <path d="M 52 44.1875 
Q 55.375 50.25 60.0625 53.125 
Q 64.75 56 71.09375 56 
Q 79.640625 56 84.28125 50.015625 
Q 88.921875 44.046875 88.921875 33.015625 
L 88.921875 0 
L 79.890625 0 
L 79.890625 32.71875 
Q 79.890625 40.578125 77.09375 44.375 
Q 74.3125 48.1875 68.609375 48.1875 
Q 61.625 48.1875 57.5625 43.546875 
Q 53.515625 38.921875 53.515625 30.90625 
L 53.515625 0 
L 44.484375 0 
L 44.484375 32.71875 
Q 44.484375 40.625 41.703125 44.40625 
Q 38.921875 48.1875 33.109375 48.1875 
Q 26.21875 48.1875 22.15625 43.53125 
Q 18.109375 38.875 18.109375 30.90625 
L 18.109375 0 
L 9.078125 0 
L 9.078125 54.6875 
L 18.109375 54.6875 
L 18.109375 46.1875 
Q 21.1875 51.21875 25.484375 53.609375 
Q 29.78125 56 35.6875 56 
Q 41.65625 56 45.828125 52.96875 
Q 50 49.953125 52 44.1875 
" id="DejaVuSans-6d"/>
      <path d="M 56.203125 29.59375 
L 56.203125 25.203125 
L 14.890625 25.203125 
Q 15.484375 15.921875 20.484375 11.0625 
Q 25.484375 6.203125 34.421875 6.203125 
Q 39.59375 6.203125 44.453125 7.46875 
Q 49.3125 8.734375 54.109375 11.28125 
L 54.109375 2.78125 
Q 49.265625 0.734375 44.1875 -0.34375 
Q 39.109375 -1.421875 33.890625 -1.421875 
Q 20.796875 -1.421875 13.15625 6.1875 
Q 5.515625 13.8125 5.515625 26.8125 
Q 5.515625 40.234375 12.765625 48.109375 
Q 20.015625 56 32.328125 56 
Q 43.359375 56 49.78125 48.890625 
Q 56.203125 41.796875 56.203125 29.59375 
M 47.21875 32.234375 
Q 47.125 39.59375 43.09375 43.984375 
Q 39.0625 48.390625 32.421875 48.390625 
Q 24.90625 48.390625 20.390625 44.140625 
Q 15.875 39.890625 15.1875 32.171875 
z
" id="DejaVuSans-65"/>
      <path d="M 31 75.875 
Q 24.46875 64.65625 21.28125 53.65625 
Q 18.109375 42.671875 18.109375 31.390625 
Q 18.109375 20.125 21.3125 9.0625 
Q 24.515625 -2 31 -13.1875 
L 23.1875 -13.1875 
Q 15.875 -1.703125 12.234375 9.375 
Q 8.59375 20.453125 8.59375 31.390625 
Q 8.59375 42.28125 12.203125 53.3125 
Q 15.828125 64.359375 23.1875 75.875 
z
" id="DejaVuSans-28"/>
      <path d="M 45.40625 46.390625 
L 45.40625 75.984375 
L 54.390625 75.984375 
L 54.390625 0 
L 45.40625 0 
L 45.40625 8.203125 
Q 42.578125 3.328125 38.25 0.953125 
Q 33.9375 -1.421875 27.875 -1.421875 
Q 17.96875 -1.421875 11.734375 6.484375 
Q 5.515625 14.40625 5.515625 27.296875 
Q 5.515625 40.1875 11.734375 48.09375 
Q 17.96875 56 27.875 56 
Q 33.9375 56 38.25 53.625 
Q 42.578125 51.265625 45.40625 46.390625 
M 14.796875 27.296875 
Q 14.796875 17.390625 18.875 11.75 
Q 22.953125 6.109375 30.078125 6.109375 
Q 37.203125 6.109375 41.296875 11.75 
Q 45.40625 17.390625 45.40625 27.296875 
Q 45.40625 37.203125 41.296875 42.84375 
Q 37.203125 48.484375 30.078125 48.484375 
Q 22.953125 48.484375 18.875 42.84375 
Q 14.796875 37.203125 14.796875 27.296875 
" id="DejaVuSans-64"/>
      <path d="M 32.171875 -5.078125 
Q 28.375 -14.84375 24.75 -17.8125 
Q 21.140625 -20.796875 15.09375 -20.796875 
L 7.90625 -20.796875 
L 7.90625 -13.28125 
L 13.1875 -13.28125 
Q 16.890625 -13.28125 18.9375 -11.515625 
Q 21 -9.765625 23.484375 -3.21875 
L 25.09375 0.875 
L 2.984375 54.6875 
L 12.5 54.6875 
L 29.59375 11.921875 
L 46.6875 54.6875 
L 56.203125 54.6875 
z
" id="DejaVuSans-79"/>
      <path d="M 44.28125 53.078125 
L 44.28125 44.578125 
Q 40.484375 46.53125 36.375 47.5 
Q 32.28125 48.484375 27.875 48.484375 
Q 21.1875 48.484375 17.84375 46.4375 
Q 14.5 44.390625 14.5 40.28125 
Q 14.5 37.15625 16.890625 35.375 
Q 19.28125 33.59375 26.515625 31.984375 
L 29.59375 31.296875 
Q 39.15625 29.25 43.1875 25.515625 
Q 47.21875 21.78125 47.21875 15.09375 
Q 47.21875 7.46875 41.1875 3.015625 
Q 35.15625 -1.421875 24.609375 -1.421875 
Q 20.21875 -1.421875 15.453125 -0.5625 
Q 10.6875 0.296875 5.421875 2 
L 5.421875 11.28125 
Q 10.40625 8.6875 15.234375 7.390625 
Q 20.0625 6.109375 24.8125 6.109375 
Q 31.15625 6.109375 34.5625 8.28125 
Q 37.984375 10.453125 37.984375 14.40625 
Q 37.984375 18.0625 35.515625 20.015625 
Q 33.0625 21.96875 24.703125 23.78125 
L 21.578125 24.515625 
Q 13.234375 26.265625 9.515625 29.90625 
Q 5.8125 33.546875 5.8125 39.890625 
Q 5.8125 47.609375 11.28125 51.796875 
Q 16.75 56 26.8125 56 
Q 31.78125 56 36.171875 55.265625 
Q 40.578125 54.546875 44.28125 53.078125 
" id="DejaVuSans-73"/>
      <path d="M 8.015625 75.875 
L 15.828125 75.875 
Q 23.140625 64.359375 26.78125 53.3125 
Q 30.421875 42.28125 30.421875 31.390625 
Q 30.421875 20.453125 26.78125 9.375 
Q 23.140625 -1.703125 15.828125 -13.1875 
L 8.015625 -13.1875 
Q 14.5 -2 17.703125 9.0625 
Q 20.90625 20.125 20.90625 31.390625 
Q 20.90625 42.671875 17.703125 53.65625 
Q 14.5 64.65625 8.015625 75.875 
" id="DejaVuSans-29"/>
     </defs>
     <g transform="translate(535.644531 658.276562)scale(0.1 -0.1)">
      <use xlink:href="#DejaVuSans-77"/>
      <use x="81.787109" xlink:href="#DejaVuSans-61"/>
      <use x="143.066406" xlink:href="#DejaVuSans-6c"/>
      <use x="170.849609" xlink:href="#DejaVuSans-6c"/>
      <use x="198.632812" xlink:href="#DejaVuSans-2d"/>
      <use x="234.716797" xlink:href="#DejaVuSans-63"/>
      <use x="289.697266" xlink:href="#DejaVuSans-6c"/>
      <use x="317.480469" xlink:href="#DejaVuSans-6f"/>
      <use x="378.662109" xlink:href="#DejaVuSans-63"/>
      <use x="433.642578" xlink:href="#DejaVuSans-6b"/>
      <use x="491.552734" xlink:href="#DejaVuSans-20"/>
      <use x="523.339844" xlink:href="#DejaVuSans-74"/>
      <use x="562.548828" xlink:href="#DejaVuSans-69"/>
      <use x="590.332031" xlink:href="#DejaVuSans-6d"/>
      <use x="687.744141" xlink:href="#DejaVuSans-65"/>
      <use x="749.267578" xlink:href="#DejaVuSans-20"/>
      <use x="781.054688" xlink:href="#DejaVuSans-28"/>
      <use x="820.068359" xlink:href="#DejaVuSans-64"/>
      <use x="883.544922" xlink:href="#DejaVuSans-61"/>
      <use x="944.824219" xlink:href="#DejaVuSans-79"/>
      <use x="1004.003906" xlink:href="#DejaVuSans-73"/>
      <use x="1056.103516" xlink:href="#DejaVuSans-29"/>
     </g>
    </g>
   </g>
   <g id="matplotlib.axis_2">
    <g id="ytick_1">
     <g id="line2d_11">
      <defs>
       <path d="M 0 0 
L -3.5 0 
" id="m6222dc0ad7" style="stroke:#000000;stroke-width:0.8;"/>
      </defs>
      <g>
       <use style="stroke:#000000;stroke-width:0.8;" x="144" xlink:href="#m6222dc0ad7" y="609.832639"/>
      </g>
     </g>
     <g id="text_12">
      <!-- −100 -->
      <defs>
       <path d="M 10.59375 35.5 
L 73.1875 35.5 
L 73.1875 27.203125 
L 10.59375 27.203125 
z
" id="DejaVuSans-2212"/>
      </defs>
      <g transform="translate(109.532813 613.631858)scale(0.1 -0.1)">
       <use xlink:href="#DejaVuSans-2212"/>
       <use x="83.789062" xlink:href="#DejaVuSans-31"/>
       <use x="147.412109" xlink:href="#DejaVuSans-30"/>
       <use x="211.035156" xlink:href="#DejaVuSans-30"/>
      </g>
     </g>
    </g>
    <g id="ytick_2">
     <g id="line2d_12">
      <g>
       <use style="stroke:#000000;stroke-width:0.8;" x="144" xlink:href="#m6222dc0ad7" y="584.907275"/>
      </g>
     </g>
     <g id="text_13">
      <!-- −50 -->
      <g transform="translate(115.895313 588.706494)scale(0.1 -0.1)">
       <use xlink:href="#DejaVuSans-2212"/>
       <use x="83.789062" xlink:href="#DejaVuSans-35"/>
       <use x="147.412109" xlink:href="#DejaVuSans-30"/>
      </g>
     </g>
    </g>
    <g id="ytick_3">
     <g id="line2d_13">
      <g>
       <use style="stroke:#000000;stroke-width:0.8;" x="144" xlink:href="#m6222dc0ad7" y="559.981911"/>
      </g>
     </g>
     <g id="text_14">
      <!-- 0 -->
      <g transform="translate(130.6375 563.78113)scale(0.1 -0.1)">
       <use xlink:href="#DejaVuSans-30"/>
      </g>
     </g>
    </g>
    <g id="ytick_4">
     <g id="line2d_14">
      <g>
       <use style="stroke:#000000;stroke-width:0.8;" x="144" xlink:href="#m6222dc0ad7" y="535.056548"/>
      </g>
     </g>
     <g id="text_15">
      <!-- 50 -->
      <g transform="translate(124.275 538.855766)scale(0.1 -0.1)">
       <use xlink:href="#DejaVuSans-35"/>
       <use x="63.623047" xlink:href="#DejaVuSans-30"/>
      </g>
     </g>
    </g>
    <g id="ytick_5">
     <g id="line2d_15">
      <g>
       <use style="stroke:#000000;stroke-width:0.8;" x="144" xlink:href="#m6222dc0ad7" y="510.131184"/>
      </g>
     </g>
     <g id="text_16">
      <!-- 100 -->
      <g transform="translate(117.9125 513.930403)scale(0.1 -0.1)">
       <use xlink:href="#DejaVuSans-31"/>
       <use x="63.623047" xlink:href="#DejaVuSans-30"/>
       <use x="127.246094" xlink:href="#DejaVuSans-30"/>
      </g>
     </g>
    </g>
    <g id="ytick_6">
     <g id="line2d_16">
      <g>
       <use style="stroke:#000000;stroke-width:0.8;" x="144" xlink:href="#m6222dc0ad7" y="485.20582"/>
      </g>
     </g>
     <g id="text_17">
      <!-- 150 -->
      <g transform="translate(117.9125 489.005039)scale(0.1 -0.1)">
       <use xlink:href="#DejaVuSans-31"/>
       <use x="63.623047" xlink:href="#DejaVuSans-35"/>
       <use x="127.246094" xlink:href="#DejaVuSans-30"/>
      </g>
     </g>
    </g>
    <g id="ytick_7">
     <g id="line2d_17">
      <g>
       <use style="stroke:#000000;stroke-width:0.8;" x="144" xlink:href="#m6222dc0ad7" y="460.280456"/>
      </g>
     </g>
     <g id="text_18">
      <!-- 200 -->
      <g transform="translate(117.9125 464.079675)scale(0.1 -0.1)">
       <use xlink:href="#DejaVuSans-32"/>
       <use x="63.623047" xlink:href="#DejaVuSans-30"/>
       <use x="127.246094" xlink:href="#DejaVuSans-30"/>
      </g>
     </g>
    </g>
    <g id="ytick_8">
     <g id="line2d_18">
      <g>
       <use style="stroke:#000000;stroke-width:0.8;" x="144" xlink:href="#m6222dc0ad7" y="435.355093"/>
      </g>
     </g>
     <g id="text_19">
      <!-- 250 -->
      <g transform="translate(117.9125 439.154311)scale(0.1 -0.1)">
       <use xlink:href="#DejaVuSans-32"/>
       <use x="63.623047" xlink:href="#DejaVuSans-35"/>
       <use x="127.246094" xlink:href="#DejaVuSans-30"/>
      </g>
     </g>
    </g>
    <g id="ytick_9">
     <g id="line2d_19">
      <g>
       <use style="stroke:#000000;stroke-width:0.8;" x="144" xlink:href="#m6222dc0ad7" y="410.429729"/>
      </g>
     </g>
     <g id="text_20">
      <!-- 300 -->
      <g transform="translate(117.9125 414.228948)scale(0.1 -0.1)">
       <use xlink:href="#DejaVuSans-33"/>
       <use x="63.623047" xlink:href="#DejaVuSans-30"/>
       <use x="127.246094" xlink:href="#DejaVuSans-30"/>
      </g>
     </g>
    </g>
    <g id="ytick_10">
     <g id="line2d_20">
      <g>
       <use style="stroke:#000000;stroke-width:0.8;" x="144" xlink:href="#m6222dc0ad7" y="385.504365"/>
      </g>
     </g>
     <g id="text_21">
      <!-- 350 -->
      <g transform="translate(117.9125 389.303584)scale(0.1 -0.1)">
       <use xlink:href="#DejaVuSans-33"/>
       <use x="63.623047" xlink:href="#DejaVuSans-35"/>
       <use x="127.246094" xlink:href="#DejaVuSans-30"/>
      </g>
     </g>
    </g>
    <g id="ytick_11">
     <g id="line2d_21">
      <g>
       <use style="stroke:#000000;stroke-width:0.8;" x="144" xlink:href="#m6222dc0ad7" y="360.579001"/>
      </g>
     </g>
     <g id="text_22">
      <!-- 400 -->
      <g transform="translate(117.9125 364.37822)scale(0.1 -0.1)">
       <use xlink:href="#DejaVuSans-34"/>
       <use x="63.623047" xlink:href="#DejaVuSans-30"/>
       <use x="127.246094" xlink:href="#DejaVuSans-30"/>
      </g>
     </g>
    </g>
    <g id="ytick_12">
     <g id="line2d_22">
      <g>
       <use style="stroke:#000000;stroke-width:0.8;" x="144" xlink:href="#m6222dc0ad7" y="335.653638"/>
      </g>
     </g>
     <g id="text_23">
      <!-- 450 -->
      <g transform="translate(117.9125 339.452856)scale(0.1 -0.1)">
       <use xlink:href="#DejaVuSans-34"/>
       <use x="63.623047" xlink:href="#DejaVuSans-35"/>
       <use x="127.246094" xlink:href="#DejaVuSans-30"/>
      </g>
     </g>
    </g>
    <g id="ytick_13">
     <g id="line2d_23">
      <g>
       <use style="stroke:#000000;stroke-width:0.8;" x="144" xlink:href="#m6222dc0ad7" y="310.728274"/>
      </g>
     </g>
     <g id="text_24">
      <!-- 500 -->
      <g transform="translate(117.9125 314.527493)scale(0.1 -0.1)">
       <use xlink:href="#DejaVuSans-35"/>
       <use x="63.623047" xlink:href="#DejaVuSans-30"/>
       <use x="127.246094" xlink:href="#DejaVuSans-30"/>
      </g>
     </g>
    </g>
    <g id="ytick_14">
     <g id="line2d_24">
      <g>
       <use style="stroke:#000000;stroke-width:0.8;" x="144" xlink:href="#m6222dc0ad7" y="285.80291"/>
      </g>
     </g>
     <g id="text_25">
      <!-- 550 -->
      <g transform="translate(117.9125 289.602129)scale(0.1 -0.1)">
       <use xlink:href="#DejaVuSans-35"/>
       <use x="63.623047" xlink:href="#DejaVuSans-35"/>
       <use x="127.246094" xlink:href="#DejaVuSans-30"/>
      </g>
     </g>
    </g>
    <g id="ytick_15">
     <g id="line2d_25">
      <g>
       <use style="stroke:#000000;stroke-width:0.8;" x="144" xlink:href="#m6222dc0ad7" y="260.877546"/>
      </g>
     </g>
     <g id="text_26">
      <!-- 600 -->
      <defs>
       <path d="M 33.015625 40.375 
Q 26.375 40.375 22.484375 35.828125 
Q 18.609375 31.296875 18.609375 23.390625 
Q 18.609375 15.53125 22.484375 10.953125 
Q 26.375 6.390625 33.015625 6.390625 
Q 39.65625 6.390625 43.53125 10.953125 
Q 47.40625 15.53125 47.40625 23.390625 
Q 47.40625 31.296875 43.53125 35.828125 
Q 39.65625 40.375 33.015625 40.375 
M 52.59375 71.296875 
L 52.59375 62.3125 
Q 48.875 64.0625 45.09375 64.984375 
Q 41.3125 65.921875 37.59375 65.921875 
Q 27.828125 65.921875 22.671875 59.328125 
Q 17.53125 52.734375 16.796875 39.40625 
Q 19.671875 43.65625 24.015625 45.921875 
Q 28.375 48.1875 33.59375 48.1875 
Q 44.578125 48.1875 50.953125 41.515625 
Q 57.328125 34.859375 57.328125 23.390625 
Q 57.328125 12.15625 50.6875 5.359375 
Q 44.046875 -1.421875 33.015625 -1.421875 
Q 20.359375 -1.421875 13.671875 8.265625 
Q 6.984375 17.96875 6.984375 36.375 
Q 6.984375 53.65625 15.1875 63.9375 
Q 23.390625 74.21875 37.203125 74.21875 
Q 40.921875 74.21875 44.703125 73.484375 
Q 48.484375 72.75 52.59375 71.296875 
" id="DejaVuSans-36"/>
      </defs>
      <g transform="translate(117.9125 264.676765)scale(0.1 -0.1)">
       <use xlink:href="#DejaVuSans-36"/>
       <use x="63.623047" xlink:href="#DejaVuSans-30"/>
       <use x="127.246094" xlink:href="#DejaVuSans-30"/>
      </g>
     </g>
    </g>
    <g id="ytick_16">
     <g id="line2d_26">
      <g>
       <use style="stroke:#000000;stroke-width:0.8;" x="144" xlink:href="#m6222dc0ad7" y="235.952183"/>
      </g>
     </g>
     <g id="text_27">
      <!-- 650 -->
      <g transform="translate(117.9125 239.751401)scale(0.1 -0.1)">
       <use xlink:href="#DejaVuSans-36"/>
       <use x="63.623047" xlink:href="#DejaVuSans-35"/>
       <use x="127.246094" xlink:href="#DejaVuSans-30"/>
      </g>
     </g>
    </g>
    <g id="ytick_17">
     <g id="line2d_27">
      <g>
       <use style="stroke:#000000;stroke-width:0.8;" x="144" xlink:href="#m6222dc0ad7" y="211.026819"/>
      </g>
     </g>
     <g id="text_28">
      <!-- 700 -->
      <defs>
       <path d="M 8.203125 72.90625 
L 55.078125 72.90625 
L 55.078125 68.703125 
L 28.609375 0 
L 18.3125 0 
L 43.21875 64.59375 
L 8.203125 64.59375 
z
" id="DejaVuSans-37"/>
      </defs>
      <g transform="translate(117.9125 214.826038)scale(0.1 -0.1)">
       <use xlink:href="#DejaVuSans-37"/>
       <use x="63.623047" xlink:href="#DejaVuSans-30"/>
       <use x="127.246094" xlink:href="#DejaVuSans-30"/>
      </g>
     </g>
    </g>
    <g id="ytick_18">
     <g id="line2d_28">
      <g>
       <use style="stroke:#000000;stroke-width:0.8;" x="144" xlink:href="#m6222dc0ad7" y="186.101455"/>
      </g>
     </g>
     <g id="text_29">
      <!-- 750 -->
      <g transform="translate(117.9125 189.900674)scale(0.1 -0.1)">
       <use xlink:href="#DejaVuSans-37"/>
       <use x="63.623047" xlink:href="#DejaVuSans-35"/>
       <use x="127.246094" xlink:href="#DejaVuSans-30"/>
      </g>
     </g>
    </g>
    <g id="ytick_19">
     <g id="line2d_29">
      <g>
       <use style="stroke:#000000;stroke-width:0.8;" x="144" xlink:href="#m6222dc0ad7" y="161.176091"/>
      </g>
     </g>
     <g id="text_30">
      <!-- 800 -->
      <defs>
       <path d="M 31.78125 34.625 
Q 24.75 34.625 20.71875 30.859375 
Q 16.703125 27.09375 16.703125 20.515625 
Q 16.703125 13.921875 20.71875 10.15625 
Q 24.75 6.390625 31.78125 6.390625 
Q 38.8125 6.390625 42.859375 10.171875 
Q 46.921875 13.96875 46.921875 20.515625 
Q 46.921875 27.09375 42.890625 30.859375 
Q 38.875 34.625 31.78125 34.625 
M 21.921875 38.8125 
Q 15.578125 40.375 12.03125 44.71875 
Q 8.5 49.078125 8.5 55.328125 
Q 8.5 64.0625 14.71875 69.140625 
Q 20.953125 74.21875 31.78125 74.21875 
Q 42.671875 74.21875 48.875 69.140625 
Q 55.078125 64.0625 55.078125 55.328125 
Q 55.078125 49.078125 51.53125 44.71875 
Q 48 40.375 41.703125 38.8125 
Q 48.828125 37.15625 52.796875 32.3125 
Q 56.78125 27.484375 56.78125 20.515625 
Q 56.78125 9.90625 50.3125 4.234375 
Q 43.84375 -1.421875 31.78125 -1.421875 
Q 19.734375 -1.421875 13.25 4.234375 
Q 6.78125 9.90625 6.78125 20.515625 
Q 6.78125 27.484375 10.78125 32.3125 
Q 14.796875 37.15625 21.921875 38.8125 
M 18.3125 54.390625 
Q 18.3125 48.734375 21.84375 45.5625 
Q 25.390625 42.390625 31.78125 42.390625 
Q 38.140625 42.390625 41.71875 45.5625 
Q 45.3125 48.734375 45.3125 54.390625 
Q 45.3125 60.0625 41.71875 63.234375 
Q 38.140625 66.40625 31.78125 66.40625 
Q 25.390625 66.40625 21.84375 63.234375 
Q 18.3125 60.0625 18.3125 54.390625 
" id="DejaVuSans-38"/>
      </defs>
      <g transform="translate(117.9125 164.97531)scale(0.1 -0.1)">
       <use xlink:href="#DejaVuSans-38"/>
       <use x="63.623047" xlink:href="#DejaVuSans-30"/>
       <use x="127.246094" xlink:href="#DejaVuSans-30"/>
      </g>
     </g>
    </g>
    <g id="ytick_20">
     <g id="line2d_30">
      <g>
       <use style="stroke:#000000;stroke-width:0.8;" x="144" xlink:href="#m6222dc0ad7" y="136.250728"/>
      </g>
     </g>
     <g id="text_31">
      <!-- 850 -->
      <g transform="translate(117.9125 140.049946)scale(0.1 -0.1)">
       <use xlink:href="#DejaVuSans-38"/>
       <use x="63.623047" xlink:href="#DejaVuSans-35"/>
       <use x="127.246094" xlink:href="#DejaVuSans-30"/>
      </g>
     </g>
    </g>
    <g id="ytick_21">
     <g id="line2d_31">
      <g>
       <use style="stroke:#000000;stroke-width:0.8;" x="144" xlink:href="#m6222dc0ad7" y="111.325364"/>
      </g>
     </g>
     <g id="text_32">
      <!-- 900 -->
      <defs>
       <path d="M 10.984375 1.515625 
L 10.984375 10.5 
Q 14.703125 8.734375 18.5 7.8125 
Q 22.3125 6.890625 25.984375 6.890625 
Q 35.75 6.890625 40.890625 13.453125 
Q 46.046875 20.015625 46.78125 33.40625 
Q 43.953125 29.203125 39.59375 26.953125 
Q 35.25 24.703125 29.984375 24.703125 
Q 19.046875 24.703125 12.671875 31.3125 
Q 6.296875 37.9375 6.296875 49.421875 
Q 6.296875 60.640625 12.9375 67.421875 
Q 19.578125 74.21875 30.609375 74.21875 
Q 43.265625 74.21875 49.921875 64.515625 
Q 56.59375 54.828125 56.59375 36.375 
Q 56.59375 19.140625 48.40625 8.859375 
Q 40.234375 -1.421875 26.421875 -1.421875 
Q 22.703125 -1.421875 18.890625 -0.6875 
Q 15.09375 0.046875 10.984375 1.515625 
M 30.609375 32.421875 
Q 37.25 32.421875 41.125 36.953125 
Q 45.015625 41.5 45.015625 49.421875 
Q 45.015625 57.28125 41.125 61.84375 
Q 37.25 66.40625 30.609375 66.40625 
Q 23.96875 66.40625 20.09375 61.84375 
Q 16.21875 57.28125 16.21875 49.421875 
Q 16.21875 41.5 20.09375 36.953125 
Q 23.96875 32.421875 30.609375 32.421875 
" id="DejaVuSans-39"/>
      </defs>
      <g transform="translate(117.9125 115.124583)scale(0.1 -0.1)">
       <use xlink:href="#DejaVuSans-39"/>
       <use x="63.623047" xlink:href="#DejaVuSans-30"/>
       <use x="127.246094" xlink:href="#DejaVuSans-30"/>
      </g>
     </g>
    </g>
    <g id="ytick_22">
     <g id="line2d_32">
      <g>
       <use style="stroke:#000000;stroke-width:0.8;" x="144" xlink:href="#m6222dc0ad7" y="86.4"/>
      </g>
     </g>
     <g id="text_33">
      <!-- 950 -->
      <g transform="translate(117.9125 90.199219)scale(0.1 -0.1)">
       <use xlink:href="#DejaVuSans-39"/>
       <use x="63.623047" xlink:href="#DejaVuSans-35"/>
       <use x="127.246094" xlink:href="#DejaVuSans-30"/>
      </g>
     </g>
    </g>
    <g id="text_34">
     <!-- cumulative reward -->
     <defs>
      <path d="M 8.5 21.578125 
L 8.5 54.6875 
L 17.484375 54.6875 
L 17.484375 21.921875 
Q 17.484375 14.15625 20.5 10.265625 
Q 23.53125 6.390625 29.59375 6.390625 
Q 36.859375 6.390625 41.078125 11.03125 
Q 45.3125 15.671875 45.3125 23.6875 
L 45.3125 54.6875 
L 54.296875 54.6875 
L 54.296875 0 
L 45.3125 0 
L 45.3125 8.40625 
Q 42.046875 3.421875 37.71875 1 
Q 33.40625 -1.421875 27.6875 -1.421875 
Q 18.265625 -1.421875 13.375 4.4375 
Q 8.5 10.296875 8.5 21.578125 
M 31.109375 56 
z
" id="DejaVuSans-75"/>
      <path d="M 2.984375 54.6875 
L 12.5 54.6875 
L 29.59375 8.796875 
L 46.6875 54.6875 
L 56.203125 54.6875 
L 35.6875 0 
L 23.484375 0 
z
" id="DejaVuSans-76"/>
      <path d="M 41.109375 46.296875 
Q 39.59375 47.171875 37.8125 47.578125 
Q 36.03125 48 33.890625 48 
Q 26.265625 48 22.1875 43.046875 
Q 18.109375 38.09375 18.109375 28.8125 
L 18.109375 0 
L 9.078125 0 
L 9.078125 54.6875 
L 18.109375 54.6875 
L 18.109375 46.1875 
Q 20.953125 51.171875 25.484375 53.578125 
Q 30.03125 56 36.53125 56 
Q 37.453125 56 38.578125 55.875 
Q 39.703125 55.765625 41.0625 55.515625 
z
" id="DejaVuSans-72"/>
     </defs>
     <g transform="translate(103.453125 405.096875)rotate(-90)scale(0.1 -0.1)">
      <use xlink:href="#DejaVuSans-63"/>
      <use x="54.980469" xlink:href="#DejaVuSans-75"/>
      <use x="118.359375" xlink:href="#DejaVuSans-6d"/>
      <use x="215.771484" xlink:href="#DejaVuSans-75"/>
      <use x="279.150391" xlink:href="#DejaVuSans-6c"/>
      <use x="306.933594" xlink:href="#DejaVuSans-61"/>
      <use x="368.212891" xlink:href="#DejaVuSans-74"/>
      <use x="407.421875" xlink:href="#DejaVuSans-69"/>
      <use x="435.205078" xlink:href="#DejaVuSans-76"/>
      <use x="494.384766" xlink:href="#DejaVuSans-65"/>
      <use x="555.908203" xlink:href="#DejaVuSans-20"/>
      <use x="587.695312" xlink:href="#DejaVuSans-72"/>
      <use x="628.777344" xlink:href="#DejaVuSans-65"/>
      <use x="690.300781" xlink:href="#DejaVuSans-77"/>
      <use x="772.087891" xlink:href="#DejaVuSans-61"/>
      <use x="833.367188" xlink:href="#DejaVuSans-72"/>
      <use x="874.464844" xlink:href="#DejaVuSans-64"/>
     </g>
    </g>
   </g>
   <g id="line2d_33">
    <path clip-path="url(#p0a30fb8af4)" d="M 145.899225 590.106706 
L 145.96889 580.510441 
L 145.96889 580.510441 
L 145.96889 580.510441 
L 146.043137 582.190411 
L 146.110969 569.11955 
L 146.1788 569.633012 
L 146.247547 564.976954 
L 146.314691 567.514356 
L 146.381835 564.722716 
L 146.51658 568.616057 
L 146.583724 546.168275 
L 146.651555 557.47442 
L 146.718928 555.395644 
L 146.989565 521.741418 
L 147.057167 541.7515 
L 147.12454 536.62186 
L 147.258369 517.997629 
L 147.326658 528.406461 
L 147.526026 513.30169 
L 147.662605 535.400518 
L 147.866099 491.940653 
L 147.933242 500.799128 
L 148.069363 513.780257 
L 148.136965 510.056408 
L 148.206171 491.930683 
L 148.274231 511.8959 
L 148.341833 505.948708 
L 148.476579 460.360218 
L 148.543264 482.125045 
L 148.611324 464.587559 
L 148.680301 475.006361 
L 148.747903 485.759163 
L 148.815734 480.883762 
L 148.884024 479.72224 
L 148.951626 500.749277 
L 149.089121 469.198752 
L 149.156265 481.516866 
L 149.224784 478.675375 
L 149.429881 467.987379 
L 149.497025 437.792793 
L 149.563022 437.837659 
L 149.631083 466.446991 
L 149.698685 448.809804 
L 149.767662 464.966425 
L 149.834347 417.458681 
L 149.902178 435.1856 
L 149.970467 441.805777 
L 150.172815 499.981576 
L 150.306415 435.858585 
L 150.440473 447.53861 
L 150.508533 444.388044 
L 150.845626 368.236073 
L 150.91277 407.847461 
L 150.982434 356.336704 
L 151.050266 376.122458 
L 151.186386 406.646059 
L 151.254446 400.788598 
L 151.323652 405.574268 
L 151.45794 398.944121 
L 151.524854 385.848335 
L 151.592456 388.405677 
L 151.660975 395.78857 
L 151.730639 395.045794 
L 151.79847 382.308933 
L 151.865614 384.228186 
L 151.931383 320.763225 
L 151.998526 338.53501 
L 152.066357 338.769308 
L 152.199728 374.51228 
L 152.268705 380.863262 
L 152.40093 345.030559 
L 152.470365 383.993888 
L 152.537509 372.966907 
L 152.604652 373.405594 
L 152.672483 375.140399 
L 152.738481 366.182223 
L 152.805854 368.310849 
L 152.938996 370.339774 
L 153.005452 389.482453 
L 153.205278 340.414382 
L 153.271505 350.18014 
L 153.40373 325.409313 
L 153.535955 373.983862 
L 153.667263 331.67555 
L 153.73349 389.946065 
L 153.800863 387.55323 
L 153.869153 385.943052 
L 153.936755 423.655127 
L 154.003669 421.865486 
L 154.070125 381.501352 
L 154.139102 425.998111 
L 154.277285 357.513182 
L 154.346262 374.980877 
L 154.413635 371.461415 
L 154.479174 327.56785 
L 154.545172 346.630768 
L 154.678314 329.65161 
L 154.745228 364.741537 
L 154.811226 307.124066 
L 154.876766 332.333579 
L 155.010136 384.432574 
L 155.143049 362.059568 
L 155.209505 367.31882 
L 155.34173 314.078243 
L 155.408415 336.665607 
L 155.474413 310.902751 
L 155.541785 325.952686 
L 155.607554 324.711403 
L 155.673781 318.629614 
L 155.740467 363.894075 
L 155.806694 352.28384 
L 155.938689 326.630656 
L 156.005145 334.915847 
L 156.071831 307.203827 
L 156.204743 335.264802 
L 156.27097 308.04132 
L 156.471943 361.665747 
L 156.539545 348.201066 
L 156.606001 371.461415 
L 156.804223 300.20977 
L 156.87045 303.734217 
L 156.937823 320.74827 
L 157.003363 292.428072 
L 157.069361 316.884839 
L 157.135129 309.023379 
L 157.201127 274.955392 
L 157.267354 287.752074 
L 157.334269 313.579735 
L 157.400954 298.838875 
L 157.667695 322.757254 
L 157.809545 291.156878 
L 157.947269 325.957671 
L 158.018996 308.794066 
L 158.153284 348.455304 
L 158.221115 328.6197 
L 158.292154 357.094435 
L 158.363422 354.372586 
L 158.432858 311.685408 
L 158.501376 367.926999 
L 158.56852 363.255985 
L 158.706474 324.023463 
L 158.774763 331.780236 
L 158.909738 322.13412 
L 158.975965 292.104042 
L 159.175104 327.97164 
L 159.243394 343.923873 
L 159.310767 287.079089 
L 159.378598 289.561655 
L 159.445741 273.255482 
L 159.514031 295.08013 
L 159.648776 266.595425 
L 159.715462 265.403992 
L 159.78398 279.511748 
L 159.920559 275.369153 
L 159.987244 254.616295 
L 160.055076 270.304319 
L 160.188905 248.260327 
L 160.254673 262.378053 
L 160.322275 259.077935 
L 160.387815 231.909289 
L 160.520956 309.621588 
L 160.722387 239.446719 
L 160.791593 306.495947 
L 160.858966 272.278408 
L 160.92611 260.777845 
L 161.129832 304.26762 
L 161.19583 283.350254 
L 161.265036 304.98547 
L 161.399094 244.087821 
L 161.534069 289.845804 
L 161.665835 299.462009 
L 161.732292 325.52397 
L 161.801727 317.807077 
L 161.868412 278.260495 
L 161.936243 315.494003 
L 162.002699 304.531828 
L 162.070301 299.880756 
L 162.139278 300.658427 
L 162.205734 306.166932 
L 162.271961 291.475923 
L 162.339334 308.066245 
L 162.538703 264.850649 
L 162.60493 305.269619 
L 162.671844 263.409963 
L 162.738988 283.06112 
L 162.876942 295.463981 
L 162.944315 309.77114 
L 163.011 290.95249 
L 163.07906 295.688309 
L 163.148037 296.510846 
L 163.286678 260.493696 
L 163.423028 284.44697 
L 163.489484 250.812684 
L 163.55617 280.882643 
L 163.624001 275.902556 
L 163.691603 238.265256 
L 163.757371 275.603451 
L 163.890742 230.937199 
L 164.030529 240.772748 
L 164.099964 277.527689 
L 164.167566 238.559376 
L 164.37908 299.17786 
L 164.517492 245.618239 
L 164.589907 275.040138 
L 164.659571 263.145754 
L 164.72809 256.98919 
L 164.79615 271.735035 
L 164.867648 241.789703 
L 165.076182 322.278687 
L 165.352319 234.177497 
L 165.488898 266.849663 
L 165.559021 269.671215 
L 165.629831 254.441817 
L 165.702245 320.155046 
L 165.773514 276.18172 
L 165.842491 297.009354 
L 165.983882 280.832793 
L 166.053546 287.906611 
L 166.123211 272.816796 
L 166.190354 274.49178 
L 166.25956 287.373208 
L 166.329454 281.500792 
L 166.397285 248.454745 
L 166.467637 258.903458 
L 166.537301 245.069881 
L 166.674797 302.303501 
L 166.741482 243.325105 
L 166.810917 265.369097 
L 166.881269 292.27852 
L 167.160614 282.069091 
L 167.228904 276.261481 
L 167.365712 211.176371 
L 167.435147 280.065091 
L 167.505728 249.965222 
L 167.575163 240.638151 
L 167.647119 271.07202 
L 167.718617 255.837638 
L 167.787136 235.10472 
L 167.931277 318.65454 
L 168.06946 256.3511 
L 168.209934 276.605451 
L 168.280515 274.676228 
L 168.419157 317.552838 
L 168.486529 238.609226 
L 168.555048 241.365972 
L 168.622192 236.79466 
L 168.693918 295.887712 
L 168.900391 240.393882 
L 169.186381 321.869911 
L 169.255588 295.797981 
L 169.392396 318.559823 
L 169.460456 283.04118 
L 169.530808 317.732301 
L 169.599555 291.386192 
L 169.736134 351.022617 
L 169.943753 302.029322 
L 170.013875 291.625475 
L 170.1516 324.661552 
L 170.219431 306.216783 
L 170.290241 342.368531 
L 170.359447 302.024337 
L 170.499005 362.109419 
L 170.706165 288.843804 
L 170.77308 342.458262 
L 170.842515 327.193969 
L 170.911721 318.789136 
L 170.98001 320.623643 
L 171.120943 348.181125 
L 171.188545 311.037348 
L 171.256376 319.890838 
L 171.326728 326.934745 
L 171.395018 300.56371 
L 171.46262 302.403202 
L 171.531367 326.859969 
L 171.667488 281.495807 
L 171.736923 324.382388 
L 171.804525 300.040278 
L 171.873273 283.39512 
L 171.940875 303.754157 
L 172.008248 266.829723 
L 172.078829 302.752157 
L 172.147118 278.429987 
L 172.283926 305.144992 
L 172.422797 311.381318 
L 172.629498 274.746019 
L 172.698246 286.505805 
L 172.765848 268.893543 
L 172.973237 327.722387 
L 173.109587 277.308346 
L 173.177418 278.046137 
L 173.24754 300.249651 
L 173.452409 250.144685 
L 173.59105 253.065937 
L 173.658652 255.32916 
L 173.729233 268.913484 
L 173.797293 246.969193 
L 174.004453 308.968543 
L 174.074118 325.997552 
L 174.211842 300.972486 
L 174.283569 350.344647 
L 174.352317 258.08092 
L 174.420148 278.415032 
L 174.489583 307.612603 
L 174.693535 248.883461 
L 174.83126 288.425058 
L 174.900007 254.980205 
L 174.969443 287.253566 
L 175.041399 277.717122 
L 175.113125 286.969417 
L 175.257725 240.503554 
L 175.330827 292.482908 
L 175.401866 257.527577 
L 175.476572 304.616575 
L 175.615442 240.094778 
L 175.683044 244.087821 
L 175.751334 262.353128 
L 175.820081 240.164569 
L 175.889746 276.425988 
L 176.026783 259.696084 
L 176.095531 268.444887 
L 176.164508 265.693127 
L 176.233714 237.652092 
L 176.301087 253.250385 
L 176.369147 241.869464 
L 176.438811 261.660203 
L 176.506184 232.821557 
L 176.577223 262.542561 
L 176.646429 252.811699 
L 176.714031 238.913316 
L 176.785071 240.393882 
L 176.854277 239.705942 
L 177.060978 248.290238 
L 177.131559 257.981219 
L 177.201224 220.558278 
L 177.269972 231.031916 
L 177.477819 249.616267 
L 177.546108 234.451676 
L 177.684979 264.22253 
L 177.89718 266.759932 
L 177.966157 257.303249 
L 178.03628 261.236472 
L 178.106632 263.16071 
L 178.3115 220.189383 
L 178.381164 273.46984 
L 178.449454 262.068979 
L 178.603907 238.973137 
L 178.683196 262.417934 
L 178.760194 234.850481 
L 178.836962 271.211602 
L 178.916251 258.345129 
L 179.070475 272.81181 
L 179.145869 255.593369 
L 179.223783 257.791786 
L 179.297801 258.609338 
L 179.37434 257.961279 
L 179.601208 231.485557 
L 179.903469 219.810517 
L 179.977716 191.649841 
L 180.131941 261.924412 
L 180.287769 223.863381 
L 180.437181 272.816796 
L 180.588884 223.79359 
L 180.744712 272.193661 
L 180.818731 268.509693 
L 180.894124 213.574191 
L 180.968372 222.811531 
L 181.043536 273.82378 
L 181.117554 219.391771 
L 181.192718 263.001187 
L 181.267195 252.592355 
L 181.341214 283.714165 
L 181.564873 211.744669 
L 181.716118 195.603004 
L 181.865759 279.431987 
L 182.018379 207.975954 
L 182.096293 247.976178 
L 182.171228 215.358847 
L 182.247538 219.795562 
L 182.400387 259.362084 
L 182.549799 192.367691 
L 182.707231 237.686988 
L 182.863976 214.690847 
L 182.940974 268.400021 
L 183.016826 257.183607 
L 183.169216 236.645108 
L 183.399063 246.675074 
L 183.553287 234.491556 
L 183.714157 240.977136 
L 183.804675 225.089709 
L 183.883735 261.769874 
L 183.883735 261.769874 
" style="fill:none;stroke:#1f77b4;stroke-linecap:square;stroke-width:1.5;"/>
   </g>
   <g id="line2d_34">
    <path clip-path="url(#p0a30fb8af4)" d="M 145.899225 605.301208 
L 146.1788 590.216378 
L 146.247547 589.543393 
L 146.314691 591.088765 
L 146.381835 589.802617 
L 146.449437 594.842525 
L 146.583724 569.573191 
L 146.651555 577.35489 
L 146.718928 575.779607 
L 146.787676 577.260174 
L 147.12454 555.44051 
L 147.191454 565.649939 
L 147.258369 545.091499 
L 147.326658 548.366692 
L 147.393114 546.746543 
L 147.45957 557.45448 
L 147.526026 538.426457 
L 147.662605 569.1694 
L 147.933242 521.636732 
L 148.000157 553.969914 
L 148.069363 541.447411 
L 148.206171 524.852104 
L 148.274231 581.567276 
L 148.341833 553.875197 
L 148.476579 474.94654 
L 148.543264 518.271808 
L 148.611324 500.031427 
L 148.680301 487.424178 
L 148.747903 546.990812 
L 148.815734 516.571898 
L 148.884024 529.383535 
L 148.951626 585.665006 
L 149.089121 501.831038 
L 149.156265 534.403503 
L 149.224784 527.175148 
L 149.293531 538.850188 
L 149.563022 471.526781 
L 149.631083 523.680612 
L 149.698685 501.088262 
L 149.767662 529.582938 
L 149.834347 453.067056 
L 149.970467 536.517174 
L 150.036694 522.743418 
L 150.104755 531.033594 
L 150.172815 578.346919 
L 150.23973 527.040551 
L 150.306415 550.480363 
L 150.373788 576.203338 
L 150.440473 473.994392 
L 150.508533 480.300509 
L 150.575677 477.020331 
L 150.710652 543.511231 
L 150.845626 435.858585 
L 150.91277 441.980254 
L 150.982434 410.649072 
L 151.050266 411.441699 
L 151.323652 479.856837 
L 151.390796 486.21779 
L 151.45794 527.200073 
L 151.524854 419.083815 
L 151.592456 441.765896 
L 151.730639 482.239702 
L 151.865614 419.886412 
L 151.931383 406.292118 
L 151.998526 423.724918 
L 152.066357 395.853376 
L 152.132814 408.365909 
L 152.199728 397.059764 
L 152.334703 498.291636 
L 152.40093 431.262348 
L 152.470365 469.607527 
L 152.604652 404.038866 
L 152.672483 412.174504 
L 152.738481 453.889593 
L 152.805854 393.774601 
L 152.938996 426.745872 
L 153.005452 474.732182 
L 153.072366 402.62809 
L 153.139281 410.88337 
L 153.40373 350.848139 
L 153.469499 419.233367 
L 153.535955 407.149551 
L 153.667263 373.859235 
L 153.800863 479.931613 
L 153.869153 458.934487 
L 154.003669 506.621693 
L 154.070125 444.672194 
L 154.139102 470.933557 
L 154.208537 491.03337 
L 154.277285 420.055904 
L 154.346262 437.88751 
L 154.479174 356.895033 
L 154.545172 408.505491 
L 154.678314 415.604234 
L 154.745228 441.815747 
L 154.876766 388.226215 
L 155.010136 434.014108 
L 155.077738 428.949274 
L 155.34173 368.101476 
L 155.408415 412.204415 
L 155.474413 354.856138 
L 155.541785 367.523208 
L 155.607554 368.395595 
L 155.673781 357.707599 
L 155.740467 442.797806 
L 155.806694 418.535457 
L 155.872462 441.65124 
L 155.938689 378.405622 
L 156.005145 387.53329 
L 156.071831 361.979807 
L 156.204743 406.052835 
L 156.27097 379.312905 
L 156.405716 442.877567 
L 156.471943 421.80068 
L 156.539545 389.462513 
L 156.606001 411.675997 
L 156.672228 375.050668 
L 156.738684 379.143412 
L 156.87045 345.693574 
L 156.937823 366.167268 
L 157.003363 321.949673 
L 157.135129 443.475776 
L 157.201127 310.80305 
L 157.267354 333.933787 
L 157.334269 380.439531 
L 157.400954 342.213993 
L 157.468785 348.749424 
L 157.60101 394.587168 
L 157.667695 365.918014 
L 157.738276 419.891397 
L 157.809545 328.704446 
L 157.87898 348.908946 
L 158.018996 413.590265 
L 158.221115 388.560215 
L 158.292154 407.653043 
L 158.363422 394.397735 
L 158.432858 347.772349 
L 158.56852 500.310591 
L 158.635893 386.680842 
L 158.706474 394.452571 
L 158.774763 406.690924 
L 158.975965 316.580749 
L 159.041963 389.716752 
L 159.108419 355.942884 
L 159.175104 367.882133 
L 159.243394 415.320085 
L 159.310767 330.818117 
L 159.378598 387.747648 
L 159.445741 294.471952 
L 159.514031 325.88788 
L 159.580945 296.251623 
L 159.78398 359.497241 
L 159.920559 341.914889 
L 160.12199 271.520677 
L 160.188905 307.881797 
L 160.254673 298.78404 
L 160.387815 340.713486 
L 160.454729 298.993413 
L 160.520956 387.87726 
L 160.5881 372.129415 
L 160.657077 361.341717 
L 160.722387 271.864647 
L 160.791593 363.919 
L 160.92611 291.29646 
L 161.129832 360.868136 
L 161.19583 336.969697 
L 161.265036 404.113642 
L 161.399094 287.687268 
L 161.466696 363.131359 
L 161.534069 339.706502 
L 161.665835 342.383486 
L 161.732292 425.275276 
L 161.801727 388.161409 
L 161.868412 383.525291 
L 161.936243 421.157605 
L 162.070301 357.946883 
L 162.139278 352.388527 
L 162.205734 379.168338 
L 162.271961 360.987777 
L 162.339334 381.107531 
L 162.405332 319.457136 
L 162.473392 361.645807 
L 162.538703 333.958713 
L 162.60493 348.011633 
L 162.671844 320.37439 
L 162.738988 339.716472 
L 162.806361 413.95916 
L 162.876942 368.031685 
L 162.944315 405.419731 
L 163.011 382.313919 
L 163.07906 316.550839 
L 163.148037 342.278799 
L 163.216326 368.809356 
L 163.286678 305.279589 
L 163.423028 320.852957 
L 163.489484 284.367209 
L 163.55617 347.298768 
L 163.624001 321.79015 
L 163.691603 324.49206 
L 163.757371 339.945785 
L 163.959031 262.946352 
L 164.099964 349.372558 
L 164.167566 288.19076 
L 164.37908 391.506393 
L 164.448515 312.956601 
L 164.517492 321.201912 
L 164.589907 314.880839 
L 164.659571 317.099197 
L 164.72809 358.704614 
L 164.79615 332.951728 
L 164.867648 268.011185 
L 165.076182 452.952399 
L 165.352319 268.863633 
L 165.559021 392.428631 
L 165.629831 307.921678 
L 165.773514 408.051849 
L 165.911926 337.672592 
L 165.983882 345.514111 
L 166.053546 394.163436 
L 166.123211 337.528025 
L 166.190354 353.235989 
L 166.329454 309.033349 
L 166.397285 325.274716 
L 166.467637 322.48806 
L 166.537301 282.647359 
L 166.674797 374.995832 
L 166.741482 272.432945 
L 166.810917 302.403202 
L 166.881269 380.843322 
L 167.090033 338.121249 
L 167.160614 365.728581 
L 167.228904 346.471245 
L 167.365712 252.94131 
L 167.435147 357.388555 
L 167.505728 356.067511 
L 167.787136 325.254776 
L 167.857717 341.830143 
L 167.931277 481.212777 
L 168.000254 406.995014 
L 168.06946 301.91965 
L 168.138895 448.086968 
L 168.209934 335.763309 
L 168.280515 337.293727 
L 168.419157 396.117585 
L 168.486529 293.943534 
L 168.555048 308.155976 
L 168.622192 305.837917 
L 168.693918 344.811216 
L 168.831872 281.376165 
L 168.900391 290.753087 
L 168.969597 377.25407 
L 169.041553 301.670397 
L 169.186381 448.131834 
L 169.323877 397.942122 
L 169.392396 390.783557 
L 169.460456 330.194983 
L 169.667157 451.830758 
L 169.873172 372.408579 
L 169.943753 390.005886 
L 170.082623 357.064525 
L 170.1516 416.441727 
L 170.219431 372.438489 
L 170.290241 428.171603 
L 170.359447 356.939898 
L 170.499005 423.126709 
L 170.706165 390.758632 
L 170.77308 406.576268 
L 170.842515 390.977975 
L 170.911721 402.269165 
L 170.98001 437.772853 
L 171.051508 404.213343 
L 171.120943 411.750773 
L 171.188545 417.832562 
L 171.256376 408.236297 
L 171.326728 414.392862 
L 171.395018 363.525179 
L 171.46262 392.049766 
L 171.667488 324.207911 
L 171.736923 371.695714 
L 171.804525 368.076551 
L 172.008248 293.335355 
L 172.078829 354.886048 
L 172.147118 293.963474 
L 172.215637 345.982708 
L 172.283926 330.110237 
L 172.491315 447.932431 
L 172.629498 308.649498 
L 172.698246 350.618826 
L 172.765848 310.743229 
L 172.973237 429.083871 
L 173.177418 308.71929 
L 173.24754 344.442321 
L 173.315601 306.176902 
L 173.384807 372.81237 
L 173.452409 308.579707 
L 173.519552 321.471106 
L 173.59105 318.564808 
L 173.658652 299.556726 
L 173.729233 362.677717 
L 173.797293 300.010367 
L 173.934789 367.573058 
L 174.004453 358.570017 
L 174.074118 465.225649 
L 174.352317 289.686282 
L 174.420148 327.886894 
L 174.489583 451.207624 
L 174.557644 374.796429 
L 174.693535 283.848762 
L 174.83126 362.318792 
L 174.900007 321.351464 
L 174.969443 411.740803 
L 175.041399 371.042669 
L 175.257725 280.832793 
L 175.330827 336.949757 
L 175.401866 289.317386 
L 175.476572 425.868499 
L 175.615442 301.765113 
L 175.683044 295.962488 
L 175.751334 329.422297 
L 175.820081 285.384164 
L 175.889746 392.623049 
L 176.026783 318.544868 
L 176.164508 346.650708 
L 176.233714 278.948435 
L 176.301087 304.038306 
L 176.369147 310.713319 
L 176.438811 350.429393 
L 176.506184 281.136882 
L 176.577223 325.718388 
L 176.785071 253.95328 
L 176.92417 291.500848 
L 177.060978 307.682394 
L 177.269972 249.820655 
L 177.338261 253.669131 
L 177.477819 325.344507 
L 177.546108 279.870673 
L 177.684979 334.337578 
L 177.825683 301.814964 
L 177.89718 332.632683 
L 177.966157 307.014395 
L 178.03628 347.014618 
L 178.106632 338.689547 
L 178.176525 259.765875 
L 178.243669 290.055177 
L 178.3115 275.075034 
L 178.381164 333.210952 
L 178.449454 325.862955 
L 178.526222 273.360168 
L 178.603907 286.590552 
L 178.683196 404.303074 
L 178.760194 252.103818 
L 178.836962 319.237793 
L 178.916251 319.397315 
L 178.993019 363.251 
L 179.145869 307.448096 
L 179.223783 300.852845 
L 179.297801 319.596718 
L 179.601208 246.774775 
L 179.828763 277.742047 
L 179.977716 226.086724 
L 180.056318 252.402923 
L 180.131941 370.135386 
L 180.210542 279.127898 
L 180.287769 284.536702 
L 180.437181 410.414774 
L 180.513949 291.695266 
L 180.588884 298.175861 
L 180.667715 347.403454 
L 180.744712 323.754269 
L 180.818731 361.979807 
L 180.894124 266.221544 
L 180.968372 311.097169 
L 181.043536 398.325972 
L 181.117554 301.436098 
L 181.192718 376.062637 
L 181.267195 321.41627 
L 181.341214 402.368866 
L 181.414774 352.572975 
L 181.490625 436.117809 
L 181.564873 278.429987 
L 181.716118 212.706788 
L 181.865759 340.439307 
L 181.940465 296.715234 
L 182.018379 297.906667 
L 182.096293 310.892781 
L 182.171228 249.8057 
L 182.400387 334.995608 
L 182.47601 217.95607 
L 182.549799 244.172568 
L 182.707231 301.999411 
L 182.863976 274.407034 
L 182.940974 370.972878 
L 183.016826 334.252832 
L 183.169216 309.038334 
L 183.245985 308.340424 
L 183.322982 315.194899 
L 183.399063 368.525207 
L 183.553287 262.622322 
L 183.804675 329.442237 
L 183.883735 324.217881 
" style="fill:none;stroke:#ff7f0e;stroke-linecap:square;stroke-width:1.5;"/>
   </g>
   <g id="line2d_35">
    <path clip-path="url(#p0a30fb8af4)" d="M 145.899225 559.179315 
L 145.96889 486.511909 
L 146.043137 555.530241 
L 146.110969 538.451382 
L 146.1788 531.606877 
L 146.247547 492.563788 
L 146.314691 541.322784 
L 146.381835 526.955804 
L 146.449437 519.373509 
L 146.51658 541.472336 
L 146.583724 509.423304 
L 146.651555 531.681653 
L 146.718928 527.593894 
L 146.92265 492.244743 
L 146.989565 488.072237 
L 147.057167 515.779271 
L 147.12454 505.395365 
L 147.191454 503.511007 
L 147.45957 475.888719 
L 147.662605 513.889929 
L 147.797809 455.913533 
L 147.866099 463.954455 
L 148.000157 479.697315 
L 148.069363 476.367286 
L 148.136965 482.593642 
L 148.341833 455.439951 
L 148.410123 468.406125 
L 148.476579 432.957273 
L 148.543264 456.247533 
L 148.611324 434.14372 
L 148.680301 452.463862 
L 148.747903 445.011179 
L 148.815734 452.568549 
L 148.884024 446.11288 
L 148.951626 457.623413 
L 149.020832 435.619301 
L 149.089121 448.391058 
L 149.156265 446.028133 
L 149.224784 396.840421 
L 149.293531 435.773839 
L 149.429881 430.933333 
L 149.497025 409.652058 
L 149.563022 411.252266 
L 149.631083 422.817635 
L 149.698685 364.357686 
L 149.767662 428.665125 
L 149.902178 339.561935 
L 150.036694 393.101616 
L 150.104755 393.600123 
L 150.172815 385.170365 
L 150.23973 413.879399 
L 150.373788 346.351604 
L 150.440473 414.038922 
L 150.508533 377.657861 
L 150.710652 323.724358 
L 150.778024 336.431309 
L 150.845626 317.33848 
L 150.91277 356.575988 
L 150.982434 309.043319 
L 151.186386 363.176224 
L 151.254446 328.769252 
L 151.323652 342.174113 
L 151.390796 324.87591 
L 151.45794 325.494059 
L 151.524854 345.723485 
L 151.592456 302.468008 
L 151.660975 361.002733 
L 151.730639 329.32758 
L 151.998526 254.581399 
L 152.066357 274.581511 
L 152.132814 337.129219 
L 152.199728 333.928802 
L 152.268705 337.054443 
L 152.40093 288.963446 
L 152.537509 345.693574 
L 152.604652 353.95384 
L 152.738481 306.211798 
L 152.805854 340.723457 
L 152.938996 322.597732 
L 153.005452 354.382556 
L 153.205278 279.387121 
L 153.271505 282.37318 
L 153.337503 311.161975 
L 153.40373 289.038222 
L 153.535955 339.237905 
L 153.667263 292.707236 
L 153.73349 318.460122 
L 153.936755 354.138287 
L 154.070125 322.991553 
L 154.139102 378.385681 
L 154.277285 302.014367 
L 154.413635 318.240778 
L 154.479174 282.931508 
L 154.545172 315.434183 
L 154.811226 261.296292 
L 154.876766 271.994259 
L 155.010136 348.84414 
L 155.077738 343.230948 
L 155.143049 319.791136 
L 155.209505 338.834114 
L 155.275961 261.754919 
L 155.34173 275.927481 
L 155.408415 277.846734 
L 155.541785 260.997188 
L 155.740467 336.122234 
L 155.938689 258.539547 
L 156.005145 297.034279 
L 156.071831 271.630348 
L 156.138287 266.151753 
L 156.204743 275.623392 
L 156.405716 256.455787 
L 156.606001 348.330678 
L 156.804223 244.197493 
L 156.87045 245.693015 
L 156.937823 277.462883 
L 157.003363 223.10565 
L 157.069361 263.215545 
L 157.201127 223.349919 
L 157.267354 232.986064 
L 157.334269 277.467868 
L 157.400954 266.311276 
L 157.468785 263.150739 
L 157.535241 217.29804 
L 157.60101 255.259369 
L 157.667695 241.675046 
L 157.809545 227.956126 
L 157.947269 276.849719 
L 158.018996 243.270269 
L 158.153284 305.055261 
L 158.221115 270.907513 
L 158.292154 322.991553 
L 158.363422 298.798995 
L 158.432858 257.422891 
L 158.501376 287.547686 
L 158.56852 286.725149 
L 158.635893 288.634431 
L 158.841678 257.193578 
L 158.909738 274.257482 
L 158.975965 264.137784 
L 159.175104 292.68231 
L 159.378598 234.576302 
L 159.445741 245.179552 
L 159.514031 260.099875 
L 159.580945 249.755849 
L 159.648776 210.099595 
L 159.715462 232.233318 
L 159.78398 244.032985 
L 159.987244 213.773594 
L 160.055076 238.529465 
L 160.188905 194.630915 
L 160.254673 219.551293 
L 160.322275 218.150488 
L 160.387815 195.71766 
L 160.454729 250.274297 
L 160.520956 246.924328 
L 160.5881 241.824598 
L 160.657077 264.790828 
L 160.722387 185.612918 
L 160.791593 235.658063 
L 160.858966 234.356959 
L 160.92611 225.004963 
L 161.06223 236.43075 
L 161.129832 238.818599 
L 161.19583 222.647023 
L 161.265036 233.574303 
L 161.399094 199.067629 
L 161.534069 243.599284 
L 161.665835 249.985162 
L 161.732292 246.904387 
L 161.868412 227.846454 
L 161.936243 207.926104 
L 162.139278 253.075907 
L 162.339334 229.770692 
L 162.405332 239.022987 
L 162.473392 228.075768 
L 162.538703 181.938919 
L 162.738988 251.166625 
L 162.806361 217.661951 
L 162.944315 261.226501 
L 163.011 186.001754 
L 163.148037 257.672145 
L 163.216326 217.65198 
L 163.286678 233.873407 
L 163.423028 228.434693 
L 163.489484 228.733797 
L 163.55617 210.229207 
L 163.624001 231.824542 
L 163.691603 179.710592 
L 163.757371 214.351862 
L 163.823827 215.049773 
L 163.890742 188.339753 
L 163.959031 218.369831 
L 164.030529 199.301928 
L 164.099964 208.3947 
L 164.167566 210.757625 
L 164.37908 233.369915 
L 164.517492 179.296831 
L 164.589907 227.981051 
L 164.72809 189.660797 
L 164.79615 229.162513 
L 164.867648 206.973955 
L 165.004226 214.720758 
L 165.215053 204.142433 
L 165.28403 254.033041 
L 165.352319 209.267088 
L 165.419234 210.862311 
L 165.488898 216.400727 
L 165.629831 190.8622 
L 165.702245 222.871352 
L 165.773514 176.176175 
L 165.983882 250.309192 
L 166.123211 203.962971 
L 166.190354 212.602102 
L 166.329454 254.162653 
L 166.397285 200.034733 
L 166.467637 209.586133 
L 166.537301 203.833359 
L 166.606507 229.850454 
L 166.674797 227.976066 
L 166.741482 209.900192 
L 166.881269 228.783648 
L 167.090033 242.547434 
L 167.228904 204.63097 
L 167.298339 198.42954 
L 167.365712 175.433399 
L 167.435147 232.183468 
L 167.505728 208.68882 
L 167.575163 183.170232 
L 167.647119 207.736671 
L 167.718617 196.879182 
L 167.787136 173.703579 
L 167.931277 241.500569 
L 168.138895 194.466407 
L 168.209934 216.684876 
L 168.280515 181.953875 
L 168.419157 261.510651 
L 168.555048 152.671557 
L 168.693918 247.796715 
L 168.900391 181.879098 
L 169.041553 240.663076 
L 169.115571 235.214392 
L 169.255588 206.899179 
L 169.392396 285.708194 
L 169.460456 240.827584 
L 169.530808 256.964264 
L 169.667157 237.821585 
L 169.873172 296.824906 
L 170.013875 200.792464 
L 170.1516 259.372054 
L 170.219431 250.573401 
L 170.290241 273.235542 
L 170.359447 245.618239 
L 170.42957 272.348199 
L 170.638563 235.309108 
L 170.911721 270.872617 
L 171.051508 251.774803 
L 171.120943 324.601731 
L 171.256376 244.935284 
L 171.326728 263.464799 
L 171.395018 253.793758 
L 171.46262 230.159528 
L 171.531367 284.003299 
L 171.600115 246.316149 
L 171.667488 252.437818 
L 171.736923 284.172791 
L 171.873273 239.885405 
L 171.940875 255.129757 
L 172.008248 224.50147 
L 172.078829 237.402839 
L 172.283926 277.747033 
L 172.422797 234.561347 
L 172.491315 262.722023 
L 172.698246 204.959985 
L 172.765848 216.036817 
L 172.904718 275.139839 
L 172.973237 274.018198 
L 173.177418 236.570332 
L 173.24754 260.010144 
L 173.452409 205.971955 
L 173.59105 197.05366 
L 173.729233 214.406698 
L 173.797293 199.311898 
L 173.865583 202.552195 
L 173.934789 217.821473 
L 174.004453 261.774859 
L 174.074118 254.711011 
L 174.211842 233.160542 
L 174.283569 307.188872 
L 174.420148 212.163415 
L 174.489583 244.411851 
L 174.557644 201.415599 
L 174.626391 234.117676 
L 174.693535 228.250245 
L 174.762512 235.109705 
L 174.969443 187.233067 
L 175.041399 211.829416 
L 175.113125 191.191214 
L 175.186915 210.528312 
L 175.257725 197.547182 
L 175.330827 235.348989 
L 175.401866 230.314065 
L 175.476572 251.037013 
L 175.615442 205.249119 
L 175.683044 211.590132 
L 175.751334 198.913092 
L 175.820081 203.280016 
L 175.889746 207.776551 
L 176.026783 207.587119 
L 176.164508 184.630859 
L 176.233714 197.866227 
L 176.301087 188.334768 
L 176.438811 218.599144 
L 176.506184 169.720506 
L 176.577223 189.247036 
L 176.785071 229.571289 
L 176.92417 189.915036 
L 176.992231 219.406726 
L 177.060978 195.513272 
L 177.131559 220.069741 
L 177.201224 178.544085 
L 177.338261 218.364846 
L 177.477819 200.637927 
L 177.615085 225.47356 
L 177.684979 216.704817 
L 177.825683 236.734839 
L 177.966157 205.483418 
L 178.106632 224.680933 
L 178.3115 191.345752 
L 178.449454 236.570332 
L 178.526222 210.209267 
L 178.603907 220.573233 
L 178.683196 203.280016 
L 178.836962 231.904303 
L 178.916251 226.85941 
L 178.993019 206.365776 
L 179.070475 227.627111 
L 179.145869 204.172344 
L 179.223783 229.307081 
L 179.297801 219.70583 
L 179.37434 214.596131 
L 179.450192 184.446411 
L 179.601208 215.164429 
L 179.977716 159.745375 
L 180.131941 200.632942 
L 180.210542 186.879126 
L 180.287769 148.005529 
L 180.362933 170.238954 
L 180.437181 158.543973 
L 180.667715 215.613086 
L 180.894124 162.945792 
L 181.043536 200.632942 
L 181.117554 180.697636 
L 181.192718 194.296915 
L 181.267195 172.851132 
L 181.341214 183.564053 
L 181.414774 214.965026 
L 181.564873 168.145223 
L 181.716118 176.081459 
L 181.790366 217.507413 
L 181.865759 214.272101 
L 181.940465 163.509105 
L 182.018379 169.197073 
L 182.096293 212.911176 
L 182.171228 162.771315 
L 182.247538 180.014681 
L 182.322244 186.973843 
L 182.400387 206.884223 
L 182.549799 159.790241 
L 182.707231 185.921992 
L 182.786291 147.791171 
L 182.863976 159.655644 
L 183.016826 198.195242 
L 183.093136 181.764442 
L 183.169216 198.215182 
L 183.245985 177.412473 
L 183.322982 198.828346 
L 183.399063 195.308884 
L 183.475602 195.129422 
L 183.553287 208.34485 
L 183.714157 213.245176 
L 183.804675 195.059631 
L 183.883735 223.698874 
L 183.883735 223.698874 
" style="fill:none;stroke:#2ca02c;stroke-linecap:square;stroke-width:1.5;"/>
   </g>
   <g id="line2d_36">
    <path clip-path="url(#p0a30fb8af4)" d="M 147.593858 507.352934 
L 149.361821 445.164856 
L 151.119013 398.259951 
L 152.872769 343.019886 
L 154.611628 344.646796 
L 156.338114 311.116225 
L 158.086827 313.056851 
L 159.852041 261.006448 
L 161.600296 321.220593 
L 163.354968 256.102289 
L 165.147222 256.326281 
L 166.951621 269.157952 
L 168.763354 270.226608 
L 170.568899 281.319361 
L 172.352903 322.470401 
L 174.143324 301.39694 
L 175.958494 299.211759 
L 177.754872 231.977827 
L 179.677747 253.497807 
L 181.6421 206.532427 
L 183.63143 260.004411 
" style="fill:none;stroke:#d62728;stroke-linecap:square;stroke-width:1.5;"/>
   </g>
   <g id="line2d_37">
    <path clip-path="url(#p0a30fb8af4)" d="M 147.593858 111.325364 
L 149.361821 111.325364 
L 151.119013 111.325364 
L 152.872769 111.325364 
L 154.611628 111.325364 
L 156.338114 111.325364 
L 158.086827 111.325364 
L 159.852041 111.325364 
L 161.600296 111.325364 
L 163.354968 111.325364 
L 165.147222 111.325364 
L 166.951621 111.325364 
L 168.763354 111.325364 
L 170.568899 111.325364 
L 172.352903 111.325364 
L 174.143324 111.325364 
L 175.958494 111.325364 
L 177.754872 111.325364 
L 179.677747 111.325364 
L 181.6421 111.325364 
L 183.63143 111.325364 
" style="fill:none;stroke:#9467bd;stroke-linecap:square;stroke-width:1.5;"/>
   </g>
   <g id="patch_3">
    <path d="M 144 630 
L 144 86.4 
" style="fill:none;stroke:#000000;stroke-linecap:square;stroke-linejoin:miter;stroke-width:0.8;"/>
   </g>
   <g id="patch_4">
    <path d="M 1036.8 630 
L 1036.8 86.4 
" style="fill:none;stroke:#000000;stroke-linecap:square;stroke-linejoin:miter;stroke-width:0.8;"/>
   </g>
   <g id="patch_5">
    <path d="M 144 630 
L 1036.8 630 
" style="fill:none;stroke:#000000;stroke-linecap:square;stroke-linejoin:miter;stroke-width:0.8;"/>
   </g>
   <g id="patch_6">
    <path d="M 144 86.4 
L 1036.8 86.4 
" style="fill:none;stroke:#000000;stroke-linecap:square;stroke-linejoin:miter;stroke-width:0.8;"/>
   </g>
   <g id="text_35">
    <!-- carracing.cma.4.8 -->
    <defs>
     <path d="M 54.890625 33.015625 
L 54.890625 0 
L 45.90625 0 
L 45.90625 32.71875 
Q 45.90625 40.484375 42.875 44.328125 
Q 39.84375 48.1875 33.796875 48.1875 
Q 26.515625 48.1875 22.3125 43.546875 
Q 18.109375 38.921875 18.109375 30.90625 
L 18.109375 0 
L 9.078125 0 
L 9.078125 54.6875 
L 18.109375 54.6875 
L 18.109375 46.1875 
Q 21.34375 51.125 25.703125 53.5625 
Q 30.078125 56 35.796875 56 
Q 45.21875 56 50.046875 50.171875 
Q 54.890625 44.34375 54.890625 33.015625 
" id="DejaVuSans-6e"/>
     <path d="M 45.40625 27.984375 
Q 45.40625 37.75 41.375 43.109375 
Q 37.359375 48.484375 30.078125 48.484375 
Q 22.859375 48.484375 18.828125 43.109375 
Q 14.796875 37.75 14.796875 27.984375 
Q 14.796875 18.265625 18.828125 12.890625 
Q 22.859375 7.515625 30.078125 7.515625 
Q 37.359375 7.515625 41.375 12.890625 
Q 45.40625 18.265625 45.40625 27.984375 
M 54.390625 6.78125 
Q 54.390625 -7.171875 48.1875 -13.984375 
Q 42 -20.796875 29.203125 -20.796875 
Q 24.46875 -20.796875 20.265625 -20.09375 
Q 16.0625 -19.390625 12.109375 -17.921875 
L 12.109375 -9.1875 
Q 16.0625 -11.328125 19.921875 -12.34375 
Q 23.78125 -13.375 27.78125 -13.375 
Q 36.625 -13.375 41.015625 -8.765625 
Q 45.40625 -4.15625 45.40625 5.171875 
L 45.40625 9.625 
Q 42.625 4.78125 38.28125 2.390625 
Q 33.9375 0 27.875 0 
Q 17.828125 0 11.671875 7.65625 
Q 5.515625 15.328125 5.515625 27.984375 
Q 5.515625 40.671875 11.671875 48.328125 
Q 17.828125 56 27.875 56 
Q 33.9375 56 38.28125 53.609375 
Q 42.625 51.21875 45.40625 46.390625 
L 45.40625 54.6875 
L 54.390625 54.6875 
z
" id="DejaVuSans-67"/>
     <path d="M 10.6875 12.40625 
L 21 12.40625 
L 21 0 
L 10.6875 0 
z
" id="DejaVuSans-2e"/>
    </defs>
    <g transform="translate(536.061563 80.4)scale(0.12 -0.12)">
     <use xlink:href="#DejaVuSans-63"/>
     <use x="54.980469" xlink:href="#DejaVuSans-61"/>
     <use x="116.259766" xlink:href="#DejaVuSans-72"/>
     <use x="157.357422" xlink:href="#DejaVuSans-72"/>
     <use x="198.470703" xlink:href="#DejaVuSans-61"/>
     <use x="259.75" xlink:href="#DejaVuSans-63"/>
     <use x="314.730469" xlink:href="#DejaVuSans-69"/>
     <use x="342.513672" xlink:href="#DejaVuSans-6e"/>
     <use x="405.892578" xlink:href="#DejaVuSans-67"/>
     <use x="469.369141" xlink:href="#DejaVuSans-2e"/>
     <use x="501.15625" xlink:href="#DejaVuSans-63"/>
     <use x="556.136719" xlink:href="#DejaVuSans-6d"/>
     <use x="653.548828" xlink:href="#DejaVuSans-61"/>
     <use x="714.828125" xlink:href="#DejaVuSans-2e"/>
     <use x="746.615234" xlink:href="#DejaVuSans-34"/>
     <use x="810.238281" xlink:href="#DejaVuSans-2e"/>
     <use x="842.025391" xlink:href="#DejaVuSans-38"/>
    </g>
   </g>
   <g id="legend_1">
    <g id="patch_7">
     <path d="M 924.329687 167.790625 
L 1029.8 167.790625 
Q 1031.8 167.790625 1031.8 165.790625 
L 1031.8 93.4 
Q 1031.8 91.4 1029.8 91.4 
L 924.329687 91.4 
Q 922.329687 91.4 922.329687 93.4 
L 922.329687 165.790625 
Q 922.329687 167.790625 924.329687 167.790625 
z
" style="fill:#ffffff;opacity:0.8;stroke:#cccccc;stroke-linejoin:miter;"/>
    </g>
    <g id="line2d_38">
     <path d="M 926.329687 99.498438 
L 946.329687 99.498438 
" style="fill:none;stroke:#1f77b4;stroke-linecap:square;stroke-width:1.5;"/>
    </g>
    <g id="line2d_39"/>
    <g id="text_36">
     <!-- mean -->
     <g transform="translate(954.329687 102.998438)scale(0.1 -0.1)">
      <use xlink:href="#DejaVuSans-6d"/>
      <use x="97.412109" xlink:href="#DejaVuSans-65"/>
      <use x="158.935547" xlink:href="#DejaVuSans-61"/>
      <use x="220.214844" xlink:href="#DejaVuSans-6e"/>
     </g>
    </g>
    <g id="line2d_40">
     <path d="M 926.329687 114.176563 
L 946.329687 114.176563 
" style="fill:none;stroke:#ff7f0e;stroke-linecap:square;stroke-width:1.5;"/>
    </g>
    <g id="line2d_41"/>
    <g id="text_37">
     <!-- min -->
     <g transform="translate(954.329687 117.676563)scale(0.1 -0.1)">
      <use xlink:href="#DejaVuSans-6d"/>
      <use x="97.412109" xlink:href="#DejaVuSans-69"/>
      <use x="125.195312" xlink:href="#DejaVuSans-6e"/>
     </g>
    </g>
    <g id="line2d_42">
     <path d="M 926.329687 128.854688 
L 946.329687 128.854688 
" style="fill:none;stroke:#2ca02c;stroke-linecap:square;stroke-width:1.5;"/>
    </g>
    <g id="line2d_43"/>
    <g id="text_38">
     <!-- max -->
     <defs>
      <path d="M 54.890625 54.6875 
L 35.109375 28.078125 
L 55.90625 0 
L 45.3125 0 
L 29.390625 21.484375 
L 13.484375 0 
L 2.875 0 
L 24.125 28.609375 
L 4.6875 54.6875 
L 15.28125 54.6875 
L 29.78125 35.203125 
L 44.28125 54.6875 
z
" id="DejaVuSans-78"/>
     </defs>
     <g transform="translate(954.329687 132.354688)scale(0.1 -0.1)">
      <use xlink:href="#DejaVuSans-6d"/>
      <use x="97.412109" xlink:href="#DejaVuSans-61"/>
      <use x="158.691406" xlink:href="#DejaVuSans-78"/>
     </g>
    </g>
    <g id="line2d_44">
     <path d="M 926.329687 143.532812 
L 946.329687 143.532812 
" style="fill:none;stroke:#9467bd;stroke-linecap:square;stroke-width:1.5;"/>
    </g>
    <g id="line2d_45"/>
    <g id="text_39">
     <!-- requirement -->
     <defs>
      <path d="M 14.796875 27.296875 
Q 14.796875 17.390625 18.875 11.75 
Q 22.953125 6.109375 30.078125 6.109375 
Q 37.203125 6.109375 41.296875 11.75 
Q 45.40625 17.390625 45.40625 27.296875 
Q 45.40625 37.203125 41.296875 42.84375 
Q 37.203125 48.484375 30.078125 48.484375 
Q 22.953125 48.484375 18.875 42.84375 
Q 14.796875 37.203125 14.796875 27.296875 
M 45.40625 8.203125 
Q 42.578125 3.328125 38.25 0.953125 
Q 33.9375 -1.421875 27.875 -1.421875 
Q 17.96875 -1.421875 11.734375 6.484375 
Q 5.515625 14.40625 5.515625 27.296875 
Q 5.515625 40.1875 11.734375 48.09375 
Q 17.96875 56 27.875 56 
Q 33.9375 56 38.25 53.625 
Q 42.578125 51.265625 45.40625 46.390625 
L 45.40625 54.6875 
L 54.390625 54.6875 
L 54.390625 -20.796875 
L 45.40625 -20.796875 
z
" id="DejaVuSans-71"/>
     </defs>
     <g transform="translate(954.329687 147.032812)scale(0.1 -0.1)">
      <use xlink:href="#DejaVuSans-72"/>
      <use x="41.082031" xlink:href="#DejaVuSans-65"/>
      <use x="102.605469" xlink:href="#DejaVuSans-71"/>
      <use x="166.082031" xlink:href="#DejaVuSans-75"/>
      <use x="229.460938" xlink:href="#DejaVuSans-69"/>
      <use x="257.244141" xlink:href="#DejaVuSans-72"/>
      <use x="298.326172" xlink:href="#DejaVuSans-65"/>
      <use x="359.849609" xlink:href="#DejaVuSans-6d"/>
      <use x="457.261719" xlink:href="#DejaVuSans-65"/>
      <use x="518.785156" xlink:href="#DejaVuSans-6e"/>
      <use x="582.164062" xlink:href="#DejaVuSans-74"/>
     </g>
    </g>
    <g id="line2d_46">
     <path d="M 926.329687 158.210938 
L 946.329687 158.210938 
" style="fill:none;stroke:#d62728;stroke-linecap:square;stroke-width:1.5;"/>
    </g>
    <g id="line2d_47"/>
    <g id="text_40">
     <!-- best avg score -->
     <defs>
      <path d="M 48.6875 27.296875 
Q 48.6875 37.203125 44.609375 42.84375 
Q 40.53125 48.484375 33.40625 48.484375 
Q 26.265625 48.484375 22.1875 42.84375 
Q 18.109375 37.203125 18.109375 27.296875 
Q 18.109375 17.390625 22.1875 11.75 
Q 26.265625 6.109375 33.40625 6.109375 
Q 40.53125 6.109375 44.609375 11.75 
Q 48.6875 17.390625 48.6875 27.296875 
M 18.109375 46.390625 
Q 20.953125 51.265625 25.265625 53.625 
Q 29.59375 56 35.59375 56 
Q 45.5625 56 51.78125 48.09375 
Q 58.015625 40.1875 58.015625 27.296875 
Q 58.015625 14.40625 51.78125 6.484375 
Q 45.5625 -1.421875 35.59375 -1.421875 
Q 29.59375 -1.421875 25.265625 0.953125 
Q 20.953125 3.328125 18.109375 8.203125 
L 18.109375 0 
L 9.078125 0 
L 9.078125 75.984375 
L 18.109375 75.984375 
z
" id="DejaVuSans-62"/>
     </defs>
     <g transform="translate(954.329687 161.710938)scale(0.1 -0.1)">
      <use xlink:href="#DejaVuSans-62"/>
      <use x="63.476562" xlink:href="#DejaVuSans-65"/>
      <use x="125" xlink:href="#DejaVuSans-73"/>
      <use x="177.099609" xlink:href="#DejaVuSans-74"/>
      <use x="216.308594" xlink:href="#DejaVuSans-20"/>
      <use x="248.095703" xlink:href="#DejaVuSans-61"/>
      <use x="309.375" xlink:href="#DejaVuSans-76"/>
      <use x="368.554688" xlink:href="#DejaVuSans-67"/>
      <use x="432.03125" xlink:href="#DejaVuSans-20"/>
      <use x="463.818359" xlink:href="#DejaVuSans-73"/>
      <use x="515.917969" xlink:href="#DejaVuSans-63"/>
      <use x="570.898438" xlink:href="#DejaVuSans-6f"/>
      <use x="632.080078" xlink:href="#DejaVuSans-72"/>
      <use x="673.162109" xlink:href="#DejaVuSans-65"/>
     </g>
    </g>
   </g>
  </g>
 </g>
 <defs>
  <clipPath id="p0a30fb8af4">
   <rect height="543.6" width="892.8" x="144" y="86.4"/>
  </clipPath>
 </defs>
</svg>
