<?xml version="1.0" encoding="utf-8" standalone="no"?>
<!DOCTYPE svg PUBLIC "-//W3C//DTD SVG 1.1//EN"
  "http://www.w3.org/Graphics/SVG/1.1/DTD/svg11.dtd">
<!-- Created with matplotlib (http://matplotlib.org/) -->
<svg height="720pt" version="1.1" viewBox="0 0 1152 720" width="1152pt" xmlns="http://www.w3.org/2000/svg" xmlns:xlink="http://www.w3.org/1999/xlink">
 <defs>
  <style type="text/css">
*{stroke-linecap:butt;stroke-linejoin:round;}
  </style>
 </defs>
 <g id="figure_1">
  <g id="patch_1">
   <path d="M 0 720 
L 1152 720 
L 1152 0 
L 0 0 
z
" style="fill:#ffffff;"/>
  </g>
  <g id="axes_1">
   <g id="patch_2">
    <path d="M 144 630 
L 1036.8 630 
L 1036.8 86.4 
L 144 86.4 
z
" style="fill:#ffffff;"/>
   </g>
   <g id="matplotlib.axis_1">
    <g id="xtick_1">
     <g id="line2d_1">
      <defs>
       <path d="M 0 0 
L 0 3.5 
" id="mb7c074bc48" style="stroke:#000000;stroke-width:0.8;"/>
      </defs>
      <g>
       <use style="stroke:#000000;stroke-width:0.8;" x="156.398981" xlink:href="#mb7c074bc48" y="630"/>
      </g>
     </g>
     <g id="text_1">
      <!-- 0 -->
      <defs>
       <path d="M 31.78125 66.40625 
Q 24.171875 66.40625 20.328125 58.90625 
Q 16.5 51.421875 16.5 36.375 
Q 16.5 21.390625 20.328125 13.890625 
Q 24.171875 6.390625 31.78125 6.390625 
Q 39.453125 6.390625 43.28125 13.890625 
Q 47.125 21.390625 47.125 36.375 
Q 47.125 51.421875 43.28125 58.90625 
Q 39.453125 66.40625 31.78125 66.40625 
M 31.78125 74.21875 
Q 44.046875 74.21875 50.515625 64.515625 
Q 56.984375 54.828125 56.984375 36.375 
Q 56.984375 17.96875 50.515625 8.265625 
Q 44.046875 -1.421875 31.78125 -1.421875 
Q 19.53125 -1.421875 13.0625 8.265625 
Q 6.59375 17.96875 6.59375 36.375 
Q 6.59375 54.828125 13.0625 64.515625 
Q 19.53125 74.21875 31.78125 74.21875 
" id="DejaVuSans-30"/>
      </defs>
      <g transform="translate(153.217731 644.598438)scale(0.1 -0.1)">
       <use xlink:href="#DejaVuSans-30"/>
      </g>
     </g>
    </g>
    <g id="xtick_2">
     <g id="line2d_2">
      <g>
       <use style="stroke:#000000;stroke-width:0.8;" x="254.221316" xlink:href="#mb7c074bc48" y="630"/>
      </g>
     </g>
     <g id="text_2">
      <!-- 200 -->
      <defs>
       <path d="M 19.1875 8.296875 
L 53.609375 8.296875 
L 53.609375 0 
L 7.328125 0 
L 7.328125 8.296875 
Q 12.9375 14.109375 22.625 23.890625 
Q 32.328125 33.6875 34.8125 36.53125 
Q 39.546875 41.84375 41.421875 45.53125 
Q 43.3125 49.21875 43.3125 52.78125 
Q 43.3125 58.59375 39.234375 62.25 
Q 35.15625 65.921875 28.609375 65.921875 
Q 23.96875 65.921875 18.8125 64.3125 
Q 13.671875 62.703125 7.8125 59.421875 
L 7.8125 69.390625 
Q 13.765625 71.78125 18.9375 73 
Q 24.125 74.21875 28.421875 74.21875 
Q 39.75 74.21875 46.484375 68.546875 
Q 53.21875 62.890625 53.21875 53.421875 
Q 53.21875 48.921875 51.53125 44.890625 
Q 49.859375 40.875 45.40625 35.40625 
Q 44.1875 33.984375 37.640625 27.21875 
Q 31.109375 20.453125 19.1875 8.296875 
" id="DejaVuSans-32"/>
      </defs>
      <g transform="translate(244.677566 644.598438)scale(0.1 -0.1)">
       <use xlink:href="#DejaVuSans-32"/>
       <use x="63.623047" xlink:href="#DejaVuSans-30"/>
       <use x="127.246094" xlink:href="#DejaVuSans-30"/>
      </g>
     </g>
    </g>
    <g id="xtick_3">
     <g id="line2d_3">
      <g>
       <use style="stroke:#000000;stroke-width:0.8;" x="352.043652" xlink:href="#mb7c074bc48" y="630"/>
      </g>
     </g>
     <g id="text_3">
      <!-- 400 -->
      <defs>
       <path d="M 37.796875 64.3125 
L 12.890625 25.390625 
L 37.796875 25.390625 
z
M 35.203125 72.90625 
L 47.609375 72.90625 
L 47.609375 25.390625 
L 58.015625 25.390625 
L 58.015625 17.1875 
L 47.609375 17.1875 
L 47.609375 0 
L 37.796875 0 
L 37.796875 17.1875 
L 4.890625 17.1875 
L 4.890625 26.703125 
z
" id="DejaVuSans-34"/>
      </defs>
      <g transform="translate(342.499902 644.598438)scale(0.1 -0.1)">
       <use xlink:href="#DejaVuSans-34"/>
       <use x="63.623047" xlink:href="#DejaVuSans-30"/>
       <use x="127.246094" xlink:href="#DejaVuSans-30"/>
      </g>
     </g>
    </g>
    <g id="xtick_4">
     <g id="line2d_4">
      <g>
       <use style="stroke:#000000;stroke-width:0.8;" x="449.865987" xlink:href="#mb7c074bc48" y="630"/>
      </g>
     </g>
     <g id="text_4">
      <!-- 600 -->
      <defs>
       <path d="M 33.015625 40.375 
Q 26.375 40.375 22.484375 35.828125 
Q 18.609375 31.296875 18.609375 23.390625 
Q 18.609375 15.53125 22.484375 10.953125 
Q 26.375 6.390625 33.015625 6.390625 
Q 39.65625 6.390625 43.53125 10.953125 
Q 47.40625 15.53125 47.40625 23.390625 
Q 47.40625 31.296875 43.53125 35.828125 
Q 39.65625 40.375 33.015625 40.375 
M 52.59375 71.296875 
L 52.59375 62.3125 
Q 48.875 64.0625 45.09375 64.984375 
Q 41.3125 65.921875 37.59375 65.921875 
Q 27.828125 65.921875 22.671875 59.328125 
Q 17.53125 52.734375 16.796875 39.40625 
Q 19.671875 43.65625 24.015625 45.921875 
Q 28.375 48.1875 33.59375 48.1875 
Q 44.578125 48.1875 50.953125 41.515625 
Q 57.328125 34.859375 57.328125 23.390625 
Q 57.328125 12.15625 50.6875 5.359375 
Q 44.046875 -1.421875 33.015625 -1.421875 
Q 20.359375 -1.421875 13.671875 8.265625 
Q 6.984375 17.96875 6.984375 36.375 
Q 6.984375 53.65625 15.1875 63.9375 
Q 23.390625 74.21875 37.203125 74.21875 
Q 40.921875 74.21875 44.703125 73.484375 
Q 48.484375 72.75 52.59375 71.296875 
" id="DejaVuSans-36"/>
      </defs>
      <g transform="translate(440.322237 644.598438)scale(0.1 -0.1)">
       <use xlink:href="#DejaVuSans-36"/>
       <use x="63.623047" xlink:href="#DejaVuSans-30"/>
       <use x="127.246094" xlink:href="#DejaVuSans-30"/>
      </g>
     </g>
    </g>
    <g id="xtick_5">
     <g id="line2d_5">
      <g>
       <use style="stroke:#000000;stroke-width:0.8;" x="547.688323" xlink:href="#mb7c074bc48" y="630"/>
      </g>
     </g>
     <g id="text_5">
      <!-- 800 -->
      <defs>
       <path d="M 31.78125 34.625 
Q 24.75 34.625 20.71875 30.859375 
Q 16.703125 27.09375 16.703125 20.515625 
Q 16.703125 13.921875 20.71875 10.15625 
Q 24.75 6.390625 31.78125 6.390625 
Q 38.8125 6.390625 42.859375 10.171875 
Q 46.921875 13.96875 46.921875 20.515625 
Q 46.921875 27.09375 42.890625 30.859375 
Q 38.875 34.625 31.78125 34.625 
M 21.921875 38.8125 
Q 15.578125 40.375 12.03125 44.71875 
Q 8.5 49.078125 8.5 55.328125 
Q 8.5 64.0625 14.71875 69.140625 
Q 20.953125 74.21875 31.78125 74.21875 
Q 42.671875 74.21875 48.875 69.140625 
Q 55.078125 64.0625 55.078125 55.328125 
Q 55.078125 49.078125 51.53125 44.71875 
Q 48 40.375 41.703125 38.8125 
Q 48.828125 37.15625 52.796875 32.3125 
Q 56.78125 27.484375 56.78125 20.515625 
Q 56.78125 9.90625 50.3125 4.234375 
Q 43.84375 -1.421875 31.78125 -1.421875 
Q 19.734375 -1.421875 13.25 4.234375 
Q 6.78125 9.90625 6.78125 20.515625 
Q 6.78125 27.484375 10.78125 32.3125 
Q 14.796875 37.15625 21.921875 38.8125 
M 18.3125 54.390625 
Q 18.3125 48.734375 21.84375 45.5625 
Q 25.390625 42.390625 31.78125 42.390625 
Q 38.140625 42.390625 41.71875 45.5625 
Q 45.3125 48.734375 45.3125 54.390625 
Q 45.3125 60.0625 41.71875 63.234375 
Q 38.140625 66.40625 31.78125 66.40625 
Q 25.390625 66.40625 21.84375 63.234375 
Q 18.3125 60.0625 18.3125 54.390625 
" id="DejaVuSans-38"/>
      </defs>
      <g transform="translate(538.144573 644.598438)scale(0.1 -0.1)">
       <use xlink:href="#DejaVuSans-38"/>
       <use x="63.623047" xlink:href="#DejaVuSans-30"/>
       <use x="127.246094" xlink:href="#DejaVuSans-30"/>
      </g>
     </g>
    </g>
    <g id="xtick_6">
     <g id="line2d_6">
      <g>
       <use style="stroke:#000000;stroke-width:0.8;" x="645.510658" xlink:href="#mb7c074bc48" y="630"/>
      </g>
     </g>
     <g id="text_6">
      <!-- 1000 -->
      <defs>
       <path d="M 12.40625 8.296875 
L 28.515625 8.296875 
L 28.515625 63.921875 
L 10.984375 60.40625 
L 10.984375 69.390625 
L 28.421875 72.90625 
L 38.28125 72.90625 
L 38.28125 8.296875 
L 54.390625 8.296875 
L 54.390625 0 
L 12.40625 0 
z
" id="DejaVuSans-31"/>
      </defs>
      <g transform="translate(632.785658 644.598438)scale(0.1 -0.1)">
       <use xlink:href="#DejaVuSans-31"/>
       <use x="63.623047" xlink:href="#DejaVuSans-30"/>
       <use x="127.246094" xlink:href="#DejaVuSans-30"/>
       <use x="190.869141" xlink:href="#DejaVuSans-30"/>
      </g>
     </g>
    </g>
    <g id="xtick_7">
     <g id="line2d_7">
      <g>
       <use style="stroke:#000000;stroke-width:0.8;" x="743.332994" xlink:href="#mb7c074bc48" y="630"/>
      </g>
     </g>
     <g id="text_7">
      <!-- 1200 -->
      <g transform="translate(730.607994 644.598438)scale(0.1 -0.1)">
       <use xlink:href="#DejaVuSans-31"/>
       <use x="63.623047" xlink:href="#DejaVuSans-32"/>
       <use x="127.246094" xlink:href="#DejaVuSans-30"/>
       <use x="190.869141" xlink:href="#DejaVuSans-30"/>
      </g>
     </g>
    </g>
    <g id="xtick_8">
     <g id="line2d_8">
      <g>
       <use style="stroke:#000000;stroke-width:0.8;" x="841.155329" xlink:href="#mb7c074bc48" y="630"/>
      </g>
     </g>
     <g id="text_8">
      <!-- 1400 -->
      <g transform="translate(828.430329 644.598438)scale(0.1 -0.1)">
       <use xlink:href="#DejaVuSans-31"/>
       <use x="63.623047" xlink:href="#DejaVuSans-34"/>
       <use x="127.246094" xlink:href="#DejaVuSans-30"/>
       <use x="190.869141" xlink:href="#DejaVuSans-30"/>
      </g>
     </g>
    </g>
    <g id="xtick_9">
     <g id="line2d_9">
      <g>
       <use style="stroke:#000000;stroke-width:0.8;" x="938.977665" xlink:href="#mb7c074bc48" y="630"/>
      </g>
     </g>
     <g id="text_9">
      <!-- 1600 -->
      <g transform="translate(926.252665 644.598438)scale(0.1 -0.1)">
       <use xlink:href="#DejaVuSans-31"/>
       <use x="63.623047" xlink:href="#DejaVuSans-36"/>
       <use x="127.246094" xlink:href="#DejaVuSans-30"/>
       <use x="190.869141" xlink:href="#DejaVuSans-30"/>
      </g>
     </g>
    </g>
    <g id="xtick_10">
     <g id="line2d_10">
      <g>
       <use style="stroke:#000000;stroke-width:0.8;" x="1036.8" xlink:href="#mb7c074bc48" y="630"/>
      </g>
     </g>
     <g id="text_10">
      <!-- 1800 -->
      <g transform="translate(1024.075 644.598438)scale(0.1 -0.1)">
       <use xlink:href="#DejaVuSans-31"/>
       <use x="63.623047" xlink:href="#DejaVuSans-38"/>
       <use x="127.246094" xlink:href="#DejaVuSans-30"/>
       <use x="190.869141" xlink:href="#DejaVuSans-30"/>
      </g>
     </g>
    </g>
    <g id="text_11">
     <!-- generation -->
     <defs>
      <path d="M 45.40625 27.984375 
Q 45.40625 37.75 41.375 43.109375 
Q 37.359375 48.484375 30.078125 48.484375 
Q 22.859375 48.484375 18.828125 43.109375 
Q 14.796875 37.75 14.796875 27.984375 
Q 14.796875 18.265625 18.828125 12.890625 
Q 22.859375 7.515625 30.078125 7.515625 
Q 37.359375 7.515625 41.375 12.890625 
Q 45.40625 18.265625 45.40625 27.984375 
M 54.390625 6.78125 
Q 54.390625 -7.171875 48.1875 -13.984375 
Q 42 -20.796875 29.203125 -20.796875 
Q 24.46875 -20.796875 20.265625 -20.09375 
Q 16.0625 -19.390625 12.109375 -17.921875 
L 12.109375 -9.1875 
Q 16.0625 -11.328125 19.921875 -12.34375 
Q 23.78125 -13.375 27.78125 -13.375 
Q 36.625 -13.375 41.015625 -8.765625 
Q 45.40625 -4.15625 45.40625 5.171875 
L 45.40625 9.625 
Q 42.625 4.78125 38.28125 2.390625 
Q 33.9375 0 27.875 0 
Q 17.828125 0 11.671875 7.65625 
Q 5.515625 15.328125 5.515625 27.984375 
Q 5.515625 40.671875 11.671875 48.328125 
Q 17.828125 56 27.875 56 
Q 33.9375 56 38.28125 53.609375 
Q 42.625 51.21875 45.40625 46.390625 
L 45.40625 54.6875 
L 54.390625 54.6875 
z
" id="DejaVuSans-67"/>
      <path d="M 56.203125 29.59375 
L 56.203125 25.203125 
L 14.890625 25.203125 
Q 15.484375 15.921875 20.484375 11.0625 
Q 25.484375 6.203125 34.421875 6.203125 
Q 39.59375 6.203125 44.453125 7.46875 
Q 49.3125 8.734375 54.109375 11.28125 
L 54.109375 2.78125 
Q 49.265625 0.734375 44.1875 -0.34375 
Q 39.109375 -1.421875 33.890625 -1.421875 
Q 20.796875 -1.421875 13.15625 6.1875 
Q 5.515625 13.8125 5.515625 26.8125 
Q 5.515625 40.234375 12.765625 48.109375 
Q 20.015625 56 32.328125 56 
Q 43.359375 56 49.78125 48.890625 
Q 56.203125 41.796875 56.203125 29.59375 
M 47.21875 32.234375 
Q 47.125 39.59375 43.09375 43.984375 
Q 39.0625 48.390625 32.421875 48.390625 
Q 24.90625 48.390625 20.390625 44.140625 
Q 15.875 39.890625 15.1875 32.171875 
z
" id="DejaVuSans-65"/>
      <path d="M 54.890625 33.015625 
L 54.890625 0 
L 45.90625 0 
L 45.90625 32.71875 
Q 45.90625 40.484375 42.875 44.328125 
Q 39.84375 48.1875 33.796875 48.1875 
Q 26.515625 48.1875 22.3125 43.546875 
Q 18.109375 38.921875 18.109375 30.90625 
L 18.109375 0 
L 9.078125 0 
L 9.078125 54.6875 
L 18.109375 54.6875 
L 18.109375 46.1875 
Q 21.34375 51.125 25.703125 53.5625 
Q 30.078125 56 35.796875 56 
Q 45.21875 56 50.046875 50.171875 
Q 54.890625 44.34375 54.890625 33.015625 
" id="DejaVuSans-6e"/>
      <path d="M 41.109375 46.296875 
Q 39.59375 47.171875 37.8125 47.578125 
Q 36.03125 48 33.890625 48 
Q 26.265625 48 22.1875 43.046875 
Q 18.109375 38.09375 18.109375 28.8125 
L 18.109375 0 
L 9.078125 0 
L 9.078125 54.6875 
L 18.109375 54.6875 
L 18.109375 46.1875 
Q 20.953125 51.171875 25.484375 53.578125 
Q 30.03125 56 36.53125 56 
Q 37.453125 56 38.578125 55.875 
Q 39.703125 55.765625 41.0625 55.515625 
z
" id="DejaVuSans-72"/>
      <path d="M 34.28125 27.484375 
Q 23.390625 27.484375 19.1875 25 
Q 14.984375 22.515625 14.984375 16.5 
Q 14.984375 11.71875 18.140625 8.90625 
Q 21.296875 6.109375 26.703125 6.109375 
Q 34.1875 6.109375 38.703125 11.40625 
Q 43.21875 16.703125 43.21875 25.484375 
L 43.21875 27.484375 
z
M 52.203125 31.203125 
L 52.203125 0 
L 43.21875 0 
L 43.21875 8.296875 
Q 40.140625 3.328125 35.546875 0.953125 
Q 30.953125 -1.421875 24.3125 -1.421875 
Q 15.921875 -1.421875 10.953125 3.296875 
Q 6 8.015625 6 15.921875 
Q 6 25.140625 12.171875 29.828125 
Q 18.359375 34.515625 30.609375 34.515625 
L 43.21875 34.515625 
L 43.21875 35.40625 
Q 43.21875 41.609375 39.140625 45 
Q 35.0625 48.390625 27.6875 48.390625 
Q 23 48.390625 18.546875 47.265625 
Q 14.109375 46.140625 10.015625 43.890625 
L 10.015625 52.203125 
Q 14.9375 54.109375 19.578125 55.046875 
Q 24.21875 56 28.609375 56 
Q 40.484375 56 46.34375 49.84375 
Q 52.203125 43.703125 52.203125 31.203125 
" id="DejaVuSans-61"/>
      <path d="M 18.3125 70.21875 
L 18.3125 54.6875 
L 36.8125 54.6875 
L 36.8125 47.703125 
L 18.3125 47.703125 
L 18.3125 18.015625 
Q 18.3125 11.328125 20.140625 9.421875 
Q 21.96875 7.515625 27.59375 7.515625 
L 36.8125 7.515625 
L 36.8125 0 
L 27.59375 0 
Q 17.1875 0 13.234375 3.875 
Q 9.28125 7.765625 9.28125 18.015625 
L 9.28125 47.703125 
L 2.6875 47.703125 
L 2.6875 54.6875 
L 9.28125 54.6875 
L 9.28125 70.21875 
z
" id="DejaVuSans-74"/>
      <path d="M 9.421875 54.6875 
L 18.40625 54.6875 
L 18.40625 0 
L 9.421875 0 
z
M 9.421875 75.984375 
L 18.40625 75.984375 
L 18.40625 64.59375 
L 9.421875 64.59375 
z
" id="DejaVuSans-69"/>
      <path d="M 30.609375 48.390625 
Q 23.390625 48.390625 19.1875 42.75 
Q 14.984375 37.109375 14.984375 27.296875 
Q 14.984375 17.484375 19.15625 11.84375 
Q 23.34375 6.203125 30.609375 6.203125 
Q 37.796875 6.203125 41.984375 11.859375 
Q 46.1875 17.53125 46.1875 27.296875 
Q 46.1875 37.015625 41.984375 42.703125 
Q 37.796875 48.390625 30.609375 48.390625 
M 30.609375 56 
Q 42.328125 56 49.015625 48.375 
Q 55.71875 40.765625 55.71875 27.296875 
Q 55.71875 13.875 49.015625 6.21875 
Q 42.328125 -1.421875 30.609375 -1.421875 
Q 18.84375 -1.421875 12.171875 6.21875 
Q 5.515625 13.875 5.515625 27.296875 
Q 5.515625 40.765625 12.171875 48.375 
Q 18.84375 56 30.609375 56 
" id="DejaVuSans-6f"/>
     </defs>
     <g transform="translate(563.207031 658.276562)scale(0.1 -0.1)">
      <use xlink:href="#DejaVuSans-67"/>
      <use x="63.476562" xlink:href="#DejaVuSans-65"/>
      <use x="125" xlink:href="#DejaVuSans-6e"/>
      <use x="188.378906" xlink:href="#DejaVuSans-65"/>
      <use x="249.902344" xlink:href="#DejaVuSans-72"/>
      <use x="291.015625" xlink:href="#DejaVuSans-61"/>
      <use x="352.294922" xlink:href="#DejaVuSans-74"/>
      <use x="391.503906" xlink:href="#DejaVuSans-69"/>
      <use x="419.287109" xlink:href="#DejaVuSans-6f"/>
      <use x="480.46875" xlink:href="#DejaVuSans-6e"/>
     </g>
    </g>
   </g>
   <g id="matplotlib.axis_2">
    <g id="ytick_1">
     <g id="line2d_11">
      <defs>
       <path d="M 0 0 
L -3.5 0 
" id="m5411534e6b" style="stroke:#000000;stroke-width:0.8;"/>
      </defs>
      <g>
       <use style="stroke:#000000;stroke-width:0.8;" x="144" xlink:href="#m5411534e6b" y="609.832639"/>
      </g>
     </g>
     <g id="text_12">
      <!-- −100 -->
      <defs>
       <path d="M 10.59375 35.5 
L 73.1875 35.5 
L 73.1875 27.203125 
L 10.59375 27.203125 
z
" id="DejaVuSans-2212"/>
      </defs>
      <g transform="translate(109.532813 613.631858)scale(0.1 -0.1)">
       <use xlink:href="#DejaVuSans-2212"/>
       <use x="83.789062" xlink:href="#DejaVuSans-31"/>
       <use x="147.412109" xlink:href="#DejaVuSans-30"/>
       <use x="211.035156" xlink:href="#DejaVuSans-30"/>
      </g>
     </g>
    </g>
    <g id="ytick_2">
     <g id="line2d_12">
      <g>
       <use style="stroke:#000000;stroke-width:0.8;" x="144" xlink:href="#m5411534e6b" y="584.907275"/>
      </g>
     </g>
     <g id="text_13">
      <!-- −50 -->
      <defs>
       <path d="M 10.796875 72.90625 
L 49.515625 72.90625 
L 49.515625 64.59375 
L 19.828125 64.59375 
L 19.828125 46.734375 
Q 21.96875 47.46875 24.109375 47.828125 
Q 26.265625 48.1875 28.421875 48.1875 
Q 40.625 48.1875 47.75 41.5 
Q 54.890625 34.8125 54.890625 23.390625 
Q 54.890625 11.625 47.5625 5.09375 
Q 40.234375 -1.421875 26.90625 -1.421875 
Q 22.3125 -1.421875 17.546875 -0.640625 
Q 12.796875 0.140625 7.71875 1.703125 
L 7.71875 11.625 
Q 12.109375 9.234375 16.796875 8.0625 
Q 21.484375 6.890625 26.703125 6.890625 
Q 35.15625 6.890625 40.078125 11.328125 
Q 45.015625 15.765625 45.015625 23.390625 
Q 45.015625 31 40.078125 35.4375 
Q 35.15625 39.890625 26.703125 39.890625 
Q 22.75 39.890625 18.8125 39.015625 
Q 14.890625 38.140625 10.796875 36.28125 
z
" id="DejaVuSans-35"/>
      </defs>
      <g transform="translate(115.895313 588.706494)scale(0.1 -0.1)">
       <use xlink:href="#DejaVuSans-2212"/>
       <use x="83.789062" xlink:href="#DejaVuSans-35"/>
       <use x="147.412109" xlink:href="#DejaVuSans-30"/>
      </g>
     </g>
    </g>
    <g id="ytick_3">
     <g id="line2d_13">
      <g>
       <use style="stroke:#000000;stroke-width:0.8;" x="144" xlink:href="#m5411534e6b" y="559.981911"/>
      </g>
     </g>
     <g id="text_14">
      <!-- 0 -->
      <g transform="translate(130.6375 563.78113)scale(0.1 -0.1)">
       <use xlink:href="#DejaVuSans-30"/>
      </g>
     </g>
    </g>
    <g id="ytick_4">
     <g id="line2d_14">
      <g>
       <use style="stroke:#000000;stroke-width:0.8;" x="144" xlink:href="#m5411534e6b" y="535.056548"/>
      </g>
     </g>
     <g id="text_15">
      <!-- 50 -->
      <g transform="translate(124.275 538.855766)scale(0.1 -0.1)">
       <use xlink:href="#DejaVuSans-35"/>
       <use x="63.623047" xlink:href="#DejaVuSans-30"/>
      </g>
     </g>
    </g>
    <g id="ytick_5">
     <g id="line2d_15">
      <g>
       <use style="stroke:#000000;stroke-width:0.8;" x="144" xlink:href="#m5411534e6b" y="510.131184"/>
      </g>
     </g>
     <g id="text_16">
      <!-- 100 -->
      <g transform="translate(117.9125 513.930403)scale(0.1 -0.1)">
       <use xlink:href="#DejaVuSans-31"/>
       <use x="63.623047" xlink:href="#DejaVuSans-30"/>
       <use x="127.246094" xlink:href="#DejaVuSans-30"/>
      </g>
     </g>
    </g>
    <g id="ytick_6">
     <g id="line2d_16">
      <g>
       <use style="stroke:#000000;stroke-width:0.8;" x="144" xlink:href="#m5411534e6b" y="485.20582"/>
      </g>
     </g>
     <g id="text_17">
      <!-- 150 -->
      <g transform="translate(117.9125 489.005039)scale(0.1 -0.1)">
       <use xlink:href="#DejaVuSans-31"/>
       <use x="63.623047" xlink:href="#DejaVuSans-35"/>
       <use x="127.246094" xlink:href="#DejaVuSans-30"/>
      </g>
     </g>
    </g>
    <g id="ytick_7">
     <g id="line2d_17">
      <g>
       <use style="stroke:#000000;stroke-width:0.8;" x="144" xlink:href="#m5411534e6b" y="460.280456"/>
      </g>
     </g>
     <g id="text_18">
      <!-- 200 -->
      <g transform="translate(117.9125 464.079675)scale(0.1 -0.1)">
       <use xlink:href="#DejaVuSans-32"/>
       <use x="63.623047" xlink:href="#DejaVuSans-30"/>
       <use x="127.246094" xlink:href="#DejaVuSans-30"/>
      </g>
     </g>
    </g>
    <g id="ytick_8">
     <g id="line2d_18">
      <g>
       <use style="stroke:#000000;stroke-width:0.8;" x="144" xlink:href="#m5411534e6b" y="435.355093"/>
      </g>
     </g>
     <g id="text_19">
      <!-- 250 -->
      <g transform="translate(117.9125 439.154311)scale(0.1 -0.1)">
       <use xlink:href="#DejaVuSans-32"/>
       <use x="63.623047" xlink:href="#DejaVuSans-35"/>
       <use x="127.246094" xlink:href="#DejaVuSans-30"/>
      </g>
     </g>
    </g>
    <g id="ytick_9">
     <g id="line2d_19">
      <g>
       <use style="stroke:#000000;stroke-width:0.8;" x="144" xlink:href="#m5411534e6b" y="410.429729"/>
      </g>
     </g>
     <g id="text_20">
      <!-- 300 -->
      <defs>
       <path d="M 40.578125 39.3125 
Q 47.65625 37.796875 51.625 33 
Q 55.609375 28.21875 55.609375 21.1875 
Q 55.609375 10.40625 48.1875 4.484375 
Q 40.765625 -1.421875 27.09375 -1.421875 
Q 22.515625 -1.421875 17.65625 -0.515625 
Q 12.796875 0.390625 7.625 2.203125 
L 7.625 11.71875 
Q 11.71875 9.328125 16.59375 8.109375 
Q 21.484375 6.890625 26.8125 6.890625 
Q 36.078125 6.890625 40.9375 10.546875 
Q 45.796875 14.203125 45.796875 21.1875 
Q 45.796875 27.640625 41.28125 31.265625 
Q 36.765625 34.90625 28.71875 34.90625 
L 20.21875 34.90625 
L 20.21875 43.015625 
L 29.109375 43.015625 
Q 36.375 43.015625 40.234375 45.921875 
Q 44.09375 48.828125 44.09375 54.296875 
Q 44.09375 59.90625 40.109375 62.90625 
Q 36.140625 65.921875 28.71875 65.921875 
Q 24.65625 65.921875 20.015625 65.03125 
Q 15.375 64.15625 9.8125 62.3125 
L 9.8125 71.09375 
Q 15.4375 72.65625 20.34375 73.4375 
Q 25.25 74.21875 29.59375 74.21875 
Q 40.828125 74.21875 47.359375 69.109375 
Q 53.90625 64.015625 53.90625 55.328125 
Q 53.90625 49.265625 50.4375 45.09375 
Q 46.96875 40.921875 40.578125 39.3125 
" id="DejaVuSans-33"/>
      </defs>
      <g transform="translate(117.9125 414.228948)scale(0.1 -0.1)">
       <use xlink:href="#DejaVuSans-33"/>
       <use x="63.623047" xlink:href="#DejaVuSans-30"/>
       <use x="127.246094" xlink:href="#DejaVuSans-30"/>
      </g>
     </g>
    </g>
    <g id="ytick_10">
     <g id="line2d_20">
      <g>
       <use style="stroke:#000000;stroke-width:0.8;" x="144" xlink:href="#m5411534e6b" y="385.504365"/>
      </g>
     </g>
     <g id="text_21">
      <!-- 350 -->
      <g transform="translate(117.9125 389.303584)scale(0.1 -0.1)">
       <use xlink:href="#DejaVuSans-33"/>
       <use x="63.623047" xlink:href="#DejaVuSans-35"/>
       <use x="127.246094" xlink:href="#DejaVuSans-30"/>
      </g>
     </g>
    </g>
    <g id="ytick_11">
     <g id="line2d_21">
      <g>
       <use style="stroke:#000000;stroke-width:0.8;" x="144" xlink:href="#m5411534e6b" y="360.579001"/>
      </g>
     </g>
     <g id="text_22">
      <!-- 400 -->
      <g transform="translate(117.9125 364.37822)scale(0.1 -0.1)">
       <use xlink:href="#DejaVuSans-34"/>
       <use x="63.623047" xlink:href="#DejaVuSans-30"/>
       <use x="127.246094" xlink:href="#DejaVuSans-30"/>
      </g>
     </g>
    </g>
    <g id="ytick_12">
     <g id="line2d_22">
      <g>
       <use style="stroke:#000000;stroke-width:0.8;" x="144" xlink:href="#m5411534e6b" y="335.653638"/>
      </g>
     </g>
     <g id="text_23">
      <!-- 450 -->
      <g transform="translate(117.9125 339.452856)scale(0.1 -0.1)">
       <use xlink:href="#DejaVuSans-34"/>
       <use x="63.623047" xlink:href="#DejaVuSans-35"/>
       <use x="127.246094" xlink:href="#DejaVuSans-30"/>
      </g>
     </g>
    </g>
    <g id="ytick_13">
     <g id="line2d_23">
      <g>
       <use style="stroke:#000000;stroke-width:0.8;" x="144" xlink:href="#m5411534e6b" y="310.728274"/>
      </g>
     </g>
     <g id="text_24">
      <!-- 500 -->
      <g transform="translate(117.9125 314.527493)scale(0.1 -0.1)">
       <use xlink:href="#DejaVuSans-35"/>
       <use x="63.623047" xlink:href="#DejaVuSans-30"/>
       <use x="127.246094" xlink:href="#DejaVuSans-30"/>
      </g>
     </g>
    </g>
    <g id="ytick_14">
     <g id="line2d_24">
      <g>
       <use style="stroke:#000000;stroke-width:0.8;" x="144" xlink:href="#m5411534e6b" y="285.80291"/>
      </g>
     </g>
     <g id="text_25">
      <!-- 550 -->
      <g transform="translate(117.9125 289.602129)scale(0.1 -0.1)">
       <use xlink:href="#DejaVuSans-35"/>
       <use x="63.623047" xlink:href="#DejaVuSans-35"/>
       <use x="127.246094" xlink:href="#DejaVuSans-30"/>
      </g>
     </g>
    </g>
    <g id="ytick_15">
     <g id="line2d_25">
      <g>
       <use style="stroke:#000000;stroke-width:0.8;" x="144" xlink:href="#m5411534e6b" y="260.877546"/>
      </g>
     </g>
     <g id="text_26">
      <!-- 600 -->
      <g transform="translate(117.9125 264.676765)scale(0.1 -0.1)">
       <use xlink:href="#DejaVuSans-36"/>
       <use x="63.623047" xlink:href="#DejaVuSans-30"/>
       <use x="127.246094" xlink:href="#DejaVuSans-30"/>
      </g>
     </g>
    </g>
    <g id="ytick_16">
     <g id="line2d_26">
      <g>
       <use style="stroke:#000000;stroke-width:0.8;" x="144" xlink:href="#m5411534e6b" y="235.952183"/>
      </g>
     </g>
     <g id="text_27">
      <!-- 650 -->
      <g transform="translate(117.9125 239.751401)scale(0.1 -0.1)">
       <use xlink:href="#DejaVuSans-36"/>
       <use x="63.623047" xlink:href="#DejaVuSans-35"/>
       <use x="127.246094" xlink:href="#DejaVuSans-30"/>
      </g>
     </g>
    </g>
    <g id="ytick_17">
     <g id="line2d_27">
      <g>
       <use style="stroke:#000000;stroke-width:0.8;" x="144" xlink:href="#m5411534e6b" y="211.026819"/>
      </g>
     </g>
     <g id="text_28">
      <!-- 700 -->
      <defs>
       <path d="M 8.203125 72.90625 
L 55.078125 72.90625 
L 55.078125 68.703125 
L 28.609375 0 
L 18.3125 0 
L 43.21875 64.59375 
L 8.203125 64.59375 
z
" id="DejaVuSans-37"/>
      </defs>
      <g transform="translate(117.9125 214.826038)scale(0.1 -0.1)">
       <use xlink:href="#DejaVuSans-37"/>
       <use x="63.623047" xlink:href="#DejaVuSans-30"/>
       <use x="127.246094" xlink:href="#DejaVuSans-30"/>
      </g>
     </g>
    </g>
    <g id="ytick_18">
     <g id="line2d_28">
      <g>
       <use style="stroke:#000000;stroke-width:0.8;" x="144" xlink:href="#m5411534e6b" y="186.101455"/>
      </g>
     </g>
     <g id="text_29">
      <!-- 750 -->
      <g transform="translate(117.9125 189.900674)scale(0.1 -0.1)">
       <use xlink:href="#DejaVuSans-37"/>
       <use x="63.623047" xlink:href="#DejaVuSans-35"/>
       <use x="127.246094" xlink:href="#DejaVuSans-30"/>
      </g>
     </g>
    </g>
    <g id="ytick_19">
     <g id="line2d_29">
      <g>
       <use style="stroke:#000000;stroke-width:0.8;" x="144" xlink:href="#m5411534e6b" y="161.176091"/>
      </g>
     </g>
     <g id="text_30">
      <!-- 800 -->
      <g transform="translate(117.9125 164.97531)scale(0.1 -0.1)">
       <use xlink:href="#DejaVuSans-38"/>
       <use x="63.623047" xlink:href="#DejaVuSans-30"/>
       <use x="127.246094" xlink:href="#DejaVuSans-30"/>
      </g>
     </g>
    </g>
    <g id="ytick_20">
     <g id="line2d_30">
      <g>
       <use style="stroke:#000000;stroke-width:0.8;" x="144" xlink:href="#m5411534e6b" y="136.250728"/>
      </g>
     </g>
     <g id="text_31">
      <!-- 850 -->
      <g transform="translate(117.9125 140.049946)scale(0.1 -0.1)">
       <use xlink:href="#DejaVuSans-38"/>
       <use x="63.623047" xlink:href="#DejaVuSans-35"/>
       <use x="127.246094" xlink:href="#DejaVuSans-30"/>
      </g>
     </g>
    </g>
    <g id="ytick_21">
     <g id="line2d_31">
      <g>
       <use style="stroke:#000000;stroke-width:0.8;" x="144" xlink:href="#m5411534e6b" y="111.325364"/>
      </g>
     </g>
     <g id="text_32">
      <!-- 900 -->
      <defs>
       <path d="M 10.984375 1.515625 
L 10.984375 10.5 
Q 14.703125 8.734375 18.5 7.8125 
Q 22.3125 6.890625 25.984375 6.890625 
Q 35.75 6.890625 40.890625 13.453125 
Q 46.046875 20.015625 46.78125 33.40625 
Q 43.953125 29.203125 39.59375 26.953125 
Q 35.25 24.703125 29.984375 24.703125 
Q 19.046875 24.703125 12.671875 31.3125 
Q 6.296875 37.9375 6.296875 49.421875 
Q 6.296875 60.640625 12.9375 67.421875 
Q 19.578125 74.21875 30.609375 74.21875 
Q 43.265625 74.21875 49.921875 64.515625 
Q 56.59375 54.828125 56.59375 36.375 
Q 56.59375 19.140625 48.40625 8.859375 
Q 40.234375 -1.421875 26.421875 -1.421875 
Q 22.703125 -1.421875 18.890625 -0.6875 
Q 15.09375 0.046875 10.984375 1.515625 
M 30.609375 32.421875 
Q 37.25 32.421875 41.125 36.953125 
Q 45.015625 41.5 45.015625 49.421875 
Q 45.015625 57.28125 41.125 61.84375 
Q 37.25 66.40625 30.609375 66.40625 
Q 23.96875 66.40625 20.09375 61.84375 
Q 16.21875 57.28125 16.21875 49.421875 
Q 16.21875 41.5 20.09375 36.953125 
Q 23.96875 32.421875 30.609375 32.421875 
" id="DejaVuSans-39"/>
      </defs>
      <g transform="translate(117.9125 115.124583)scale(0.1 -0.1)">
       <use xlink:href="#DejaVuSans-39"/>
       <use x="63.623047" xlink:href="#DejaVuSans-30"/>
       <use x="127.246094" xlink:href="#DejaVuSans-30"/>
      </g>
     </g>
    </g>
    <g id="ytick_22">
     <g id="line2d_32">
      <g>
       <use style="stroke:#000000;stroke-width:0.8;" x="144" xlink:href="#m5411534e6b" y="86.4"/>
      </g>
     </g>
     <g id="text_33">
      <!-- 950 -->
      <g transform="translate(117.9125 90.199219)scale(0.1 -0.1)">
       <use xlink:href="#DejaVuSans-39"/>
       <use x="63.623047" xlink:href="#DejaVuSans-35"/>
       <use x="127.246094" xlink:href="#DejaVuSans-30"/>
      </g>
     </g>
    </g>
    <g id="text_34">
     <!-- cumulative reward -->
     <defs>
      <path d="M 48.78125 52.59375 
L 48.78125 44.1875 
Q 44.96875 46.296875 41.140625 47.34375 
Q 37.3125 48.390625 33.40625 48.390625 
Q 24.65625 48.390625 19.8125 42.84375 
Q 14.984375 37.3125 14.984375 27.296875 
Q 14.984375 17.28125 19.8125 11.734375 
Q 24.65625 6.203125 33.40625 6.203125 
Q 37.3125 6.203125 41.140625 7.25 
Q 44.96875 8.296875 48.78125 10.40625 
L 48.78125 2.09375 
Q 45.015625 0.34375 40.984375 -0.53125 
Q 36.96875 -1.421875 32.421875 -1.421875 
Q 20.0625 -1.421875 12.78125 6.34375 
Q 5.515625 14.109375 5.515625 27.296875 
Q 5.515625 40.671875 12.859375 48.328125 
Q 20.21875 56 33.015625 56 
Q 37.15625 56 41.109375 55.140625 
Q 45.0625 54.296875 48.78125 52.59375 
" id="DejaVuSans-63"/>
      <path d="M 8.5 21.578125 
L 8.5 54.6875 
L 17.484375 54.6875 
L 17.484375 21.921875 
Q 17.484375 14.15625 20.5 10.265625 
Q 23.53125 6.390625 29.59375 6.390625 
Q 36.859375 6.390625 41.078125 11.03125 
Q 45.3125 15.671875 45.3125 23.6875 
L 45.3125 54.6875 
L 54.296875 54.6875 
L 54.296875 0 
L 45.3125 0 
L 45.3125 8.40625 
Q 42.046875 3.421875 37.71875 1 
Q 33.40625 -1.421875 27.6875 -1.421875 
Q 18.265625 -1.421875 13.375 4.4375 
Q 8.5 10.296875 8.5 21.578125 
M 31.109375 56 
z
" id="DejaVuSans-75"/>
      <path d="M 52 44.1875 
Q 55.375 50.25 60.0625 53.125 
Q 64.75 56 71.09375 56 
Q 79.640625 56 84.28125 50.015625 
Q 88.921875 44.046875 88.921875 33.015625 
L 88.921875 0 
L 79.890625 0 
L 79.890625 32.71875 
Q 79.890625 40.578125 77.09375 44.375 
Q 74.3125 48.1875 68.609375 48.1875 
Q 61.625 48.1875 57.5625 43.546875 
Q 53.515625 38.921875 53.515625 30.90625 
L 53.515625 0 
L 44.484375 0 
L 44.484375 32.71875 
Q 44.484375 40.625 41.703125 44.40625 
Q 38.921875 48.1875 33.109375 48.1875 
Q 26.21875 48.1875 22.15625 43.53125 
Q 18.109375 38.875 18.109375 30.90625 
L 18.109375 0 
L 9.078125 0 
L 9.078125 54.6875 
L 18.109375 54.6875 
L 18.109375 46.1875 
Q 21.1875 51.21875 25.484375 53.609375 
Q 29.78125 56 35.6875 56 
Q 41.65625 56 45.828125 52.96875 
Q 50 49.953125 52 44.1875 
" id="DejaVuSans-6d"/>
      <path d="M 9.421875 75.984375 
L 18.40625 75.984375 
L 18.40625 0 
L 9.421875 0 
z
" id="DejaVuSans-6c"/>
      <path d="M 2.984375 54.6875 
L 12.5 54.6875 
L 29.59375 8.796875 
L 46.6875 54.6875 
L 56.203125 54.6875 
L 35.6875 0 
L 23.484375 0 
z
" id="DejaVuSans-76"/>
      <path id="DejaVuSans-20"/>
      <path d="M 4.203125 54.6875 
L 13.1875 54.6875 
L 24.421875 12.015625 
L 35.59375 54.6875 
L 46.1875 54.6875 
L 57.421875 12.015625 
L 68.609375 54.6875 
L 77.59375 54.6875 
L 63.28125 0 
L 52.6875 0 
L 40.921875 44.828125 
L 29.109375 0 
L 18.5 0 
z
" id="DejaVuSans-77"/>
      <path d="M 45.40625 46.390625 
L 45.40625 75.984375 
L 54.390625 75.984375 
L 54.390625 0 
L 45.40625 0 
L 45.40625 8.203125 
Q 42.578125 3.328125 38.25 0.953125 
Q 33.9375 -1.421875 27.875 -1.421875 
Q 17.96875 -1.421875 11.734375 6.484375 
Q 5.515625 14.40625 5.515625 27.296875 
Q 5.515625 40.1875 11.734375 48.09375 
Q 17.96875 56 27.875 56 
Q 33.9375 56 38.25 53.625 
Q 42.578125 51.265625 45.40625 46.390625 
M 14.796875 27.296875 
Q 14.796875 17.390625 18.875 11.75 
Q 22.953125 6.109375 30.078125 6.109375 
Q 37.203125 6.109375 41.296875 11.75 
Q 45.40625 17.390625 45.40625 27.296875 
Q 45.40625 37.203125 41.296875 42.84375 
Q 37.203125 48.484375 30.078125 48.484375 
Q 22.953125 48.484375 18.875 42.84375 
Q 14.796875 37.203125 14.796875 27.296875 
" id="DejaVuSans-64"/>
     </defs>
     <g transform="translate(103.453125 405.096875)rotate(-90)scale(0.1 -0.1)">
      <use xlink:href="#DejaVuSans-63"/>
      <use x="54.980469" xlink:href="#DejaVuSans-75"/>
      <use x="118.359375" xlink:href="#DejaVuSans-6d"/>
      <use x="215.771484" xlink:href="#DejaVuSans-75"/>
      <use x="279.150391" xlink:href="#DejaVuSans-6c"/>
      <use x="306.933594" xlink:href="#DejaVuSans-61"/>
      <use x="368.212891" xlink:href="#DejaVuSans-74"/>
      <use x="407.421875" xlink:href="#DejaVuSans-69"/>
      <use x="435.205078" xlink:href="#DejaVuSans-76"/>
      <use x="494.384766" xlink:href="#DejaVuSans-65"/>
      <use x="555.908203" xlink:href="#DejaVuSans-20"/>
      <use x="587.695312" xlink:href="#DejaVuSans-72"/>
      <use x="628.777344" xlink:href="#DejaVuSans-65"/>
      <use x="690.300781" xlink:href="#DejaVuSans-77"/>
      <use x="772.087891" xlink:href="#DejaVuSans-61"/>
      <use x="833.367188" xlink:href="#DejaVuSans-72"/>
      <use x="874.464844" xlink:href="#DejaVuSans-64"/>
     </g>
    </g>
   </g>
   <g id="line2d_33">
    <path clip-path="url(#pbe7a82ec3e)" d="M 156.888093 590.106706 
L 157.377204 580.510441 
L 157.866316 582.190411 
L 158.355428 569.11955 
L 158.844539 569.633012 
L 159.333651 564.976954 
L 159.822763 567.514356 
L 160.311874 564.722716 
L 161.290098 568.616057 
L 161.779209 546.168275 
L 162.268321 557.47442 
L 162.757433 555.395644 
L 163.246544 549.169289 
L 163.735656 549.762512 
L 164.224768 531.547056 
L 164.71388 521.741418 
L 165.202991 541.7515 
L 165.692103 536.62186 
L 166.670326 517.997629 
L 167.159438 528.406461 
L 167.64855 520.240911 
L 168.137661 517.648674 
L 168.626773 513.30169 
L 169.115885 535.400518 
L 169.604996 522.549 
L 170.094108 504.02447 
L 170.58322 491.940653 
L 171.561443 510.814139 
L 172.050555 513.780257 
L 172.539666 510.056408 
L 173.028778 491.930683 
L 173.51789 511.8959 
L 174.007001 505.948708 
L 174.496113 487.169939 
L 174.985225 460.360218 
L 175.474336 482.125045 
L 175.963448 464.587559 
L 176.941671 485.759163 
L 177.430783 480.883762 
L 177.919895 479.72224 
L 178.409006 500.749277 
L 178.898118 480.674389 
L 179.38723 469.198752 
L 179.876342 481.516866 
L 180.365453 478.675375 
L 181.343677 467.987379 
L 181.832788 437.792793 
L 182.3219 437.837659 
L 182.811012 466.446991 
L 183.300123 448.809804 
L 183.789235 464.966425 
L 184.278347 417.458681 
L 184.767458 435.1856 
L 185.25657 441.805777 
L 185.745682 462.782963 
L 186.234793 465.410096 
L 186.723905 499.981576 
L 187.213017 482.379284 
L 187.702128 435.858585 
L 188.19124 451.162758 
L 189.169463 444.388044 
L 189.658575 428.400916 
L 190.147687 423.859515 
L 191.12591 398.011913 
L 191.615022 368.236073 
L 192.104133 407.847461 
L 192.593245 356.336704 
L 193.082357 376.122458 
L 193.571468 406.646059 
L 194.06058 400.788598 
L 194.549692 405.574268 
L 195.038804 401.695881 
L 195.527915 398.944121 
L 196.017027 385.848335 
L 196.506139 388.405677 
L 196.99525 395.78857 
L 197.484362 395.045794 
L 197.973474 382.308933 
L 198.462585 384.228186 
L 198.951697 320.763225 
L 199.440809 338.53501 
L 199.92992 338.769308 
L 200.419032 373.191235 
L 200.908144 374.51228 
L 201.397255 380.863262 
L 201.886367 355.569003 
L 202.375479 345.030559 
L 202.86459 383.993888 
L 203.353702 372.966907 
L 203.842814 373.405594 
L 204.331925 375.140399 
L 204.821037 366.182223 
L 205.79926 370.339774 
L 206.288372 389.482453 
L 206.777484 353.948855 
L 207.266595 346.296768 
L 207.755707 340.414382 
L 208.244819 350.18014 
L 208.73393 329.546923 
L 209.223042 325.409313 
L 209.712154 363.520194 
L 210.201266 373.983862 
L 210.690377 358.923957 
L 211.179489 331.67555 
L 211.668601 389.946065 
L 212.157712 387.55323 
L 212.646824 385.943052 
L 213.135936 423.655127 
L 213.625047 421.865486 
L 214.114159 381.501352 
L 214.603271 425.998111 
L 215.581494 357.513182 
L 216.070606 374.980877 
L 216.559717 371.461415 
L 217.048829 327.56785 
L 217.537941 346.630768 
L 218.027052 329.65161 
L 218.516164 364.741537 
L 219.005276 307.124066 
L 219.494387 332.333579 
L 219.983499 371.276967 
L 220.472611 384.432574 
L 220.961722 377.937025 
L 221.450834 362.059568 
L 221.939946 367.31882 
L 222.918169 314.078243 
L 223.407281 336.665607 
L 223.896392 310.902751 
L 224.385504 325.952686 
L 224.874616 324.711403 
L 225.363728 318.629614 
L 225.852839 363.894075 
L 227.320174 326.630656 
L 227.809286 334.915847 
L 228.298398 307.203827 
L 228.787509 335.185041 
L 229.276621 335.264802 
L 229.765733 308.04132 
L 230.254844 344.437336 
L 230.743956 361.665747 
L 231.233068 348.201066 
L 231.722179 371.461415 
L 232.211291 339.851069 
L 232.700403 325.947701 
L 233.189514 300.20977 
L 233.678626 303.734217 
L 234.167738 320.74827 
L 234.656849 292.428072 
L 235.145961 316.884839 
L 235.635073 309.023379 
L 236.124184 274.955392 
L 236.613296 287.752074 
L 237.102408 313.579735 
L 237.591519 298.838875 
L 238.569743 310.997468 
L 239.058854 307.153977 
L 239.547966 322.757254 
L 240.037078 298.509861 
L 240.526189 291.156878 
L 241.015301 313.18093 
L 241.504413 325.957671 
L 241.993525 308.794066 
L 242.482636 348.455304 
L 242.971748 328.6197 
L 243.46086 357.094435 
L 243.949971 354.372586 
L 244.439083 311.685408 
L 244.928195 367.926999 
L 245.417306 363.255985 
L 245.906418 337.413368 
L 246.39553 324.023463 
L 246.884641 331.780236 
L 247.373753 323.923761 
L 247.862865 322.13412 
L 248.351976 292.104042 
L 248.841088 314.826004 
L 249.3302 317.483047 
L 249.819311 327.97164 
L 250.308423 343.923873 
L 250.797535 287.079089 
L 251.286646 289.561655 
L 251.775758 273.255482 
L 252.26487 295.08013 
L 252.753981 268.385066 
L 253.243093 266.595425 
L 253.732205 265.403992 
L 254.221316 279.511748 
L 254.710428 275.369153 
L 255.19954 254.616295 
L 255.688651 270.304319 
L 256.177763 250.099819 
L 256.666875 248.260327 
L 257.155987 262.378053 
L 257.645098 259.077935 
L 258.13421 231.909289 
L 259.112433 309.621588 
L 259.601545 285.588552 
L 260.090657 298.993413 
L 260.579768 239.446719 
L 261.06888 306.495947 
L 261.557992 272.278408 
L 262.047103 260.777845 
L 262.536215 272.039124 
L 263.025327 293.036251 
L 263.514438 304.26762 
L 264.00355 283.350254 
L 264.492662 304.98547 
L 264.981773 277.94145 
L 265.470885 244.087821 
L 265.959997 270.787871 
L 266.449108 289.845804 
L 266.93822 299.462009 
L 267.427332 325.52397 
L 267.916443 317.807077 
L 268.405555 278.260495 
L 268.894667 315.494003 
L 269.383778 304.531828 
L 269.87289 299.880756 
L 270.362002 300.658427 
L 270.851113 306.166932 
L 271.340225 291.475923 
L 271.829337 308.066245 
L 272.318449 282.757031 
L 272.80756 295.259593 
L 273.296672 264.850649 
L 273.785784 305.269619 
L 274.274895 263.409963 
L 274.764007 283.06112 
L 275.253119 287.447984 
L 275.74223 295.463981 
L 276.231342 309.77114 
L 276.720454 290.95249 
L 277.209565 295.688309 
L 277.698677 296.510846 
L 278.187789 282.72712 
L 278.6769 260.493696 
L 279.166012 284.44697 
L 279.655124 250.812684 
L 280.144235 280.882643 
L 280.633347 275.902556 
L 281.122459 238.265256 
L 281.61157 275.603451 
L 282.100682 242.173553 
L 282.589794 230.937199 
L 283.078905 238.115704 
L 283.568017 240.772748 
L 284.057129 277.527689 
L 284.54624 238.559376 
L 285.035352 265.972291 
L 285.524464 278.96339 
L 286.013575 299.17786 
L 286.502687 250.752864 
L 286.991799 245.618239 
L 287.480911 275.040138 
L 287.970022 263.145754 
L 288.459134 256.98919 
L 288.948246 271.735035 
L 289.437357 241.789703 
L 289.926469 264.800799 
L 290.415581 254.616295 
L 290.904692 322.278687 
L 291.393804 258.494682 
L 291.882916 271.411005 
L 292.372027 234.177497 
L 292.861139 263.419933 
L 293.839362 269.671215 
L 294.328474 254.441817 
L 294.817586 320.155046 
L 295.306697 276.18172 
L 295.795809 297.009354 
L 296.284921 285.010284 
L 296.774032 280.832793 
L 297.263144 287.906611 
L 297.752256 272.816796 
L 298.241367 274.49178 
L 298.730479 287.373208 
L 299.219591 281.500792 
L 299.708702 248.454745 
L 300.197814 258.903458 
L 300.686926 245.069881 
L 301.176037 278.988316 
L 301.665149 302.303501 
L 302.154261 243.325105 
L 303.132484 292.27852 
L 304.110708 284.252552 
L 304.599819 282.069091 
L 305.088931 276.261481 
L 305.578043 226.241261 
L 306.067154 211.176371 
L 306.556266 280.065091 
L 307.045378 249.965222 
L 307.534489 240.638151 
L 308.023601 271.07202 
L 308.512713 255.837638 
L 309.001824 235.10472 
L 309.980048 318.65454 
L 310.469159 279.521718 
L 310.958271 256.3511 
L 311.447383 273.225572 
L 311.936494 276.605451 
L 312.425606 274.676228 
L 312.914718 309.830961 
L 313.403829 317.552838 
L 313.892941 238.609226 
L 314.382053 241.365972 
L 314.871164 236.79466 
L 315.360276 295.887712 
L 315.849388 258.220503 
L 316.338499 240.393882 
L 316.827611 267.283365 
L 317.316723 273.714109 
L 317.805834 292.627475 
L 318.294946 321.869911 
L 318.784058 295.797981 
L 319.27317 316.221824 
L 319.762281 318.559823 
L 320.251393 283.04118 
L 320.740505 317.732301 
L 321.229616 291.386192 
L 321.718728 317.124122 
L 322.20784 351.022617 
L 322.696951 326.326566 
L 323.186063 328.804148 
L 323.675175 302.029322 
L 324.164286 291.625475 
L 324.653398 316.371376 
L 325.14251 324.661552 
L 325.631621 306.216783 
L 326.120733 342.368531 
L 326.609845 302.024337 
L 327.098956 337.283756 
L 327.588068 362.109419 
L 328.07718 313.365377 
L 328.566291 288.843804 
L 329.055403 342.458262 
L 329.544515 327.193969 
L 330.033626 318.789136 
L 330.522738 320.623643 
L 331.01185 336.800204 
L 331.500961 348.181125 
L 331.990073 311.037348 
L 332.968296 326.934745 
L 333.457408 300.56371 
L 333.94652 302.403202 
L 334.435632 326.859969 
L 334.924743 299.830905 
L 335.413855 281.495807 
L 335.902967 324.382388 
L 336.392078 300.040278 
L 336.88119 283.39512 
L 337.370302 303.754157 
L 337.859413 266.829723 
L 338.348525 302.752157 
L 338.837637 278.429987 
L 339.326748 297.672368 
L 340.304972 311.381318 
L 340.794083 300.5338 
L 341.283195 275.264466 
L 341.772307 274.746019 
L 342.261418 286.505805 
L 342.75053 268.893543 
L 343.239642 310.563766 
L 343.728753 324.093254 
L 344.217865 327.722387 
L 344.706977 280.743061 
L 345.196088 277.308346 
L 345.6852 278.046137 
L 346.174312 300.249651 
L 346.663423 264.21256 
L 347.152535 270.892557 
L 347.641647 250.144685 
L 348.130758 250.942296 
L 349.108982 255.32916 
L 349.598094 268.913484 
L 350.087205 246.969193 
L 350.576317 289.860759 
L 351.065429 283.898612 
L 351.55454 308.968543 
L 352.043652 325.997552 
L 352.532764 300.972486 
L 353.021875 350.344647 
L 353.510987 258.08092 
L 354.000099 278.415032 
L 354.48921 307.612603 
L 354.978322 283.345269 
L 355.467434 272.722079 
L 355.956545 248.883461 
L 356.445657 286.351268 
L 356.934769 288.425058 
L 357.42388 254.980205 
L 357.912992 287.253566 
L 358.402104 277.717122 
L 358.891215 286.969417 
L 359.869439 240.503554 
L 360.35855 292.482908 
L 360.847662 257.527577 
L 361.336774 304.616575 
L 361.825885 253.763847 
L 362.314997 240.094778 
L 362.804109 244.087821 
L 363.29322 262.353128 
L 363.782332 240.164569 
L 364.271444 276.425988 
L 364.760556 259.696084 
L 365.249667 268.444887 
L 365.738779 265.693127 
L 366.227891 237.652092 
L 366.717002 253.250385 
L 367.206114 241.869464 
L 367.695226 261.660203 
L 368.184337 232.821557 
L 368.673449 262.542561 
L 369.162561 252.811699 
L 369.651672 238.913316 
L 370.140784 240.393882 
L 370.629896 239.705942 
L 371.119007 242.711941 
L 371.608119 244.720926 
L 372.097231 248.290238 
L 372.586342 257.981219 
L 373.075454 220.558278 
L 373.564566 231.031916 
L 374.053677 235.842511 
L 374.542789 245.618239 
L 375.031901 249.616267 
L 375.521012 234.451676 
L 376.010124 253.699042 
L 376.499236 264.22253 
L 376.988347 266.281365 
L 377.477459 266.759932 
L 377.966571 257.303249 
L 378.455682 261.236472 
L 378.944794 263.16071 
L 379.433906 238.659077 
L 379.923018 232.138602 
L 380.412129 220.189383 
L 380.901241 273.46984 
L 381.390353 262.068979 
L 381.879464 245.114746 
L 382.368576 238.973137 
L 382.857688 262.417934 
L 383.346799 234.850481 
L 383.835911 271.211602 
L 384.325023 258.345129 
L 385.303246 272.81181 
L 385.792358 255.593369 
L 386.281469 257.791786 
L 386.770581 258.609338 
L 387.259693 257.961279 
L 387.748804 243.62421 
L 388.237916 239.446719 
L 388.727028 231.485557 
L 389.705251 221.006934 
L 390.194363 219.810517 
L 390.683474 191.649841 
L 391.661698 261.924412 
L 392.150809 229.027916 
L 392.639921 223.863381 
L 393.129033 241.540449 
L 393.618144 272.816796 
L 394.107256 230.772692 
L 394.596368 223.79359 
L 395.085479 262.173665 
L 395.574591 272.193661 
L 396.063703 268.509693 
L 396.552815 213.574191 
L 397.041926 222.811531 
L 397.531038 273.82378 
L 398.02015 219.391771 
L 398.509261 263.001187 
L 398.998373 252.592355 
L 399.487485 283.714165 
L 399.976596 253.479698 
L 400.465708 267.148768 
L 400.95482 211.744669 
L 401.443931 195.603004 
L 401.933043 249.656148 
L 402.422155 279.431987 
L 402.911266 247.567402 
L 403.400378 207.975954 
L 403.88949 247.976178 
L 404.378601 215.358847 
L 404.867713 219.795562 
L 405.356825 247.637193 
L 405.845936 259.362084 
L 406.335048 203.165359 
L 406.82416 192.367691 
L 407.313271 225.079739 
L 407.802383 237.686988 
L 408.291495 228.644066 
L 408.780606 214.690847 
L 409.269718 268.400021 
L 410.737053 236.645108 
L 411.226165 242.547434 
L 411.715277 246.236388 
L 412.204388 246.675074 
L 413.182612 234.491556 
L 413.671723 240.977136 
L 414.160835 225.089709 
L 414.649947 261.769874 
L 414.649947 261.769874 
" style="fill:none;stroke:#1f77b4;stroke-linecap:square;stroke-width:1.5;"/>
   </g>
   <g id="line2d_34">
    <path clip-path="url(#pbe7a82ec3e)" d="M 156.888093 605.301208 
L 157.377204 600.131687 
L 157.866316 597.275241 
L 158.355428 590.495542 
L 158.844539 590.216378 
L 159.333651 589.543393 
L 159.822763 591.088765 
L 160.311874 589.802617 
L 160.800986 594.842525 
L 161.290098 586.073782 
L 161.779209 569.573191 
L 162.268321 577.35489 
L 162.757433 575.779607 
L 163.246544 577.260174 
L 163.735656 571.577191 
L 164.224768 558.316897 
L 164.71388 558.875225 
L 165.202991 556.701734 
L 165.692103 555.44051 
L 166.181215 565.649939 
L 166.670326 545.091499 
L 167.159438 548.366692 
L 167.64855 546.746543 
L 168.137661 557.45448 
L 168.626773 538.426457 
L 169.115885 569.1694 
L 169.604996 557.349793 
L 170.094108 534.857145 
L 170.58322 530.221027 
L 171.072331 521.636732 
L 171.561443 553.969914 
L 172.050555 541.447411 
L 172.539666 535.430428 
L 173.028778 524.852104 
L 173.51789 581.567276 
L 174.007001 553.875197 
L 174.985225 474.94654 
L 175.474336 518.271808 
L 175.963448 500.031427 
L 176.45256 487.424178 
L 176.941671 546.990812 
L 177.430783 516.571898 
L 177.919895 529.383535 
L 178.409006 585.665006 
L 178.898118 529.966788 
L 179.38723 501.831038 
L 179.876342 534.403503 
L 180.365453 527.175148 
L 180.854565 538.850188 
L 181.343677 495.10119 
L 181.832788 486.526864 
L 182.3219 471.526781 
L 182.811012 523.680612 
L 183.300123 501.088262 
L 183.789235 529.582938 
L 184.278347 453.067056 
L 184.767458 515.32563 
L 185.25657 536.517174 
L 185.745682 522.743418 
L 186.234793 531.033594 
L 186.723905 578.346919 
L 187.213017 527.040551 
L 188.19124 576.203338 
L 188.680352 473.994392 
L 189.169463 480.300509 
L 189.658575 477.020331 
L 190.636798 543.511231 
L 191.12591 476.013346 
L 191.615022 435.858585 
L 192.104133 441.980254 
L 192.593245 410.649072 
L 193.082357 411.441699 
L 193.571468 457.214637 
L 194.06058 467.189767 
L 194.549692 479.856837 
L 195.038804 486.21779 
L 195.527915 527.200073 
L 196.017027 419.083815 
L 196.506139 441.765896 
L 196.99525 455.330279 
L 197.484362 482.239702 
L 197.973474 423.829604 
L 198.462585 419.886412 
L 198.951697 406.292118 
L 199.440809 423.724918 
L 199.92992 395.853376 
L 200.419032 408.365909 
L 200.908144 397.059764 
L 201.397255 440.758911 
L 201.886367 498.291636 
L 202.375479 431.262348 
L 202.86459 469.607527 
L 203.353702 428.749871 
L 203.842814 404.038866 
L 204.331925 412.174504 
L 204.821037 453.889593 
L 205.310149 393.774601 
L 205.79926 426.745872 
L 206.288372 474.732182 
L 206.777484 402.62809 
L 207.266595 410.88337 
L 207.755707 387.503379 
L 208.244819 379.098547 
L 208.73393 354.242974 
L 209.223042 350.848139 
L 209.712154 419.233367 
L 210.201266 407.149551 
L 211.179489 373.859235 
L 211.668601 449.213595 
L 212.157712 479.931613 
L 212.646824 458.934487 
L 213.135936 473.072153 
L 213.625047 506.621693 
L 214.114159 444.672194 
L 214.603271 470.933557 
L 215.092382 491.03337 
L 215.581494 420.055904 
L 216.070606 437.88751 
L 217.048829 356.895033 
L 217.537941 408.505491 
L 218.027052 415.604234 
L 218.516164 441.815747 
L 219.494387 388.226215 
L 219.983499 430.255363 
L 220.472611 434.014108 
L 220.961722 428.949274 
L 221.450834 411.406803 
L 221.939946 400.050807 
L 222.429057 395.549287 
L 222.918169 368.101476 
L 223.407281 412.204415 
L 223.896392 354.856138 
L 224.385504 367.523208 
L 224.874616 368.395595 
L 225.363728 357.707599 
L 225.852839 442.797806 
L 226.341951 418.535457 
L 226.831063 441.65124 
L 227.320174 378.405622 
L 227.809286 387.53329 
L 228.298398 361.979807 
L 228.787509 392.782571 
L 229.276621 406.052835 
L 229.765733 379.312905 
L 230.254844 442.877567 
L 230.743956 421.80068 
L 231.233068 389.462513 
L 231.722179 411.675997 
L 232.211291 375.050668 
L 232.700403 379.143412 
L 233.189514 365.64882 
L 233.678626 345.693574 
L 234.167738 366.167268 
L 234.656849 321.949673 
L 235.635073 443.475776 
L 236.124184 310.80305 
L 236.613296 333.933787 
L 237.102408 380.439531 
L 237.591519 342.213993 
L 238.080631 348.749424 
L 238.569743 376.810398 
L 239.058854 394.587168 
L 239.547966 365.918014 
L 240.037078 419.891397 
L 240.526189 328.704446 
L 241.015301 348.908946 
L 241.993525 413.590265 
L 242.482636 402.573254 
L 242.971748 388.560215 
L 243.46086 407.653043 
L 243.949971 394.397735 
L 244.439083 347.772349 
L 245.417306 500.310591 
L 245.906418 386.680842 
L 246.39553 394.452571 
L 246.884641 406.690924 
L 247.373753 373.18625 
L 247.862865 360.399539 
L 248.351976 316.580749 
L 248.841088 389.716752 
L 249.3302 355.942884 
L 249.819311 367.882133 
L 250.308423 415.320085 
L 250.797535 330.818117 
L 251.286646 387.747648 
L 251.775758 294.471952 
L 252.26487 325.88788 
L 252.753981 296.251623 
L 254.221316 359.497241 
L 254.710428 341.914889 
L 255.19954 301.89971 
L 255.688651 306.959559 
L 256.177763 271.520677 
L 256.666875 307.881797 
L 257.155987 298.78404 
L 257.645098 310.673438 
L 258.13421 340.713486 
L 258.623322 298.993413 
L 259.112433 387.87726 
L 259.601545 372.129415 
L 260.090657 361.341717 
L 260.579768 271.864647 
L 261.06888 363.919 
L 261.557992 298.036279 
L 262.047103 291.29646 
L 262.536215 331.874952 
L 263.025327 352.468288 
L 263.514438 360.868136 
L 264.00355 336.969697 
L 264.492662 404.113642 
L 264.981773 334.462205 
L 265.470885 287.687268 
L 265.959997 363.131359 
L 266.449108 339.706502 
L 266.93822 342.383486 
L 267.427332 425.275276 
L 267.916443 388.161409 
L 268.405555 383.525291 
L 268.894667 421.157605 
L 269.383778 362.538135 
L 270.362002 352.388527 
L 270.851113 379.168338 
L 271.340225 360.987777 
L 271.829337 381.107531 
L 272.318449 319.457136 
L 272.80756 361.645807 
L 273.296672 333.958713 
L 273.785784 348.011633 
L 274.274895 320.37439 
L 274.764007 339.716472 
L 275.253119 413.95916 
L 275.74223 368.031685 
L 276.231342 405.419731 
L 276.720454 382.313919 
L 277.209565 316.550839 
L 278.187789 368.809356 
L 278.6769 305.279589 
L 279.166012 320.852957 
L 279.655124 284.367209 
L 280.144235 347.298768 
L 280.633347 321.79015 
L 281.122459 324.49206 
L 281.61157 339.945785 
L 282.100682 296.032279 
L 282.589794 281.929509 
L 283.078905 262.946352 
L 283.568017 299.840875 
L 284.057129 349.372558 
L 284.54624 288.19076 
L 285.035352 347.09438 
L 285.524464 384.557201 
L 286.013575 391.506393 
L 286.502687 312.956601 
L 286.991799 321.201912 
L 287.480911 314.880839 
L 287.970022 317.099197 
L 288.459134 358.704614 
L 288.948246 332.951728 
L 289.437357 268.011185 
L 289.926469 353.106377 
L 290.415581 300.214755 
L 290.904692 452.952399 
L 291.393804 344.656679 
L 291.882916 287.408103 
L 292.372027 268.863633 
L 292.861139 331.087311 
L 293.350251 309.217797 
L 293.839362 392.428631 
L 294.328474 307.921678 
L 294.817586 394.961048 
L 295.306697 408.051849 
L 295.795809 383.4555 
L 296.284921 337.672592 
L 296.774032 345.514111 
L 297.263144 394.163436 
L 297.752256 337.528025 
L 298.241367 353.235989 
L 298.730479 326.730357 
L 299.219591 309.033349 
L 299.708702 325.274716 
L 300.197814 322.48806 
L 300.686926 282.647359 
L 301.176037 311.715318 
L 301.665149 374.995832 
L 302.154261 272.432945 
L 302.643373 302.403202 
L 303.132484 380.843322 
L 304.110708 338.121249 
L 304.599819 365.728581 
L 305.088931 346.471245 
L 305.578043 271.655274 
L 306.067154 252.94131 
L 306.556266 357.388555 
L 307.045378 356.067511 
L 307.534489 344.781306 
L 308.023601 325.394358 
L 308.512713 330.314625 
L 309.001824 325.254776 
L 309.490936 341.830143 
L 309.980048 481.212777 
L 310.469159 406.995014 
L 310.958271 301.91965 
L 311.447383 448.086968 
L 311.936494 335.763309 
L 312.425606 337.293727 
L 312.914718 387.802484 
L 313.403829 396.117585 
L 313.892941 293.943534 
L 314.382053 308.155976 
L 314.871164 305.837917 
L 315.360276 344.811216 
L 315.849388 281.376165 
L 316.338499 290.753087 
L 316.827611 377.25407 
L 317.316723 301.670397 
L 317.805834 385.394694 
L 318.294946 448.131834 
L 318.784058 404.816537 
L 319.762281 390.783557 
L 320.251393 330.194983 
L 320.740505 410.584266 
L 321.229616 374.736608 
L 321.718728 451.830758 
L 322.20784 422.503575 
L 322.696951 380.987889 
L 323.186063 372.408579 
L 323.675175 390.005886 
L 324.164286 368.041655 
L 324.653398 357.064525 
L 325.14251 416.441727 
L 325.631621 372.438489 
L 326.120733 428.171603 
L 326.609845 356.939898 
L 327.098956 417.353995 
L 327.588068 423.126709 
L 328.07718 391.187348 
L 328.566291 390.758632 
L 329.055403 406.576268 
L 329.544515 390.977975 
L 330.033626 402.269165 
L 330.522738 437.772853 
L 331.01185 404.213343 
L 331.990073 417.832562 
L 332.479185 408.236297 
L 332.968296 414.392862 
L 333.457408 363.525179 
L 333.94652 392.049766 
L 334.435632 372.318848 
L 334.924743 363.251 
L 335.413855 324.207911 
L 335.902967 371.695714 
L 336.392078 368.076551 
L 336.88119 334.836086 
L 337.370302 331.835072 
L 337.859413 293.335355 
L 338.348525 354.886048 
L 338.837637 293.963474 
L 339.326748 345.982708 
L 339.81586 330.110237 
L 340.304972 411.715878 
L 340.794083 447.932431 
L 341.283195 330.34952 
L 341.772307 308.649498 
L 342.261418 350.618826 
L 342.75053 310.743229 
L 343.728753 398.974032 
L 344.217865 429.083871 
L 344.706977 352.313751 
L 345.196088 386.012843 
L 345.6852 308.71929 
L 346.174312 344.442321 
L 346.663423 306.176902 
L 347.152535 372.81237 
L 347.641647 308.579707 
L 348.130758 321.471106 
L 348.61987 318.564808 
L 349.108982 299.556726 
L 349.598094 362.677717 
L 350.087205 300.010367 
L 350.576317 360.379598 
L 351.065429 367.573058 
L 351.55454 358.570017 
L 352.043652 465.225649 
L 352.532764 386.606066 
L 353.021875 396.935137 
L 353.510987 289.686282 
L 354.000099 327.886894 
L 354.48921 451.207624 
L 354.978322 374.796429 
L 355.956545 283.848762 
L 356.445657 333.270773 
L 356.934769 362.318792 
L 357.42388 321.351464 
L 357.912992 411.740803 
L 358.891215 339.517069 
L 359.380327 340.583875 
L 359.869439 280.832793 
L 360.35855 336.949757 
L 360.847662 289.317386 
L 361.336774 425.868499 
L 361.825885 305.080186 
L 362.314997 301.765113 
L 362.804109 295.962488 
L 363.29322 329.422297 
L 363.782332 285.384164 
L 364.271444 392.623049 
L 364.760556 318.544868 
L 365.249667 343.67462 
L 365.738779 346.650708 
L 366.227891 278.948435 
L 366.717002 304.038306 
L 367.206114 310.713319 
L 367.695226 350.429393 
L 368.184337 281.136882 
L 368.673449 325.718388 
L 369.162561 293.116012 
L 369.651672 283.270493 
L 370.140784 253.95328 
L 370.629896 289.407118 
L 371.119007 291.500848 
L 372.097231 307.682394 
L 372.586342 292.148908 
L 373.075454 263.933396 
L 373.564566 249.820655 
L 374.053677 253.669131 
L 374.542789 308.664454 
L 375.031901 325.344507 
L 375.521012 279.870673 
L 376.010124 324.058358 
L 376.499236 334.337578 
L 376.988347 301.814964 
L 377.477459 332.632683 
L 377.966571 307.014395 
L 378.455682 347.014618 
L 378.944794 338.689547 
L 379.433906 259.765875 
L 379.923018 290.055177 
L 380.412129 275.075034 
L 380.901241 333.210952 
L 381.390353 325.862955 
L 381.879464 273.360168 
L 382.368576 286.590552 
L 382.857688 404.303074 
L 383.346799 252.103818 
L 383.835911 319.237793 
L 384.325023 319.397315 
L 384.814134 363.251 
L 385.303246 312.278631 
L 385.792358 307.448096 
L 386.281469 300.852845 
L 386.770581 319.596718 
L 387.259693 303.3055 
L 387.748804 277.228585 
L 388.237916 282.702195 
L 388.727028 246.774775 
L 389.216139 274.142825 
L 389.705251 277.742047 
L 390.683474 226.086724 
L 391.172586 252.402923 
L 391.661698 370.135386 
L 392.150809 279.127898 
L 392.639921 284.536702 
L 393.129033 335.992623 
L 393.618144 410.414774 
L 394.107256 291.695266 
L 394.596368 298.175861 
L 395.085479 347.403454 
L 395.574591 323.754269 
L 396.063703 361.979807 
L 396.552815 266.221544 
L 397.041926 311.097169 
L 397.531038 398.325972 
L 398.02015 301.436098 
L 398.509261 376.062637 
L 398.998373 321.41627 
L 399.487485 402.368866 
L 399.976596 352.572975 
L 400.465708 436.117809 
L 400.95482 278.429987 
L 401.443931 212.706788 
L 401.933043 286.12694 
L 402.422155 340.439307 
L 402.911266 296.715234 
L 403.400378 297.906667 
L 403.88949 310.892781 
L 404.378601 249.8057 
L 404.867713 288.838819 
L 405.356825 300.668397 
L 405.845936 334.995608 
L 406.335048 217.95607 
L 406.82416 244.172568 
L 407.313271 280.304375 
L 407.802383 301.999411 
L 408.780606 274.407034 
L 409.269718 370.972878 
L 409.75883 334.252832 
L 410.247941 315.803078 
L 410.737053 309.038334 
L 411.226165 308.340424 
L 411.715277 315.194899 
L 412.204388 368.525207 
L 412.6935 297.263592 
L 413.182612 262.622322 
L 413.671723 304.103112 
L 414.160835 329.442237 
L 414.649947 324.217881 
L 414.649947 324.217881 
" style="fill:none;stroke:#ff7f0e;stroke-linecap:square;stroke-width:1.5;"/>
   </g>
   <g id="line2d_35">
    <path clip-path="url(#pbe7a82ec3e)" d="M 156.888093 559.179315 
L 157.377204 486.511909 
L 157.866316 555.530241 
L 158.355428 538.451382 
L 158.844539 531.606877 
L 159.333651 492.563788 
L 159.822763 541.322784 
L 160.311874 526.955804 
L 160.800986 519.373509 
L 161.290098 541.472336 
L 161.779209 509.423304 
L 162.268321 531.681653 
L 162.757433 527.593894 
L 163.246544 502.872918 
L 163.735656 517.623748 
L 164.224768 492.244743 
L 164.71388 488.072237 
L 165.202991 515.779271 
L 165.692103 505.395365 
L 166.181215 503.511007 
L 166.670326 496.038383 
L 167.159438 494.956622 
L 167.64855 486.880805 
L 168.137661 475.888719 
L 168.626773 484.792059 
L 169.115885 513.889929 
L 170.094108 455.913533 
L 170.58322 463.954455 
L 171.072331 479.677374 
L 171.561443 479.697315 
L 172.050555 476.367286 
L 172.539666 482.593642 
L 173.028778 467.070125 
L 173.51789 465.110992 
L 174.007001 455.439951 
L 174.496113 468.406125 
L 174.985225 432.957273 
L 175.474336 456.247533 
L 175.963448 434.14372 
L 176.45256 452.463862 
L 176.941671 445.011179 
L 177.430783 452.568549 
L 177.919895 446.11288 
L 178.409006 457.623413 
L 178.898118 435.619301 
L 179.38723 448.391058 
L 179.876342 446.028133 
L 180.365453 396.840421 
L 180.854565 435.773839 
L 181.343677 430.933333 
L 181.832788 409.652058 
L 182.3219 411.252266 
L 182.811012 422.817635 
L 183.300123 364.357686 
L 183.789235 428.665125 
L 184.278347 362.807329 
L 184.767458 339.561935 
L 185.25657 389.337886 
L 185.745682 393.101616 
L 186.234793 393.600123 
L 186.723905 385.170365 
L 187.213017 413.879399 
L 187.702128 384.083619 
L 188.19124 346.351604 
L 188.680352 414.038922 
L 189.169463 377.657861 
L 189.658575 353.530108 
L 190.147687 347.84214 
L 190.636798 323.724358 
L 191.12591 336.431309 
L 191.615022 317.33848 
L 192.104133 356.575988 
L 192.593245 309.043319 
L 193.082357 340.025546 
L 193.571468 363.176224 
L 194.06058 328.769252 
L 194.549692 342.174113 
L 195.038804 324.87591 
L 195.527915 325.494059 
L 196.017027 345.723485 
L 196.506139 302.468008 
L 196.99525 361.002733 
L 197.484362 329.32758 
L 197.973474 312.378333 
L 198.951697 265.389037 
L 199.440809 254.581399 
L 199.92992 274.581511 
L 200.419032 337.129219 
L 200.908144 333.928802 
L 201.397255 337.054443 
L 201.886367 295.279533 
L 202.375479 288.963446 
L 202.86459 338.081368 
L 203.842814 353.95384 
L 204.331925 333.699489 
L 204.821037 306.211798 
L 205.310149 340.723457 
L 205.79926 322.597732 
L 206.288372 354.382556 
L 206.777484 316.027406 
L 207.755707 279.387121 
L 208.244819 282.37318 
L 208.73393 311.161975 
L 209.223042 289.038222 
L 209.712154 338.016562 
L 210.201266 339.237905 
L 210.690377 325.843014 
L 211.179489 292.707236 
L 211.668601 318.460122 
L 212.157712 337.014562 
L 213.135936 354.138287 
L 213.625047 343.240918 
L 214.114159 322.991553 
L 214.603271 378.385681 
L 215.092382 311.107139 
L 215.581494 302.014367 
L 216.070606 317.428212 
L 216.559717 318.240778 
L 217.048829 282.931508 
L 217.537941 315.434183 
L 218.027052 276.585511 
L 218.516164 282.767001 
L 219.005276 261.296292 
L 219.494387 271.994259 
L 219.983499 344.208022 
L 220.472611 348.84414 
L 220.961722 343.230948 
L 221.450834 319.791136 
L 221.939946 338.834114 
L 222.429057 261.754919 
L 222.918169 275.927481 
L 223.407281 277.846734 
L 223.896392 261.301277 
L 224.385504 260.997188 
L 224.874616 298.340368 
L 225.363728 273.953392 
L 225.852839 336.122234 
L 226.341951 315.892809 
L 226.831063 281.166792 
L 227.320174 258.539547 
L 227.809286 297.034279 
L 228.298398 271.630348 
L 228.787509 266.151753 
L 229.276621 275.623392 
L 230.254844 256.455787 
L 230.743956 303.564724 
L 231.233068 311.181915 
L 231.722179 348.330678 
L 232.211291 310.568751 
L 232.700403 256.236444 
L 233.189514 244.197493 
L 233.678626 245.693015 
L 234.167738 277.462883 
L 234.656849 223.10565 
L 235.145961 263.215545 
L 235.635073 235.329048 
L 236.124184 223.349919 
L 236.613296 232.986064 
L 237.102408 277.467868 
L 237.591519 266.311276 
L 238.080631 263.150739 
L 238.569743 217.29804 
L 239.058854 255.259369 
L 239.547966 241.675046 
L 240.526189 227.956126 
L 241.015301 247.298208 
L 241.504413 276.849719 
L 241.993525 243.270269 
L 242.482636 305.055261 
L 242.971748 270.907513 
L 243.46086 322.991553 
L 243.949971 298.798995 
L 244.439083 257.422891 
L 244.928195 287.547686 
L 245.417306 286.725149 
L 245.906418 288.634431 
L 246.39553 279.935479 
L 246.884641 273.539631 
L 247.373753 257.193578 
L 247.862865 274.257482 
L 248.351976 264.137784 
L 249.3302 282.791926 
L 249.819311 292.68231 
L 250.797535 253.758862 
L 251.286646 234.576302 
L 251.775758 245.179552 
L 252.26487 260.099875 
L 252.753981 249.755849 
L 253.243093 210.099595 
L 253.732205 232.233318 
L 254.221316 244.032985 
L 254.710428 225.47356 
L 255.19954 213.773594 
L 255.688651 238.529465 
L 256.177763 219.31201 
L 256.666875 194.630915 
L 257.155987 219.551293 
L 257.645098 218.150488 
L 258.13421 195.71766 
L 258.623322 250.274297 
L 259.112433 246.924328 
L 259.601545 241.824598 
L 260.090657 264.790828 
L 260.579768 185.612918 
L 261.06888 235.658063 
L 261.557992 234.356959 
L 262.047103 225.004963 
L 262.536215 236.246302 
L 263.025327 236.43075 
L 263.514438 238.818599 
L 264.00355 222.647023 
L 264.492662 233.574303 
L 264.981773 210.518341 
L 265.470885 199.067629 
L 265.959997 227.288126 
L 266.449108 243.599284 
L 266.93822 249.985162 
L 267.427332 246.904387 
L 267.916443 238.429764 
L 268.405555 227.846454 
L 268.894667 207.926104 
L 269.383778 224.197381 
L 269.87289 250.927341 
L 270.362002 253.075907 
L 270.851113 239.735853 
L 271.340225 231.375886 
L 271.829337 229.770692 
L 272.318449 239.022987 
L 272.80756 228.075768 
L 273.296672 181.938919 
L 273.785784 229.212364 
L 274.274895 211.709774 
L 274.764007 251.166625 
L 275.253119 217.661951 
L 275.74223 246.670089 
L 276.231342 261.226501 
L 276.720454 186.001754 
L 277.209565 250.259341 
L 277.698677 257.672145 
L 278.187789 217.65198 
L 278.6769 233.873407 
L 279.166012 228.434693 
L 279.655124 228.733797 
L 280.144235 210.229207 
L 280.633347 231.824542 
L 281.122459 179.710592 
L 281.61157 214.351862 
L 282.100682 215.049773 
L 282.589794 188.339753 
L 283.078905 218.369831 
L 283.568017 199.301928 
L 284.057129 208.3947 
L 284.54624 210.757625 
L 285.035352 218.125562 
L 285.524464 215.019862 
L 286.013575 233.369915 
L 286.502687 218.040816 
L 286.991799 179.296831 
L 287.480911 227.981051 
L 287.970022 193.569094 
L 288.459134 189.660797 
L 288.948246 229.162513 
L 289.437357 206.973955 
L 289.926469 214.541295 
L 290.415581 214.720758 
L 290.904692 210.966998 
L 291.393804 204.142433 
L 291.882916 254.033041 
L 292.372027 209.267088 
L 292.861139 210.862311 
L 293.350251 216.400727 
L 293.839362 205.533269 
L 294.328474 190.8622 
L 294.817586 222.871352 
L 295.306697 176.176175 
L 295.795809 222.691889 
L 296.774032 250.309192 
L 297.263144 203.992881 
L 297.752256 203.962971 
L 298.241367 212.602102 
L 298.730479 246.699999 
L 299.219591 254.162653 
L 299.708702 200.034733 
L 300.197814 209.586133 
L 300.686926 203.833359 
L 301.176037 229.850454 
L 301.665149 227.976066 
L 302.154261 209.900192 
L 302.643373 225.084724 
L 303.132484 228.783648 
L 303.621596 241.041942 
L 304.110708 242.547434 
L 304.599819 209.74067 
L 305.578043 198.42954 
L 306.067154 175.433399 
L 306.556266 232.183468 
L 307.534489 183.170232 
L 308.023601 207.736671 
L 308.512713 196.879182 
L 309.001824 173.703579 
L 309.490936 202.87124 
L 309.980048 241.500569 
L 310.469159 210.976968 
L 310.958271 216.440608 
L 311.447383 194.466407 
L 311.936494 216.684876 
L 312.425606 181.953875 
L 312.914718 241.640151 
L 313.403829 261.510651 
L 313.892941 199.940017 
L 314.382053 152.671557 
L 315.360276 247.796715 
L 315.849388 198.928047 
L 316.338499 181.879098 
L 317.316723 240.663076 
L 317.805834 235.214392 
L 318.294946 209.71076 
L 318.784058 206.899179 
L 319.27317 258.948323 
L 319.762281 285.708194 
L 320.251393 240.827584 
L 320.740505 256.964264 
L 321.229616 240.334061 
L 321.718728 237.821585 
L 322.20784 271.221572 
L 322.696951 260.917427 
L 323.186063 296.824906 
L 323.675175 218.015891 
L 324.164286 200.792464 
L 324.653398 242.696986 
L 325.14251 259.372054 
L 325.631621 250.573401 
L 326.120733 273.235542 
L 326.609845 245.618239 
L 327.098956 272.348199 
L 327.588068 247.462716 
L 328.07718 235.309108 
L 328.566291 247.048954 
L 329.055403 251.071908 
L 329.544515 265.194619 
L 330.033626 270.872617 
L 331.01185 251.774803 
L 331.500961 324.601731 
L 331.990073 252.751878 
L 332.479185 244.935284 
L 332.968296 263.464799 
L 333.457408 253.793758 
L 333.94652 230.159528 
L 334.435632 284.003299 
L 334.924743 246.316149 
L 335.413855 252.437818 
L 335.902967 284.172791 
L 336.392078 244.222418 
L 336.88119 239.885405 
L 337.370302 255.129757 
L 337.859413 224.50147 
L 338.348525 237.402839 
L 338.837637 256.086891 
L 339.326748 253.340116 
L 339.81586 277.747033 
L 340.304972 234.561347 
L 340.794083 262.722023 
L 341.283195 233.489557 
L 341.772307 245.079851 
L 342.261418 204.959985 
L 342.75053 216.036817 
L 343.239642 254.775817 
L 343.728753 275.139839 
L 344.217865 274.018198 
L 344.706977 246.226417 
L 345.196088 239.765763 
L 345.6852 236.570332 
L 346.174312 260.010144 
L 346.663423 234.975108 
L 347.641647 205.971955 
L 348.130758 203.095568 
L 348.61987 197.05366 
L 349.108982 208.633984 
L 349.598094 214.406698 
L 350.087205 199.311898 
L 350.576317 202.552195 
L 351.065429 217.821473 
L 351.55454 261.774859 
L 352.043652 254.711011 
L 352.532764 233.160542 
L 353.021875 307.188872 
L 353.510987 220.952099 
L 354.000099 212.163415 
L 354.48921 244.411851 
L 354.978322 201.415599 
L 355.467434 234.117676 
L 355.956545 228.250245 
L 356.445657 235.109705 
L 356.934769 210.737685 
L 357.42388 221.854397 
L 357.912992 187.233067 
L 358.402104 211.829416 
L 358.891215 191.191214 
L 359.380327 210.528312 
L 359.869439 197.547182 
L 360.35855 235.348989 
L 360.847662 230.314065 
L 361.336774 251.037013 
L 361.825885 222.976038 
L 362.314997 205.249119 
L 362.804109 211.590132 
L 363.29322 198.913092 
L 364.271444 207.776551 
L 364.760556 207.587119 
L 365.249667 199.755569 
L 365.738779 184.630859 
L 366.227891 197.866227 
L 366.717002 188.334768 
L 367.206114 206.958999 
L 367.695226 218.599144 
L 368.184337 169.720506 
L 369.162561 205.892194 
L 369.651672 206.774552 
L 370.140784 229.571289 
L 370.629896 197.307899 
L 371.119007 189.915036 
L 371.608119 219.406726 
L 372.097231 195.513272 
L 372.586342 220.069741 
L 373.075454 178.544085 
L 373.564566 210.922132 
L 374.053677 218.364846 
L 374.542789 203.20524 
L 375.031901 200.637927 
L 376.010124 225.47356 
L 376.499236 216.704817 
L 376.988347 236.734839 
L 377.966571 205.483418 
L 378.455682 213.963027 
L 378.944794 224.680933 
L 379.433906 204.272045 
L 379.923018 191.450438 
L 380.412129 191.345752 
L 381.390353 236.570332 
L 381.879464 210.209267 
L 382.368576 220.573233 
L 382.857688 203.280016 
L 383.346799 212.552251 
L 383.835911 231.904303 
L 384.325023 226.85941 
L 384.814134 206.365776 
L 385.303246 227.627111 
L 385.792358 204.172344 
L 386.281469 229.307081 
L 386.770581 219.70583 
L 387.259693 214.596131 
L 387.748804 184.446411 
L 388.727028 215.164429 
L 389.216139 196.430526 
L 389.705251 198.952973 
L 390.194363 185.657784 
L 390.683474 159.745375 
L 391.172586 191.365692 
L 391.661698 200.632942 
L 392.150809 186.879126 
L 392.639921 148.005529 
L 393.129033 170.238954 
L 393.618144 158.543973 
L 394.107256 177.651757 
L 394.596368 174.446355 
L 395.085479 215.613086 
L 395.574591 193.015751 
L 396.063703 180.194144 
L 396.552815 162.945792 
L 397.041926 179.511189 
L 397.531038 200.632942 
L 398.02015 180.697636 
L 398.509261 194.296915 
L 398.998373 172.851132 
L 399.487485 183.564053 
L 399.976596 214.965026 
L 400.465708 196.978884 
L 400.95482 168.145223 
L 401.443931 176.081459 
L 401.933043 217.507413 
L 402.422155 214.272101 
L 402.911266 163.509105 
L 403.400378 169.197073 
L 403.88949 212.911176 
L 404.378601 162.771315 
L 404.867713 180.014681 
L 405.356825 186.973843 
L 405.845936 206.884223 
L 406.335048 178.91298 
L 406.82416 159.790241 
L 407.313271 178.788353 
L 407.802383 185.921992 
L 408.291495 147.791171 
L 408.780606 159.655644 
L 409.269718 183.957874 
L 409.75883 198.195242 
L 410.247941 181.764442 
L 410.737053 198.215182 
L 411.226165 177.412473 
L 411.715277 198.828346 
L 412.204388 195.308884 
L 412.6935 195.129422 
L 413.182612 208.34485 
L 413.671723 213.245176 
L 414.160835 195.059631 
L 414.649947 223.698874 
L 414.649947 223.698874 
" style="fill:none;stroke:#2ca02c;stroke-linecap:square;stroke-width:1.5;"/>
   </g>
   <g id="line2d_36">
    <path clip-path="url(#pbe7a82ec3e)" d="M 168.626773 507.352934 
L 180.854565 445.164856 
L 193.082357 398.259951 
L 205.310149 343.019886 
L 217.537941 344.646796 
L 229.765733 311.116225 
L 241.993525 313.056851 
L 254.221316 261.006448 
L 266.449108 321.220593 
L 278.6769 256.102289 
L 290.904692 256.326281 
L 303.132484 269.157952 
L 315.360276 270.226608 
L 327.588068 281.319361 
L 339.81586 322.470401 
L 352.043652 301.39694 
L 364.271444 299.211759 
L 376.499236 231.977827 
L 388.727028 253.497807 
L 400.95482 206.532427 
L 413.182612 260.004411 
" style="fill:none;stroke:#d62728;stroke-linecap:square;stroke-width:1.5;"/>
   </g>
   <g id="line2d_37">
    <path clip-path="url(#pbe7a82ec3e)" d="M 168.626773 111.325364 
L 180.854565 111.325364 
L 193.082357 111.325364 
L 205.310149 111.325364 
L 217.537941 111.325364 
L 229.765733 111.325364 
L 241.993525 111.325364 
L 254.221316 111.325364 
L 266.449108 111.325364 
L 278.6769 111.325364 
L 290.904692 111.325364 
L 303.132484 111.325364 
L 315.360276 111.325364 
L 327.588068 111.325364 
L 339.81586 111.325364 
L 352.043652 111.325364 
L 364.271444 111.325364 
L 376.499236 111.325364 
L 388.727028 111.325364 
L 400.95482 111.325364 
L 413.182612 111.325364 
" style="fill:none;stroke:#9467bd;stroke-linecap:square;stroke-width:1.5;"/>
   </g>
   <g id="patch_3">
    <path d="M 144 630 
L 144 86.4 
" style="fill:none;stroke:#000000;stroke-linecap:square;stroke-linejoin:miter;stroke-width:0.8;"/>
   </g>
   <g id="patch_4">
    <path d="M 1036.8 630 
L 1036.8 86.4 
" style="fill:none;stroke:#000000;stroke-linecap:square;stroke-linejoin:miter;stroke-width:0.8;"/>
   </g>
   <g id="patch_5">
    <path d="M 144 630 
L 1036.8 630 
" style="fill:none;stroke:#000000;stroke-linecap:square;stroke-linejoin:miter;stroke-width:0.8;"/>
   </g>
   <g id="patch_6">
    <path d="M 144 86.4 
L 1036.8 86.4 
" style="fill:none;stroke:#000000;stroke-linecap:square;stroke-linejoin:miter;stroke-width:0.8;"/>
   </g>
   <g id="text_35">
    <!-- carracing.cma.4.8 -->
    <defs>
     <path d="M 10.6875 12.40625 
L 21 12.40625 
L 21 0 
L 10.6875 0 
z
" id="DejaVuSans-2e"/>
    </defs>
    <g transform="translate(536.061563 80.4)scale(0.12 -0.12)">
     <use xlink:href="#DejaVuSans-63"/>
     <use x="54.980469" xlink:href="#DejaVuSans-61"/>
     <use x="116.259766" xlink:href="#DejaVuSans-72"/>
     <use x="157.357422" xlink:href="#DejaVuSans-72"/>
     <use x="198.470703" xlink:href="#DejaVuSans-61"/>
     <use x="259.75" xlink:href="#DejaVuSans-63"/>
     <use x="314.730469" xlink:href="#DejaVuSans-69"/>
     <use x="342.513672" xlink:href="#DejaVuSans-6e"/>
     <use x="405.892578" xlink:href="#DejaVuSans-67"/>
     <use x="469.369141" xlink:href="#DejaVuSans-2e"/>
     <use x="501.15625" xlink:href="#DejaVuSans-63"/>
     <use x="556.136719" xlink:href="#DejaVuSans-6d"/>
     <use x="653.548828" xlink:href="#DejaVuSans-61"/>
     <use x="714.828125" xlink:href="#DejaVuSans-2e"/>
     <use x="746.615234" xlink:href="#DejaVuSans-34"/>
     <use x="810.238281" xlink:href="#DejaVuSans-2e"/>
     <use x="842.025391" xlink:href="#DejaVuSans-38"/>
    </g>
   </g>
   <g id="legend_1">
    <g id="patch_7">
     <path d="M 924.329687 167.790625 
L 1029.8 167.790625 
Q 1031.8 167.790625 1031.8 165.790625 
L 1031.8 93.4 
Q 1031.8 91.4 1029.8 91.4 
L 924.329687 91.4 
Q 922.329687 91.4 922.329687 93.4 
L 922.329687 165.790625 
Q 922.329687 167.790625 924.329687 167.790625 
z
" style="fill:#ffffff;opacity:0.8;stroke:#cccccc;stroke-linejoin:miter;"/>
    </g>
    <g id="line2d_38">
     <path d="M 926.329687 99.498438 
L 946.329687 99.498438 
" style="fill:none;stroke:#1f77b4;stroke-linecap:square;stroke-width:1.5;"/>
    </g>
    <g id="line2d_39"/>
    <g id="text_36">
     <!-- mean -->
     <g transform="translate(954.329687 102.998438)scale(0.1 -0.1)">
      <use xlink:href="#DejaVuSans-6d"/>
      <use x="97.412109" xlink:href="#DejaVuSans-65"/>
      <use x="158.935547" xlink:href="#DejaVuSans-61"/>
      <use x="220.214844" xlink:href="#DejaVuSans-6e"/>
     </g>
    </g>
    <g id="line2d_40">
     <path d="M 926.329687 114.176563 
L 946.329687 114.176563 
" style="fill:none;stroke:#ff7f0e;stroke-linecap:square;stroke-width:1.5;"/>
    </g>
    <g id="line2d_41"/>
    <g id="text_37">
     <!-- min -->
     <g transform="translate(954.329687 117.676563)scale(0.1 -0.1)">
      <use xlink:href="#DejaVuSans-6d"/>
      <use x="97.412109" xlink:href="#DejaVuSans-69"/>
      <use x="125.195312" xlink:href="#DejaVuSans-6e"/>
     </g>
    </g>
    <g id="line2d_42">
     <path d="M 926.329687 128.854688 
L 946.329687 128.854688 
" style="fill:none;stroke:#2ca02c;stroke-linecap:square;stroke-width:1.5;"/>
    </g>
    <g id="line2d_43"/>
    <g id="text_38">
     <!-- max -->
     <defs>
      <path d="M 54.890625 54.6875 
L 35.109375 28.078125 
L 55.90625 0 
L 45.3125 0 
L 29.390625 21.484375 
L 13.484375 0 
L 2.875 0 
L 24.125 28.609375 
L 4.6875 54.6875 
L 15.28125 54.6875 
L 29.78125 35.203125 
L 44.28125 54.6875 
z
" id="DejaVuSans-78"/>
     </defs>
     <g transform="translate(954.329687 132.354688)scale(0.1 -0.1)">
      <use xlink:href="#DejaVuSans-6d"/>
      <use x="97.412109" xlink:href="#DejaVuSans-61"/>
      <use x="158.691406" xlink:href="#DejaVuSans-78"/>
     </g>
    </g>
    <g id="line2d_44">
     <path d="M 926.329687 143.532812 
L 946.329687 143.532812 
" style="fill:none;stroke:#9467bd;stroke-linecap:square;stroke-width:1.5;"/>
    </g>
    <g id="line2d_45"/>
    <g id="text_39">
     <!-- requirement -->
     <defs>
      <path d="M 14.796875 27.296875 
Q 14.796875 17.390625 18.875 11.75 
Q 22.953125 6.109375 30.078125 6.109375 
Q 37.203125 6.109375 41.296875 11.75 
Q 45.40625 17.390625 45.40625 27.296875 
Q 45.40625 37.203125 41.296875 42.84375 
Q 37.203125 48.484375 30.078125 48.484375 
Q 22.953125 48.484375 18.875 42.84375 
Q 14.796875 37.203125 14.796875 27.296875 
M 45.40625 8.203125 
Q 42.578125 3.328125 38.25 0.953125 
Q 33.9375 -1.421875 27.875 -1.421875 
Q 17.96875 -1.421875 11.734375 6.484375 
Q 5.515625 14.40625 5.515625 27.296875 
Q 5.515625 40.1875 11.734375 48.09375 
Q 17.96875 56 27.875 56 
Q 33.9375 56 38.25 53.625 
Q 42.578125 51.265625 45.40625 46.390625 
L 45.40625 54.6875 
L 54.390625 54.6875 
L 54.390625 -20.796875 
L 45.40625 -20.796875 
z
" id="DejaVuSans-71"/>
     </defs>
     <g transform="translate(954.329687 147.032812)scale(0.1 -0.1)">
      <use xlink:href="#DejaVuSans-72"/>
      <use x="41.082031" xlink:href="#DejaVuSans-65"/>
      <use x="102.605469" xlink:href="#DejaVuSans-71"/>
      <use x="166.082031" xlink:href="#DejaVuSans-75"/>
      <use x="229.460938" xlink:href="#DejaVuSans-69"/>
      <use x="257.244141" xlink:href="#DejaVuSans-72"/>
      <use x="298.326172" xlink:href="#DejaVuSans-65"/>
      <use x="359.849609" xlink:href="#DejaVuSans-6d"/>
      <use x="457.261719" xlink:href="#DejaVuSans-65"/>
      <use x="518.785156" xlink:href="#DejaVuSans-6e"/>
      <use x="582.164062" xlink:href="#DejaVuSans-74"/>
     </g>
    </g>
    <g id="line2d_46">
     <path d="M 926.329687 158.210938 
L 946.329687 158.210938 
" style="fill:none;stroke:#d62728;stroke-linecap:square;stroke-width:1.5;"/>
    </g>
    <g id="line2d_47"/>
    <g id="text_40">
     <!-- best avg score -->
     <defs>
      <path d="M 48.6875 27.296875 
Q 48.6875 37.203125 44.609375 42.84375 
Q 40.53125 48.484375 33.40625 48.484375 
Q 26.265625 48.484375 22.1875 42.84375 
Q 18.109375 37.203125 18.109375 27.296875 
Q 18.109375 17.390625 22.1875 11.75 
Q 26.265625 6.109375 33.40625 6.109375 
Q 40.53125 6.109375 44.609375 11.75 
Q 48.6875 17.390625 48.6875 27.296875 
M 18.109375 46.390625 
Q 20.953125 51.265625 25.265625 53.625 
Q 29.59375 56 35.59375 56 
Q 45.5625 56 51.78125 48.09375 
Q 58.015625 40.1875 58.015625 27.296875 
Q 58.015625 14.40625 51.78125 6.484375 
Q 45.5625 -1.421875 35.59375 -1.421875 
Q 29.59375 -1.421875 25.265625 0.953125 
Q 20.953125 3.328125 18.109375 8.203125 
L 18.109375 0 
L 9.078125 0 
L 9.078125 75.984375 
L 18.109375 75.984375 
z
" id="DejaVuSans-62"/>
      <path d="M 44.28125 53.078125 
L 44.28125 44.578125 
Q 40.484375 46.53125 36.375 47.5 
Q 32.28125 48.484375 27.875 48.484375 
Q 21.1875 48.484375 17.84375 46.4375 
Q 14.5 44.390625 14.5 40.28125 
Q 14.5 37.15625 16.890625 35.375 
Q 19.28125 33.59375 26.515625 31.984375 
L 29.59375 31.296875 
Q 39.15625 29.25 43.1875 25.515625 
Q 47.21875 21.78125 47.21875 15.09375 
Q 47.21875 7.46875 41.1875 3.015625 
Q 35.15625 -1.421875 24.609375 -1.421875 
Q 20.21875 -1.421875 15.453125 -0.5625 
Q 10.6875 0.296875 5.421875 2 
L 5.421875 11.28125 
Q 10.40625 8.6875 15.234375 7.390625 
Q 20.0625 6.109375 24.8125 6.109375 
Q 31.15625 6.109375 34.5625 8.28125 
Q 37.984375 10.453125 37.984375 14.40625 
Q 37.984375 18.0625 35.515625 20.015625 
Q 33.0625 21.96875 24.703125 23.78125 
L 21.578125 24.515625 
Q 13.234375 26.265625 9.515625 29.90625 
Q 5.8125 33.546875 5.8125 39.890625 
Q 5.8125 47.609375 11.28125 51.796875 
Q 16.75 56 26.8125 56 
Q 31.78125 56 36.171875 55.265625 
Q 40.578125 54.546875 44.28125 53.078125 
" id="DejaVuSans-73"/>
     </defs>
     <g transform="translate(954.329687 161.710938)scale(0.1 -0.1)">
      <use xlink:href="#DejaVuSans-62"/>
      <use x="63.476562" xlink:href="#DejaVuSans-65"/>
      <use x="125" xlink:href="#DejaVuSans-73"/>
      <use x="177.099609" xlink:href="#DejaVuSans-74"/>
      <use x="216.308594" xlink:href="#DejaVuSans-20"/>
      <use x="248.095703" xlink:href="#DejaVuSans-61"/>
      <use x="309.375" xlink:href="#DejaVuSans-76"/>
      <use x="368.554688" xlink:href="#DejaVuSans-67"/>
      <use x="432.03125" xlink:href="#DejaVuSans-20"/>
      <use x="463.818359" xlink:href="#DejaVuSans-73"/>
      <use x="515.917969" xlink:href="#DejaVuSans-63"/>
      <use x="570.898438" xlink:href="#DejaVuSans-6f"/>
      <use x="632.080078" xlink:href="#DejaVuSans-72"/>
      <use x="673.162109" xlink:href="#DejaVuSans-65"/>
     </g>
    </g>
   </g>
  </g>
 </g>
 <defs>
  <clipPath id="pbe7a82ec3e">
   <rect height="543.6" width="892.8" x="144" y="86.4"/>
  </clipPath>
 </defs>
</svg>
